<svg width="10" height="11" xmlns="http://www.w3.org/2000/svg">
    <path d="M 0 1 C 0 1 1 1 5 0 C 9 1 10 1 10 1 C 10 4 10 5 10 7 C 10 11 5 10 5 11 C 5 10 0 11 0 7 C 0 5 0 3 0 1 Z" fill="#77bb77"/>
    <path d="M 1 2 C 1 2 2 2 5 1 C 8 2 9 2 9 2 C 9 4 9 5 9 7 C 9 10 5 9 5 10 C 5 9 1 10 1 7 C 1 5 1 3.6667 1 2 Z" fill="#447777"/>
    <path d="M 2 3.5 L 3 6.5 L 7 6.5 L 8 3.5 L 6 4.5 L 5 2.5 L 4 4.5 L 2 3.5 Z" fill="#ddc"/>
    <path d="M 3 7.5 L 7 7.5 M 7 7.5 L 7 7 L 3 7 L 3 7.5 Z" fill="#ddc"/>
    <path d="M 5 4 L 5.5 5 L 5 5.5 L 4.5 5 L 5 4 Z" fill="#77bb77"/>
</svg>