<svg version="1.1" xmlns="http://www.w3.org/2000/svg" xmlns:xlink="http://www.w3.org/1999/xlink" width="1528" height="732" viewBox="0 0 1528 732"><defs/><g><rect fill="transparent" stroke="none" x="0" y="0" width="1528" height="732" transform="matrix(1 0 0 1 0 0)" fill-opacity="1"/><path fill="none" stroke="rgb(0,0,0)" paint-order="fill stroke markers" d=" M 796.8701789890529 241.76749618088982 L 862.4771883281803 -6.193521646181523" stroke-opacity="1" stroke-linecap="round" stroke-miterlimit="10" stroke-width="4" stroke-dasharray=""/><path fill="none" stroke="rgb(0,0,0)" paint-order="fill stroke markers" d=" M 858.0143272353408 355.0741556447936 L 1286.965882880805 305.22369060690505" stroke-opacity="1" stroke-linecap="round" stroke-miterlimit="10" stroke-width="4" stroke-dasharray=""/><path fill="none" stroke="rgb(0,0,0)" paint-order="fill stroke markers" d=" M 774.7869000881334 429.8179410146228 L 817.5693273409605 682.9292516391538" stroke-opacity="1" stroke-linecap="round" stroke-miterlimit="10" stroke-width="4" stroke-dasharray=""/><path fill="none" stroke="rgb(0,0,0)" paint-order="fill stroke markers" d=" M 725.3817438484543 418.57920934207124 L 654.3548255270152 515.2831928852452" stroke-opacity="1" stroke-linecap="round" stroke-miterlimit="10" stroke-width="4" stroke-dasharray=""/><path fill="none" stroke="rgb(0,0,0)" paint-order="fill stroke markers" d=" M 597.2056222859266 327.2852135640023 L 247.17312855682792 246.03887045517004" stroke-opacity="1" stroke-linecap="round" stroke-miterlimit="10" stroke-width="4" stroke-dasharray=""/><path fill="none" stroke="rgb(0,0,0)" paint-order="fill stroke markers" d=" M 796.052703575382 179.60318550595716 L 854.2928477176539 -159.08204640474935" stroke-opacity="1" stroke-linecap="round" stroke-miterlimit="10" stroke-width="4" stroke-dasharray=""/><path fill="none" stroke="rgb(0,0,0)" paint-order="fill stroke markers" d=" M 926.5946060846741 274.276139131153 L 1202.8598310850869 118.42771542857184" stroke-opacity="1" stroke-linecap="round" stroke-miterlimit="10" stroke-width="4" stroke-dasharray=""/><path fill="none" stroke="rgb(0,0,0)" paint-order="fill stroke markers" d=" M 826.6215337331629 428.0246966047024 L 948.0266850209216 548.2727522808516" stroke-opacity="1" stroke-linecap="round" stroke-miterlimit="10" stroke-width="4" stroke-dasharray=""/><path fill="none" stroke="rgb(0,0,0)" paint-order="fill stroke markers" d=" M 728.8050664755754 457.5182451797364 L 558.1218237773945 901.3500496206843" stroke-opacity="1" stroke-linecap="round" stroke-miterlimit="10" stroke-width="4" stroke-dasharray=""/><path fill="none" stroke="rgb(0,0,0)" paint-order="fill stroke markers" d=" M 611.8263871990048 364.02271578671616 L 309.76251904331406 360.09781641083833" stroke-opacity="1" stroke-linecap="round" stroke-miterlimit="10" stroke-width="4" stroke-dasharray=""/><path fill="none" stroke="rgb(0,0,0)" paint-order="fill stroke markers" d=" M 759.1280326739975 243.02083153603706 L 749.0627716205013 -11.04849034246189" stroke-opacity="1" stroke-linecap="round" stroke-miterlimit="10" stroke-width="4" stroke-dasharray=""/><path fill="none" stroke="rgb(0,0,0)" paint-order="fill stroke markers" d=" M 940.3544298223441 273.1155989578337 L 1247.092519373703 111.55921643034188" stroke-opacity="1" stroke-linecap="round" stroke-miterlimit="10" stroke-width="4" stroke-dasharray=""/><path fill="none" stroke="rgb(0,0,0)" paint-order="fill stroke markers" d=" M 928.4400505170419 420.9993354943376 L 1116.22945529029 483.8081977084455" stroke-opacity="1" stroke-linecap="round" stroke-miterlimit="10" stroke-width="4" stroke-dasharray=""/><path fill="none" stroke="rgb(0,0,0)" paint-order="fill stroke markers" d=" M 797.091220495532 446.8494590191597 L 939.9404667744232 795.8630073258014" stroke-opacity="1" stroke-linecap="round" stroke-miterlimit="10" stroke-width="4" stroke-dasharray=""/><path fill="none" stroke="rgb(0,0,0)" paint-order="fill stroke markers" d=" M 709.9718639978731 433.517557352727 L 565.2537109951525 614.3680718875478" stroke-opacity="1" stroke-linecap="round" stroke-miterlimit="10" stroke-width="4" stroke-dasharray=""/><path fill="none" stroke="rgb(0,0,0)" paint-order="fill stroke markers" d=" M 603.1162516978651 261.02022025215103 L 252.524537972514 32.25229759541685" stroke-opacity="1" stroke-linecap="round" stroke-miterlimit="10" stroke-width="4" stroke-dasharray=""/><path fill="none" stroke="rgb(0,0,0)" paint-order="fill stroke markers" d=" M 812.2091187094841 268.82786155434707 L 1034.2374990827907 -178.7010104524892" stroke-opacity="1" stroke-linecap="round" stroke-miterlimit="10" stroke-width="4" stroke-dasharray=""/><path fill="none" stroke="rgb(0,0,0)" paint-order="fill stroke markers" d=" M 962.803904146629 350.2852149191552 L 1070.4915396539755 341.7728667581546" stroke-opacity="1" stroke-linecap="round" stroke-miterlimit="10" stroke-width="4" stroke-dasharray=""/><path fill="none" stroke="rgb(0,0,0)" paint-order="fill stroke markers" d=" M 833.637011719662 515.7936735351745 L 913.992391236924 688.6432428799949" stroke-opacity="1" stroke-linecap="round" stroke-miterlimit="10" stroke-width="4" stroke-dasharray=""/><path fill="rgb(255,255,255)" stroke="rgb(0,0,0)" paint-order="fill stroke markers" d=" M 517.75 429.75333004107233 L 517.75 424.75334951019795 L 517.75 419.753662109375 L 517.75 414.7428846216062 L 517.75 409.7598823551525 L 517.75 404.75562225002795 L 517.75 399.75242608958047 L 517.75 394.75084382785076 C 503.5478110822587 396.40901607389185 503.4735744979035 380.546185246615 517.75 379.7490778913332 C 497.63576532231883 380.8721324265941 497.60677562721077 370.05900600940765 517.75 369.7520857828497 C 495.81662688568264 370.0862823206453 495.9376343305107 337.42798533066036 517.75 339.752904124558 C 496.74356699292446 337.51388742958227 496.91478669332 321.26704653971325 517.75 324.75664678992507 C 498.6752741867849 321.5619030169311 499.17143565263154 289.38475990131667 517.75 294.7595621688524 C 490.18447981005164 286.7848221592067 490.49920801516674 275.7564797844799 517.75 284.74807128783686 C 504.77713556166424 280.46758293642074 504.94031300291084 270.00709565462824 517.75 274.7536429575266 C 489.8029225015551 264.3980327576615 477.23299638850887 262.0971556686883 505.2543731444748 272.25 C 491.6382634939196 267.31654355765284 481.5698575417455 267.4800222807211 495.24409415817354 272.25 C 479.5653632048708 266.7807954358509 457.02101428288205 283.33439924332936 473.0550908446312 287.6521754860878 C 462.1408611218059 284.71310995127277 443.46108582376496 295.4636177485183 454.5 297.8927926023025 C 449.3976424420556 296.76999026170114 449.35083133261486 312.00428307484367 454.5 312.88791183172725 C 441.0827517915133 310.58543018447443 441.63686902025194 325.55316906369455 455.1443371474743 327.2479481101036 C 438.15887084771356 325.1167854001723 457.55162520550294 320.7754945759762 474.48684695735574 323.2747312858701 C 450.01966471850443 319.66395600728185 455.67504968110046 331.06686876616095 480.25 333.85120381159686 C 453.38791859600053 330.8077374494701 453.21682676605036 363.65379098727425 480.25 363.85787370521575 C 454.52482124031894 363.66366548721 454.6472047070671 396.37421090945406 480.25 393.8603667938296 C 450.6852331198568 396.7632222985163 450.87618942846746 413.291412861638 480.25 408.8550558802817 C 451.5018584906966 413.19691741626565 451.973116759444 440.61714747251125 480.25 433.8551007382339 C 459.2911048181162 438.8671463556041 433.5122849640478 443.00083655908765 454.5 438.110876836814 C 451.9532360214399 438.70425125875386 452.01668788015905 468.9308895501162 454.5 468.1115844283486 C 430.3212236530537 476.08875135023993 441.36970899332795 480.78429459116614 465.35750242178983 472.25 C 443.63040977355183 479.97999024785724 473.9083453486489 480.73147593249485 495.3532484769821 472.25 C 471.57830880484596 481.65300720497646 501.9988545800296 482.64886227282244 525.3553946564498 472.25 C 518.1411260233084 475.4619562944564 536.2401546419699 463.4923338907207 543.5 460.384765625 C 522.6938156638845 469.29082835567937 517.5033208929598 441.3674793137495 539.1464312868775 434.75 L 517.75 429.75333004107233 L 517.75 429.75333004107233 Z" fill-opacity="1" stroke-opacity="1" stroke-linecap="round" stroke-miterlimit="10" stroke-width="4" stroke-dasharray=""/><path fill="rgb(255,255,255)" stroke="none" paint-order="stroke fill markers" d=" M 525.7269053774739 384.14438826299875 L 515.1230815018957 384.9518646496035 L 515.1195729613285 379.8959446781034 L 525.7375594179925 379.3031019457509 Z" fill-opacity="1"/><path fill="none" stroke="rgb(0,0,0)" paint-order="fill stroke markers" d=" M 525.7269053774739 384.14438826299875 L 515.1230815018957 384.9518646496035" stroke-opacity="1" stroke-linecap="round" stroke-miterlimit="10" stroke-width="4" stroke-dasharray=""/><path fill="none" stroke="rgb(0,0,0)" paint-order="fill stroke markers" d=" M 525.7375594179925 379.3031019457509 L 515.1195729613285 379.8959446781034" stroke-opacity="1" stroke-linecap="round" stroke-miterlimit="10" stroke-width="4" stroke-dasharray=""/><path fill="rgb(255,255,255)" stroke="rgb(0,0,0)" paint-order="fill stroke markers" d=" M 1021.511414823628 269.91103407838455 L 1016.5257378088099 270.4363039766358 L 1011.6311062737659 271.38431795008364 L 1006.8399021508812 272.8308021000412 L 1002.257900756551 274.83067280915566 L 997.9912398438901 277.4118612278253 C 1011.7123508266027 272.2171040024868 997.6804171419985 293.04164282028614 983.6755772661418 297.4141534585506 C 988.5040333456298 295.90664064433054 984.4773825083042 326.0784941452356 979.5 326.97974126040936 C 1001.0994999815554 323.0687524997315 1001.2541980761025 334.03721441050703 979.5 336.96793080843054 C 1007.0739505661572 333.25317980740226 1007.3182148911102 361.4631136046973 979.5 361.9818091768211 C 992.6194754486676 361.7371847877132 992.5600497631557 388.244331806422 979.5 386.97327817897894 C 988.0074546416828 387.8012559645709 987.8971977618189 408.5729152642934 979.5 406.97623074860894 L 1006.2779288978303 417.6835494578121 L 979.5 416.9770242024679 L 979.5641335999567 421.9789388709828 L 979.8205595519394 426.97081804834306 L 980.3016966386481 431.94455012399203 L 981.0435153197905 436.88101290361374 L 982.0962189396087 441.7860698736913 L 983.4970795723202 446.56634073276655 C 1008.1065487991049 455.5992394248168 1025.8112696080068 479.8698100682607 1001.7717040353709 469.4142602747852 C 1027.7850243757784 480.72825699785227 1047.0975496977187 485.5891948418519 1020.9662135309081 474.5505070974068 C 1027.2724177255477 477.2144435495255 1047.2309519498658 475.7127628129462 1040.8473605396284 473.24000534959487 C 1060.0874477591758 480.6928741518445 1074.044614801738 474.19495406776235 1054.5635850796643 467.39674176105837 C 1076.5253523659103 475.0606465326401 1091.613088511897 453.60926620643625 1069.142104273109 447.60014596939436 C 1095.2218020740772 454.57429708651455 1098.0419526242881 444.10283642953806 1071.7548217773438 437.95660400390625 C 1094.3889446840994 443.24872131199993 1095.884294449763 432.6366704896345 1073.0945558390704 428.0608820966845 C 1101.5321131608866 433.7706555583233 1101.9218659437627 428.32114499116057 1073.3977910055146 423.06060050108863 C 1093.1025765291424 426.69465002377353 1093.2589977629368 421.3983130004245 1073.4996376518066 418.07377145847204 C 1085.5240141131176 420.0968905694591 1085.662476276841 388.94676052466474 1073.5 388.0791136864573 C 1094.2057767297263 389.55622256652845 1094.2529884221292 373.54025549492525 1073.5 373.0664283367405 C 1081.5486621571176 373.2501934234607 1081.5437443714684 352.73495164726677 1073.5 353.07097041606903 C 1098.8687932211067 352.01121636739595 1098.7484670715062 330.39086894912515 1073.5 333.0766944605857 C 1100.1445341363324 330.24236121882217 1097.2917813444276 297.89863745291177 1071.0393424648682 303.2627866997682 C 1074.738574563221 302.50692423817515 1069.331031055395 288.37429121699574 1065.671772995469 289.30460118103656 C 1070.16531755152 288.16218673365535 1064.1139913768532 280.0595494023023 1059.6566540745553 281.33594966097735 C 1073.0320970980356 277.5057663526013 1060.404148546541 268.8871252537264 1047.1826551594713 273.21897161132074 C 1065.5991196817388 267.18506209557955 1055.8366917970993 264.220921044613 1037.5378639330265 270.60270201430467 L 1021.511414823628 269.91103407838455 M 1031.344071507454 308.22925996780396 L 1034.4136597809847 312.05495308246464 L 1035.496785691008 316.9156633242965 L 1035.8769562300295 321.89866103976965 L 1035.9907833321486 326.8912351215258 L 1036 331.90067875012755 C 1048.6325075559662 330.3170025246043 1044.3358321085113 344.70505423434633 1031.6410162001848 345.669381249696 C 1034.811712025854 345.4285280018641 1027.0245151523818 358.3982492771771 1023.8460118069779 358.4901121595758 C 1043.6825114748156 357.9168115088707 1038.497507563527 367.1118122256874 1018.6528878360987 367.03143448010087 C 1041.6255850184716 367.1244820484052 1039.9611987282533 357.1941659438066 1017 357.92685049027205 C 1021.930308427873 357.76952591688354 1021.912442725178 342.4853327213898 1017 342.9332151693525 C 1020.8719592840282 342.5801967832746 1022.0709040002179 312.2216409077668 1018.2646496798843 313.01481095701456 L 1031.344071507454 308.22925996780396 M 1021.6559284925461 436.27074003219604 L 1018.5863402190153 432.44504691753536 L 1017.503214308992 427.5843366757035 L 1017.1230437699705 422.60133896023035 C 1022.6223434107128 423.83104811026885 1022.5418915181446 413.6200658474454 1017 412.59932124987245 C 1039.84747416753 416.80752989999456 1052.3199076317799 387.7581076309272 1029.153988193022 386.0098878404242 C 1049.729107978812 387.5625925235506 1056.6180654287493 377.3700192650906 1036 376.5688800709322 C 1038.5876981932413 376.66942812925623 1038.5677915975334 401.9025498719689 1036 401.5667848306475 C 1050.117405605661 403.41278015249867 1048.57387514216 434.83243724303065 1034.7353503201157 431.48518904298544 C 1051.447223905667 435.5274398968851 1044.123438389846 441.7076913493263 1027.5251601487398 437.2217499613762 L 1021.6559284925461 436.27074003219604 Z" fill-opacity="1" stroke-opacity="1" stroke-linecap="round" stroke-miterlimit="10" stroke-width="4" stroke-dasharray=""/><path fill="rgb(255,255,255)" stroke="none" paint-order="stroke fill markers" d=" M 1018.9834694642196 272.504088600471 L 1033.8071704377455 267.0686168981442 L 1028.808745094862 267.1880754855329 L 1014.0162190305144 272.70782510076936 Z" fill-opacity="1"/><path fill="none" stroke="rgb(0,0,0)" paint-order="fill stroke markers" d=" M 1018.9834694642196 272.504088600471 L 1033.8071704377455 267.0686168981442" stroke-opacity="1" stroke-linecap="round" stroke-miterlimit="10" stroke-width="4" stroke-dasharray=""/><path fill="none" stroke="rgb(0,0,0)" paint-order="fill stroke markers" d=" M 1014.0162190305144 272.70782510076936 L 1028.808745094862 267.1880754855329" stroke-opacity="1" stroke-linecap="round" stroke-miterlimit="10" stroke-width="4" stroke-dasharray=""/><path fill="rgb(255,255,255)" stroke="none" paint-order="stroke fill markers" d=" M 971.7148520465669 415.13542941990664 L 985.9270136359692 418.49734916613556 L 985.9564942928015 423.63894400490784 L 971.8209613298698 419.9681471871534 Z" fill-opacity="1"/><path fill="none" stroke="rgb(0,0,0)" paint-order="fill stroke markers" d=" M 971.7148520465669 415.13542941990664 L 985.9270136359692 418.49734916613556" stroke-opacity="1" stroke-linecap="round" stroke-miterlimit="10" stroke-width="4" stroke-dasharray=""/><path fill="none" stroke="rgb(0,0,0)" paint-order="fill stroke markers" d=" M 971.8209613298698 419.9681471871534 L 985.9564942928015 423.63894400490784" stroke-opacity="1" stroke-linecap="round" stroke-miterlimit="10" stroke-width="4" stroke-dasharray=""/><path fill="rgb(255,255,255)" stroke="rgb(0,0,0)" paint-order="fill stroke markers" d=" M 590.511414823628 269.91103407838455 L 585.5257378088099 270.4363039766358 L 580.6311062737659 271.38431795008364 C 557.2366530511977 259.3131203611249 538.8986101350845 270.27217925800977 563.1241577567707 280.574465181242 C 546.3732600782939 273.4508888621667 533.7941965428708 296.96284883758216 551.2297237129824 302.19164457931765 C 526.3362105356244 294.7262496744974 522.8292779959778 327.9156168844943 548.5 331.96939921565354 C 534.68440545624 329.78771484202434 534.5674006494861 345.74402495578414 548.5 346.97409594632336 C 526.004050670342 344.9879902686322 525.9167797423031 367.08104402674115 548.5 366.97850233842837 C 531.7824932009783 367.0544100855074 531.9523568125294 399.3508764207107 548.5 396.97257860471655 C 522.6533019246517 400.68737622796993 522.7441682426653 406.27679267978266 548.5 401.9769492794003 C 528.3779698422063 405.3362497823493 528.6473719010504 421.67320936758506 548.5 416.9770242024679 C 535.9241954944409 419.9518598899175 537.7762968488425 440.94498353778414 550.0435153197905 436.88101290361374 C 528.7268869913203 443.94293584495466 529.9406276091831 449.31669762863993 551.0962189396087 441.7860698736913 C 543.2911134514881 444.5644060166575 544.754908627207 449.5155122199215 552.4970795723202 446.56634073276655 C 528.2845505456406 455.78945150410215 543.458414496574 478.53930591413325 566.5370171871036 466.76261571608484 C 557.5255983291108 471.36101751529696 566.4957207413428 476.4148305386019 575.3263196379412 471.4780813988764 C 556.605788754928 481.94380018127066 561.5563415494278 483.76602966232645 580.0951085090455 472.98161193159103 C 557.5425806053515 486.10092468455304 578.1963471745867 489.0269311736043 599.9506552817734 474.62266233639775 C 581.1851136094302 487.0479670527052 600.9682398246861 483.0433688420782 619.2509148775098 469.9179147751747 C 595.329402911435 487.0915890659675 606.9241341763383 477.7282815087377 630.9206313680334 460.6595397297351 C 627.792166079549 462.8848214342746 633.0381221829247 454.3758188117138 636.2204716753513 452.2283027037738 C 624.1248511912754 460.39068081054654 628.1533317217529 445.313974433045 640.7548217773438 437.95660400390625 C 627.3492550714702 445.7834339765953 628.3448539287231 429.6547983782185 642.3977910055146 423.06060050108863 C 627.1928770565072 430.1953518158208 626.8383225925124 419.1316742748319 642.5 413.0648839122441 C 623.1594628953815 420.5567368639258 622.2552822061668 397.5735964042992 642.5 393.0640911550727 C 636.9083786382997 394.3096232557946 636.8270574630436 383.86802968547164 642.5 383.0709709430048 C 615.3919331178897 386.8797036349022 615.129657004966 368.5398910872301 642.5 368.0729230610341 C 613.2834023198989 368.5713902140879 613.5921871879493 343.8053656674668 642.5 348.07109045078323 C 639.2324428551166 347.5889197800218 639.3120273333644 332.2128376856479 642.5 333.0766944605857 C 637.2863334723702 331.6639279085711 636.1610761980594 305.8393046530446 641.0486063815188 308.1393648039084 C 629.7392057771942 302.8171876134343 626.0373291103327 287.59972026276193 636.904355329898 293.7751435858372 C 629.628314303755 289.64037547682153 613.637176663926 270.87300233041117 620.7094965874858 275.34730353040504 L 590.511414823628 269.91103407838455 M 600.3440715074539 308.22925996780396 L 603.4136597809847 312.05495308246464 L 604.496785691008 316.9156633242965 C 592.6448475999777 313.2684357618929 590.9803665074655 339.52201674617055 603.2380934699904 341.3978725822526 C 576.1838745101561 337.25764212340795 562.8877246915325 362.24548744677674 590.2521412705537 362.75634659448406 C 580.4954725357857 362.57420189353957 576.2430865063308 362.75699958331364 586 362.925524267368 C 577.2307770730624 362.7740593062281 577.3771505055491 331.31282545404895 586 332.915535338223 C 565.0661489940821 329.02460694586233 574.3553039455319 300.30905233511766 594.4748398512602 307.2782500386238 L 600.3440715074539 308.22925996780396 M 590.6559284925461 436.27074003219604 L 587.5863402190153 432.44504691753536 L 586.503214308992 427.5843366757035 L 586.1230437699705 422.60133896023035 L 586.0092166678514 417.6087648784742 L 586 412.59932124987245 L 586 407.61122703552246 L 587.7619065300096 403.1021274177474 L 590.3589837998152 398.830618750304 L 592.9602783546725 394.55217375876236 L 595.5556637793779 390.2834477312863 L 598.1539881930221 386.0098878404242 C 592.9693079888634 386.63543721748385 598.1380870589737 377.8404234212125 603.3471121639013 377.46856551989913 C 596.4191837037513 377.9631311796429 598.0875236324835 382.25157130142617 605 381.574475732632 C 582.6968354119549 383.7591304221754 582.874460821924 395.13250593894577 605 391.57380072027445 C 594.3736708175933 393.2829555938525 594.6538947448801 414.55063868309173 605 411.584464661777 C 585.6218996621851 417.1400642219122 585.0743089249193 439.11021318863646 603.7353503201157 431.48518904298544 L 590.6559284925461 436.27074003219604 Z" fill-opacity="1" stroke-opacity="1" stroke-linecap="round" stroke-miterlimit="10" stroke-width="4" stroke-dasharray=""/><path fill="rgb(255,255,255)" stroke="none" paint-order="stroke fill markers" d=" M 593.7391879553235 410.57324874569684 L 580.5125078306097 414.0359134434543 L 580.4764973804465 408.90246142616036 L 593.7899746596258 405.7901573492154 Z" fill-opacity="1"/><path fill="none" stroke="rgb(0,0,0)" paint-order="fill stroke markers" d=" M 593.7391879553235 410.57324874569684 L 580.5125078306097 414.0359134434543" stroke-opacity="1" stroke-linecap="round" stroke-miterlimit="10" stroke-width="4" stroke-dasharray=""/><path fill="none" stroke="rgb(0,0,0)" paint-order="fill stroke markers" d=" M 593.7899746596258 405.7901573492154 L 580.4764973804465 408.90246142616036" stroke-opacity="1" stroke-linecap="round" stroke-miterlimit="10" stroke-width="4" stroke-dasharray=""/><path fill="rgb(255,255,255)" stroke="none" paint-order="stroke fill markers" d=" M 595.5903104432102 401.45407032778223 L 574.5319997593965 405.88732372272096 L 577.0744455513149 401.34235025277076 L 598.219714265477 397.34437632518757 Z" fill-opacity="1"/><path fill="none" stroke="rgb(0,0,0)" paint-order="fill stroke markers" d=" M 595.5903104432102 401.45407032778223 L 574.5319997593965 405.88732372272096" stroke-opacity="1" stroke-linecap="round" stroke-miterlimit="10" stroke-width="4" stroke-dasharray=""/><path fill="none" stroke="rgb(0,0,0)" paint-order="fill stroke markers" d=" M 598.219714265477 397.34437632518757 L 577.0744455513149 401.34235025277076" stroke-opacity="1" stroke-linecap="round" stroke-miterlimit="10" stroke-width="4" stroke-dasharray=""/><path fill="rgb(255,255,255)" stroke="rgb(0,0,0)" paint-order="fill stroke markers" d=" M 922.511414823628 269.91103407838455 L 917.5257378088099 270.4363039766358 L 912.6311062737659 271.38431795008364 L 907.8399021508812 272.8308021000412 L 903.257900756551 274.83067280915566 L 898.9912398438901 277.4118612278253 L 895.1241577567707 280.574465181242 L 891.7397455126047 284.25965379178524 L 888.8845318555832 288.35983669757843 L 886.5445200940558 292.77306074856097 L 889.8187817155855 294.4910182302609 L 883.2297237129824 302.19164457931765 C 904.7572856872549 290.6707059826481 903.4242181273478 313.34522415342093 880.5823175604746 321.9716677542019 C 886.076873067022 319.89660079338466 886.1377303734793 330.3225721626951 880.5 331.96939921565354 C 903.5902724924382 325.2245421753794 904.4833290154706 355.11425306473467 880.5 356.9726689505005 C 888.3354945814858 356.3655135554479 888.3587057552028 367.04450887884457 880.5 366.97850233842837 C 910.3247419305628 367.2290051686608 910.2865341212774 373.5132259060422 880.5 371.98339979350567 C 905.8315559929214 373.2844197668724 905.753141789171 379.3535042493006 880.5 376.9745944633614 C 896.5045563449955 378.4822641238966 896.035744685965 401.10289683191706 880.5 396.97257860471655 C 904.9550381989696 403.4741716768104 904.6779029577606 409.4434487505901 880.5 401.9769492794003 C 900.0906326469114 408.0268307994801 899.0467793734107 430.85507311547565 880.5641335999567 421.9789388709828 C 898.046463390871 430.3746798288886 899.458190832251 452.1978995368643 883.0962189396087 441.7860698736913 C 903.4124096362813 454.71413981087386 906.0791341499436 465.00523114729197 886.3220499508025 451.2378704462608 C 889.973405457284 453.7822503658247 898.2980544090676 466.20971425498635 894.7311760736957 463.5482024382836 L 921.6799797547577 484.09572962400784 L 902.7717040353709 469.4142602747852 C 907.2922322448776 472.78300957484623 916.6651217344411 476.28291868185175 912.0951085090455 472.98161193159103 C 926.6231462104494 483.4764412824482 936.7370968043268 484.70069575969615 921.9662135309081 474.5505070974068 C 935.0672522397037 483.55321953543245 945.2984067013845 483.2553663468115 931.9506552817734 474.62266233639775 C 940.3446602267268 480.05151382409224 964.39881525379 472.0733276163125 955.5635850796643 467.39674176105837 C 967.4299839422049 473.6777590044889 984.2253560702503 447.48522694160204 971.6334783560887 442.8261266841728 C 986.9937485772456 448.5095553646379 989.1584526533874 438.02267214124913 973.5590752942335 433.03281354208957 C 984.5109724438207 436.5360570953914 985.4954625242954 426.07032697207075 974.3977910055146 423.06060050108863 C 990.5080043696482 427.4297454638988 991.0018654863553 400.5737308493082 974.5 398.06039883499034 C 982.1739480100249 399.2291866442083 982.2580742360389 373.32686480049387 974.5 373.0664283367405 C 982.8566864424298 373.3469600511255 982.8456666661967 352.55837482830236 974.5 353.07097041606903 C 977.8408126583696 352.86577580469407 977.7940630426586 327.477948859256 974.5 328.0714829508215 C 991.2962912492826 325.04507715979355 986.8929107230539 293.13505159886114 970.6709450184462 298.43810359004783 C 983.7328922903913 294.16807942956103 976.663975907479 279.9638159530437 963.9248271437827 285.11761665181257 C 975.2395302304375 280.54009536243535 971.8674404484744 276.5095145404973 960.6566540745553 281.33594966097735 C 970.3336330014187 277.1698448584263 957.5919092952935 268.4791101171092 948.1826551594713 273.21897161132074 C 960.5452937696316 266.9913584690564 945.6322395446474 263.1733131656016 933.586063178404 269.9929637291193 L 922.511414823628 269.91103407838455 M 932.3440715074539 308.22925996780396 L 935.4136597809847 312.05495308246464 L 936.496785691008 316.9156633242965 L 936.8769562300295 321.89866103976965 L 936.9907833321486 326.8912351215258 L 937 331.90067875012755 L 937 336.88877296447754 L 935.2380934699904 341.3978725822526 L 932.6410162001848 345.669381249696 L 941.4583747770052 348.8439084416628 L 927.4443362206221 354.2165522687137 C 945.9831855224012 352.8800020596515 938.2394456279378 367.15459837920616 919.6528878360987 367.03143448010087 C 938.1685700367536 367.15412872181935 936.4497233088772 351.359913527229 918 352.92619927972555 C 926.2579709240556 352.22514040820005 926.2312006216141 346.96339092643177 918 347.9292603019858 C 946.6568109031363 344.56659945519493 946.0129905749293 321.00596783886175 918.0027125116903 327.9301733477041 C 929.7049300476101 325.03735811234844 937.8115985523305 303.18091219587757 926.4748398512602 307.2782500386238 L 932.3440715074539 308.22925996780396 M 922.6559284925461 436.27074003219604 L 919.5863402190153 432.44504691753536 L 918.503214308992 427.5843366757035 L 918.1230437699705 422.60133896023035 L 918.0092166678514 417.6087648784742 L 918 412.59932124987245 L 918 407.61122703552246 L 919.7619065300096 403.1021274177474 L 922.3589837998152 398.830618750304 C 929.7789125941108 400.36890124969074 937.677335641515 386.9159229002267 930.1539881930221 386.0098878404242 C 956.1951225055286 389.14601585334515 963.0457736482043 389.67051133262413 937 386.57314950972795 C 962.9707715059711 389.6615920824177 962.7547446278808 401.12184717782793 937 396.5707396980142 C 961.6118226688607 400.91988203502825 961.1682250819587 417.9526473333748 937 411.584464661777 C 948.3382739307747 414.57203198734317 947.6741097347546 430.4484827126458 936.6101696997357 426.5663125520805 C 942.2423375468488 428.5425555438314 934.0027675646925 439.5929665303974 928.5251601487398 437.2217499613762 L 922.6559284925461 436.27074003219604 Z" fill-opacity="1" stroke-opacity="1" stroke-linecap="round" stroke-miterlimit="10" stroke-width="4" stroke-dasharray=""/><path fill="rgb(255,255,255)" stroke="none" paint-order="stroke fill markers" d=" M 892.1338169090841 461.96688571955974 L 908.7076186608344 474.3799721085917 L 912.9605936416871 477.00713728802754 L 896.3569899274214 464.6339419890146 Z" fill-opacity="1"/><path fill="none" stroke="rgb(0,0,0)" paint-order="fill stroke markers" d=" M 892.1338169090841 461.96688571955974 L 908.7076186608344 474.3799721085917" stroke-opacity="1" stroke-linecap="round" stroke-miterlimit="10" stroke-width="4" stroke-dasharray=""/><path fill="none" stroke="rgb(0,0,0)" paint-order="fill stroke markers" d=" M 896.3569899274214 464.6339419890146 L 912.9605936416871 477.00713728802754" stroke-opacity="1" stroke-linecap="round" stroke-miterlimit="10" stroke-width="4" stroke-dasharray=""/><path fill="rgb(255,255,255)" stroke="none" paint-order="stroke fill markers" d=" M 900.8830662676843 466.7363005090974 L 914.6167890478317 476.8433536516977 L 919.4327393941996 478.2822028002278 L 905.6101742376896 468.2969958858308 Z" fill-opacity="1"/><path fill="none" stroke="rgb(0,0,0)" paint-order="fill stroke markers" d=" M 900.8830662676843 466.7363005090974 L 914.6167890478317 476.8433536516977" stroke-opacity="1" stroke-linecap="round" stroke-miterlimit="10" stroke-width="4" stroke-dasharray=""/><path fill="none" stroke="rgb(0,0,0)" paint-order="fill stroke markers" d=" M 905.6101742376896 468.2969958858308 L 919.4327393941996 478.2822028002278" stroke-opacity="1" stroke-linecap="round" stroke-miterlimit="10" stroke-width="4" stroke-dasharray=""/><path fill="rgb(255,255,255)" stroke="rgb(0,0,0)" paint-order="fill stroke markers" d=" M 689.511414823628 269.91103407838455 L 684.5257378088099 270.4363039766358 L 679.6311062737659 271.38431795008364 L 674.8399021508812 272.8308021000412 L 670.257900756551 274.83067280915566 L 665.9912398438901 277.4118612278253 L 662.1241577567707 280.574465181242 L 649.7039845620841 277.2428910835146 L 655.8845318555832 288.35983669757843 L 630.6318397148535 277.58299995986863 L 651.6755772661418 297.4141534585506 L 646.3079966777034 299.9921337694935 L 649.1428182617346 307.0790847542121 L 648.3691301303879 312.015660376961 L 647.8617639311319 316.9824271408638 L 647.5823175604746 321.9716677542019 L 647.5 326.97974126040936 L 647.5 331.96939921565354 L 647.5 336.96793080843054 L 647.5 341.98135401308537 L 647.5 346.97409594632336 L 647.5 351.97772694937885 L 647.5 356.9726689505005 L 647.5 361.9818091768211 L 647.5 366.97850233842837 L 647.5 371.98339979350567 C 642.982460014711 372.21541908805614 643.1283640278697 398.13481756418446 647.5 396.97257860471655 C 643.8554825218804 397.9415065366249 643.9921142218652 413.3554113359502 647.5 411.9711908502213 C 642.7781882787639 413.83442954374715 643.8916072926568 434.45816829711 648.3016966386481 431.94455012399203 C 631.0147173607868 441.79760793349953 637.5575311864455 463.378807349109 653.3220499508025 451.2378704462608 C 650.8718278613937 453.12489232305506 656.0930237317581 461.86869079160743 658.4050110334938 459.81463271853863 C 636.3135861870381 479.4415007023671 660.7248243561293 496.12848339929354 679.0951085090455 472.98161193159103 C 667.448494558614 487.656544224448 689.3251406108939 490.6958300898621 698.9506552817734 474.62266233639775 C 696.1855752438702 479.2399318352882 706.3859368989604 478.02605162001004 708.8473605396284 473.24000534959487 C 704.6602334362533 481.3815473928913 714.5620806921564 478.2970103454347 718.2509148775098 469.9179147751747 C 715.0323779202294 477.22874182957173 734.6447474414958 455.1876607944394 737.142104273109 447.60014596939436 C 733.0687156075232 459.97598929985594 736.3317832166482 430.0340086592163 741.4996376518066 418.07377145847204 C 732.9495453072159 437.86169966207257 729.1170675989292 415.70492112499267 741.5 398.06039883499034 C 736.4153043118198 405.30561535577317 735.8414023948106 399.87052677270464 741.5 393.0640911550727 C 732.8491018253485 403.4698110116069 729.5748689887739 384.46367444739553 741.5 378.0677151506243 C 734.1370164529565 382.0167990663778 734.9656529066114 342.86425853964755 741.5 348.07109045078323 C 730.7114753651946 339.4743579020311 733.7165458592284 321.68749273486833 741.5 333.0766944605857 C 737.0789028968056 326.60748864956855 737.8536372802782 310.989004827275 741.217251498485 318.0659266731236 C 732.8012301873982 300.358924262095 731.7917321587146 285.0463245310875 739.0393424648682 303.2627866997682 C 731.7726964637857 284.9984793791163 723.4846435398636 266.92331166513503 730.9248271437827 285.11761665181257 C 728.150866094032 278.3341424733336 724.7657755137056 274.6014709890945 727.6566540745553 281.33594966097735 C 721.3175455623606 266.56860811565133 712.6548774942127 260.9080853211488 719.7094965874858 275.34730353040504 C 713.4871549357731 262.6115700069191 703.4382755106444 259.3315090115352 710.4366477967706 271.6578721960541 C 696.0807842918128 246.37262297599005 684.5609014949495 245.73128946469828 700.586063178404 269.9929637291193 L 689.511414823628 269.91103407838455 M 699.3440715074539 308.22925996780396 L 702.4136597809847 312.05495308246464 L 703.496785691008 316.9156633242965 L 703.8769562300295 321.89866103976965 L 703.9907833321486 326.8912351215258 L 704 331.90067875012755 C 678.1467324463247 317.2076974889329 674.6123991061929 330.3935028837289 702.2380934699904 341.3978725822526 C 685.5524901164812 334.7513591760389 682.5145513474504 340.2592332500872 699.6410162001848 345.669381249696 C 674.5989040564122 337.7587275283602 660.3933524117228 367.3816090310361 686.6528878360987 367.03143448010087 C 664.9258953809251 367.32116694121294 663.2875120869405 362.08053037896593 685 362.925524267368 C 672.550126675902 362.4410073887695 673.259975884563 333.75379619546095 685 337.9258384005079 C 676.4610421032467 334.8913563260179 681.5864429959406 303.3111634099918 688.7990545779467 308.79752081632614 C 675.3060597329181 298.53391638400984 680.4467532658472 296.4306030239938 693.4748398512602 307.2782500386238 L 699.3440715074539 308.22925996780396 M 689.6559284925461 436.27074003219604 L 686.5863402190153 432.44504691753536 L 685.503214308992 427.5843366757035 L 685.1230437699705 422.60133896023035 L 685.0092166678514 417.6087648784742 L 685 412.59932124987245 L 685 407.61122703552246 L 686.7619065300096 403.1021274177474 L 689.3589837998152 398.830618750304 L 691.9602783546725 394.55217375876236 C 689.4858642326036 395.5328813510581 694.6041055282941 386.7731774481091 697.1539881930221 386.0098878404242 C 688.6728917266333 388.54864496996385 695.8559896055918 395.0450223684484 704 391.57380072027445 C 677.2015269773792 402.99611419841034 678.9407237478279 416.4214162718602 704 401.5667848306475 C 685.3026982800402 412.650166617106 687.3772145457415 430.577096865129 703.9972874883097 416.5698266522959 C 701.2420331229362 418.8919339339088 701.0659879844192 429.1179293424074 703.6101696997357 426.5663125520805 L 689.6559284925461 436.27074003219604 Z" fill-opacity="1" stroke-opacity="1" stroke-linecap="round" stroke-miterlimit="10" stroke-width="4" stroke-dasharray=""/><path fill="rgb(255,255,255)" stroke="none" paint-order="stroke fill markers" d=" M 657.2072342417871 306.1049995108845 L 640.1241688086914 296.52391782237913 L 638.833731833026 301.7905969249388 L 656.2608597527694 310.73058928411587 Z" fill-opacity="1"/><path fill="none" stroke="rgb(0,0,0)" paint-order="fill stroke markers" d=" M 657.2072342417871 306.1049995108845 L 640.1241688086914 296.52391782237913" stroke-opacity="1" stroke-linecap="round" stroke-miterlimit="10" stroke-width="4" stroke-dasharray=""/><path fill="none" stroke="rgb(0,0,0)" paint-order="fill stroke markers" d=" M 656.2608597527694 310.73058928411587 L 638.833731833026 301.7905969249388" stroke-opacity="1" stroke-linecap="round" stroke-miterlimit="10" stroke-width="4" stroke-dasharray=""/><path fill="rgb(255,255,255)" stroke="none" paint-order="stroke fill markers" d=" M 655.1790880583217 334.21252350836244 L 639.3090321619634 329.5767506617167 L 639.2199589642819 334.9045254499927 L 655.2625947869718 338.9023873660398 Z" fill-opacity="1"/><path fill="none" stroke="rgb(0,0,0)" paint-order="fill stroke markers" d=" M 655.1790880583217 334.21252350836244 L 639.3090321619634 329.5767506617167" stroke-opacity="1" stroke-linecap="round" stroke-miterlimit="10" stroke-width="4" stroke-dasharray=""/><path fill="none" stroke="rgb(0,0,0)" paint-order="fill stroke markers" d=" M 655.2625947869718 338.9023873660398 L 639.2199589642819 334.9045254499927" stroke-opacity="1" stroke-linecap="round" stroke-miterlimit="10" stroke-width="4" stroke-dasharray=""/><path fill="rgb(255,255,255)" stroke="none" paint-order="stroke fill markers" d=" M 737.7532052245112 444.639807413602 L 730.8035545372251 465.46212862709996 L 732.7803058960504 460.8522409166796 L 739.6432318104333 440.00117491786125 Z" fill-opacity="1"/><path fill="none" stroke="rgb(0,0,0)" paint-order="fill stroke markers" d=" M 737.7532052245112 444.639807413602 L 730.8035545372251 465.46212862709996" stroke-opacity="1" stroke-linecap="round" stroke-miterlimit="10" stroke-width="4" stroke-dasharray=""/><path fill="none" stroke="rgb(0,0,0)" paint-order="fill stroke markers" d=" M 739.6432318104333 440.00117491786125 L 732.7803058960504 460.8522409166796" stroke-opacity="1" stroke-linecap="round" stroke-miterlimit="10" stroke-width="4" stroke-dasharray=""/><path fill="rgb(255,255,255)" stroke="none" paint-order="stroke fill markers" d=" M 743.1084091068485 315.5310903996042 L 738.5883378854245 304.611717766466 L 737.6279400201679 299.7153057850125 L 741.9967527345427 310.69607160597377 Z" fill-opacity="1"/><path fill="none" stroke="rgb(0,0,0)" paint-order="fill stroke markers" d=" M 743.1084091068485 315.5310903996042 L 738.5883378854245 304.611717766466" stroke-opacity="1" stroke-linecap="round" stroke-miterlimit="10" stroke-width="4" stroke-dasharray=""/><path fill="none" stroke="rgb(0,0,0)" paint-order="fill stroke markers" d=" M 741.9967527345427 310.69607160597377 L 737.6279400201679 299.7153057850125" stroke-opacity="1" stroke-linecap="round" stroke-miterlimit="10" stroke-width="4" stroke-dasharray=""/><path fill="rgb(255,255,255)" stroke="none" paint-order="stroke fill markers" d=" M 700.0802962126978 431.5234963345809 L 687.5288518311888 444.389865719867 L 682.4071143475521 443.1223897198716 L 695.4698122152404 430.7754005468693 Z" fill-opacity="1"/><path fill="none" stroke="rgb(0,0,0)" paint-order="fill stroke markers" d=" M 700.0802962126978 431.5234963345809 L 687.5288518311888 444.389865719867" stroke-opacity="1" stroke-linecap="round" stroke-miterlimit="10" stroke-width="4" stroke-dasharray=""/><path fill="none" stroke="rgb(0,0,0)" paint-order="fill stroke markers" d=" M 695.4698122152404 430.7754005468693 L 682.4071143475521 443.1223897198716" stroke-opacity="1" stroke-linecap="round" stroke-miterlimit="10" stroke-width="4" stroke-dasharray=""/><path fill="rgb(255,255,255)" stroke="none" paint-order="stroke fill markers" d=" M 691.6227371036299 417.9372220482755 L 680.3700332256451 426.0120532392695 L 680.1117225181977 420.8085511497456 L 691.7064898548729 413.2330898610164 Z" fill-opacity="1"/><path fill="none" stroke="rgb(0,0,0)" paint-order="fill stroke markers" d=" M 691.6227371036299 417.9372220482755 L 680.3700332256451 426.0120532392695" stroke-opacity="1" stroke-linecap="round" stroke-miterlimit="10" stroke-width="4" stroke-dasharray=""/><path fill="none" stroke="rgb(0,0,0)" paint-order="fill stroke markers" d=" M 691.7064898548729 413.2330898610164 L 680.1117225181977 420.8085511497456" stroke-opacity="1" stroke-linecap="round" stroke-miterlimit="10" stroke-width="4" stroke-dasharray=""/><path fill="rgb(255,255,255)" stroke="rgb(0,0,0)" paint-order="fill stroke markers" d=" M 823.511414823628 269.91103407838455 L 818.5257378088099 270.4363039766358 L 813.6311062737659 271.38431795008364 L 808.8399021508812 272.8308021000412 C 821.3732315191653 246.78881297326348 802.3260188786325 256.99478801758994 792.7397455126047 284.25965379178524 C 795.9562738088493 275.11134256515174 786.1392017335894 297.85632276717774 783.1428182617346 307.0790847542121 C 792.3388604740082 278.7739931852677 791.9561923685045 283.8406068945145 782.3691301303879 312.015660376961 C 786.4183544402074 300.1155486787188 786.6438944858569 315.51025018799277 781.5 326.97974126040936 C 788.5589445176978 311.2402074598961 791.658051558202 328.03948862489784 781.5 341.98135401308537 C 793.3676980258197 325.6930090095558 801.1420971732373 357.47176948485026 781.5 361.9818091768211 C 793.4745399623407 359.23232422890874 790.5726097352649 390.2650512290973 781.5 381.9803045594599 C 802.523546528671 401.1781717850678 791.6287416048775 438.5786373296729 781.5 411.9711908502213 C 786.8716630430615 426.08214781797335 786.084305786433 436.38525393759676 781.5641335999567 421.9789388709828 L 785.1258807539406 438.2795615819664 L 782.3016966386481 431.94455012399203 L 783.0435153197905 436.88101290361374 L 784.0962189396087 441.7860698736913 L 785.4970795723202 446.56634073276655 L 787.3220499508025 451.2378704462608 L 789.6040594327533 455.6709019293521 L 794.1198175376647 465.47820884538703 L 795.7311760736957 463.5482024382836 C 802.3886144664926 484.0145459029153 816.6643844757233 491.3191845820943 808.3263196379412 471.4780813988764 C 815.0906258445175 487.57429796934633 847.769480852752 488.55713770783484 837.917064916157 474.1427724234345 C 850.095431077772 491.9600691707911 875.5951392222772 479.69840984577996 860.4777174788942 464.29606503784817 C 864.4676674551386 468.3612149254217 868.0557478914174 464.5769311780599 863.9206313680334 460.6595397297351 C 879.3937694341323 475.3179752045549 882.8224122656636 470.69369344216665 866.8303626476591 456.60319731189156 C 877.1381782868291 465.6853499967978 885.2439270884622 445.4890020147058 873.7548217773438 437.95660400390625 C 894.2353521680334 451.38389030666656 898.4125420795024 416.7224101744172 875.5 408.0760492060508 C 880.6580882607591 410.0225243223634 880.8575673245571 394.3645188720346 875.5 393.0640911550727 C 882.8040487432444 394.83698300250103 882.9295623034174 384.20845831700376 875.5 383.0709709430048 C 884.807051663257 384.4959073421842 884.8608345782611 379.0808441664321 875.5 378.0677151506243 C 881.1066704361264 378.674528619383 881.101878007403 352.4214022861741 875.5 353.07097041606903 C 885.9679194969339 351.85715839043615 885.2856549812624 319.28603957902857 875.4517883690532 323.07361739092084 C 890.3592520621755 317.33191059925474 886.8859716764965 295.2959472938993 873.0393424648682 303.2627866997682 C 875.8373189934268 301.6529342711571 872.5712540394624 291.9563668625439 869.904355329898 293.7751435858372 C 894.494769813148 277.0049253102524 884.1461790053314 261.83851460257057 861.6566540745553 281.33594966097735 C 878.8582685673164 266.42290180849056 848.0715624276936 251.65077608953996 834.586063178404 269.9929637291193 L 823.511414823628 269.91103407838455 M 833.3440715074539 308.22925996780396 L 836.4136597809847 312.05495308246464 L 837.496785691008 316.9156633242965 L 847.1630394170954 316.3552720976136 L 837.9907833321486 326.8912351215258 C 861.431633817209 314.50127695529875 856.8247153106213 343.77379704592505 831.0397216453275 349.94782624123764 C 851.3935452901324 345.07425120567683 839.8965402814907 361.757416885706 819 362.925524267368 C 825.4489247214807 362.56503222086326 825.390515353607 356.98882165583785 819 357.92685049027205 C 822.7905216830245 357.37046052178255 822.6397170042148 346.7333988736657 819 347.9292603019858 C 840.6324339603028 340.8217315177837 837.7255713700719 314.97124898515574 819.0027125116903 327.9301733477041 C 832.2510156622229 318.76043277771595 831.5588917462479 307.3735917090934 819.3898303002643 317.9336874479195 C 831.8230996066842 307.14431681278836 839.5588543754569 296.09910439473873 827.4748398512602 307.2782500386238 L 833.3440715074539 308.22925996780396 M 823.6559284925461 436.27074003219604 L 820.5863402190153 432.44504691753536 L 819.503214308992 427.5843366757035 L 829.1146179457514 432.8608681515002 L 819.0092166678514 417.6087648784742 L 819 412.59932124987245 L 819 407.61122703552246 L 820.7619065300096 403.1021274177474 C 835.989139071494 413.05532942436315 839.2779775603834 407.6351902167601 823.3589837998152 398.830618750304 C 833.3777434978336 404.37185377389915 849.3340395903446 378.18763824862884 838 376.5688800709322 C 845.5919160309559 377.6531780444425 845.0879338629916 399.4988934969636 838 396.5707396980142 C 863.3514475969656 407.04388166361804 860.6436695940243 432.04638878396287 837.9972874883097 416.5698266522959 C 861.3727793182195 432.5446631615051 860.5460712962155 438.58095553371925 837.9152105301619 421.56763249635696 C 847.680446641552 428.9088961900652 847.0441910297532 434.32860799070767 837.6101696997357 426.5663125520805 L 823.6559284925461 436.27074003219604 Z" fill-opacity="1" stroke-opacity="1" stroke-linecap="round" stroke-miterlimit="10" stroke-width="4" stroke-dasharray=""/><path fill="rgb(255,255,255)" stroke="none" paint-order="stroke fill markers" d=" M 793.3082871103926 288.0625138257732 L 797.0626492805367 278.07880005135456 L 793.624136132112 281.7443080873454 L 790.086200411409 291.8067524658401 Z" fill-opacity="1"/><path fill="none" stroke="rgb(0,0,0)" paint-order="fill stroke markers" d=" M 793.3082871103926 288.0625138257732 L 797.0626492805367 278.07880005135456" stroke-opacity="1" stroke-linecap="round" stroke-miterlimit="10" stroke-width="4" stroke-dasharray=""/><path fill="none" stroke="rgb(0,0,0)" paint-order="fill stroke markers" d=" M 790.086200411409 291.8067524658401 L 793.624136132112 281.7443080873454" stroke-opacity="1" stroke-linecap="round" stroke-miterlimit="10" stroke-width="4" stroke-dasharray=""/><path fill="rgb(255,255,255)" stroke="none" paint-order="stroke fill markers" d=" M 780.1623075260577 424.2359176755658 L 785.9330401730045 445.02898270130396 L 786.5668208492056 449.9949501415727 L 780.9677762940979 429.154997921929 Z" fill-opacity="1"/><path fill="none" stroke="rgb(0,0,0)" paint-order="fill stroke markers" d=" M 780.1623075260577 424.2359176755658 L 785.9330401730045 445.02898270130396" stroke-opacity="1" stroke-linecap="round" stroke-miterlimit="10" stroke-width="4" stroke-dasharray=""/><path fill="none" stroke="rgb(0,0,0)" paint-order="fill stroke markers" d=" M 780.9677762940979 429.154997921929 L 786.5668208492056 449.9949501415727" stroke-opacity="1" stroke-linecap="round" stroke-miterlimit="10" stroke-width="4" stroke-dasharray=""/><path fill="rgb(255,255,255)" stroke="none" paint-order="stroke fill markers" d=" M 867.8115215425476 395.8496751957064 L 881.2212849601727 399.7054811459479 L 881.2851190484167 394.4682973368601 L 867.7257388878237 391.1770659406935 Z" fill-opacity="1"/><path fill="none" stroke="rgb(0,0,0)" paint-order="fill stroke markers" d=" M 867.8115215425476 395.8496751957064 L 881.2212849601727 399.7054811459479" stroke-opacity="1" stroke-linecap="round" stroke-miterlimit="10" stroke-width="4" stroke-dasharray=""/><path fill="none" stroke="rgb(0,0,0)" paint-order="fill stroke markers" d=" M 867.7257388878237 391.1770659406935 L 881.2851190484167 394.4682973368601" stroke-opacity="1" stroke-linecap="round" stroke-miterlimit="10" stroke-width="4" stroke-dasharray=""/><path fill="rgb(255,255,255)" stroke="none" paint-order="stroke fill markers" d=" M 831.0078070979876 325.99924516910625 L 846.5462445053973 316.72347191062494 L 846.9170727864157 322.1731318688947 L 830.9179981726849 330.6296452231694 Z" fill-opacity="1"/><path fill="none" stroke="rgb(0,0,0)" paint-order="fill stroke markers" d=" M 831.0078070979876 325.99924516910625 L 846.5462445053973 316.72347191062494" stroke-opacity="1" stroke-linecap="round" stroke-miterlimit="10" stroke-width="4" stroke-dasharray=""/><path fill="none" stroke="rgb(0,0,0)" paint-order="fill stroke markers" d=" M 830.9179981726849 330.6296452231694 L 846.9170727864157 322.1731318688947" stroke-opacity="1" stroke-linecap="round" stroke-miterlimit="10" stroke-width="4" stroke-dasharray=""/><path fill="rgb(255,255,255)" stroke="none" paint-order="stroke fill markers" d=" M 825.9615694091555 347.91127709557037 L 843.6819763112229 342.73807807459985 L 841.2122623596044 347.5120853535062 L 823.2596404298876 351.81071010266294 Z" fill-opacity="1"/><path fill="none" stroke="rgb(0,0,0)" paint-order="fill stroke markers" d=" M 825.9615694091555 347.91127709557037 L 843.6819763112229 342.73807807459985" stroke-opacity="1" stroke-linecap="round" stroke-miterlimit="10" stroke-width="4" stroke-dasharray=""/><path fill="none" stroke="rgb(0,0,0)" paint-order="fill stroke markers" d=" M 823.2596404298876 351.81071010266294 L 841.2122623596044 347.5120853535062" stroke-opacity="1" stroke-linecap="round" stroke-miterlimit="10" stroke-width="4" stroke-dasharray=""/><g><text fill="none" stroke="rgb(0,0,0)" font-family="sans-serif" font-size="12px" font-style="normal" font-weight="normal" text-decoration="normal" x="744" y="472.25" text-anchor="start" dominant-baseline="alphabetic" transform="matrix(1 0 0 1 0 0)" stroke-opacity="1" stroke-linecap="round" stroke-miterlimit="10" stroke-width="8" stroke-dasharray=""> </text><text fill="rgb(255,255,255)" stroke="none" font-family="sans-serif" font-size="12px" font-style="normal" font-weight="normal" text-decoration="normal" x="744" y="472.25" text-anchor="start" dominant-baseline="alphabetic" transform="matrix(1 0 0 1 0 0)" fill-opacity="1"> </text></g><g><path fill="rgb(255,255,255)" stroke="rgb(0,0,0)" paint-order="fill stroke markers" d=" M 838.5589869911299 511.04008033798743 C 840.515207061764 515.3118539333778 839.0887022339613 520.1542819938221 835.3727992810497 521.855946132778 C 831.656896328138 523.5576102717337 827.0587321029416 521.474124898028 825.1025120323076 517.2023513026376 C 823.1462919616735 512.9305777072472 824.5727967894762 508.0881496468029 828.2886997423878 506.3864855078471 C 832.0046026952995 504.68482136889133 836.6027669204959 506.768306742597 838.5589869911299 511.04008033798743" fill-opacity="1" stroke-opacity="1" stroke-linecap="round" stroke-miterlimit="10" stroke-width="4" stroke-dasharray=""/></g><g><path fill="rgb(255,255,255)" stroke="rgb(0,0,0)" paint-order="fill stroke markers" d=" M 158.30886757437386 799.6257442772517 C 155.238881652816 801.8011801017591 151.81572098576586 802.246025324112 150.66302422746764 800.6193338906369 C 149.51032746916943 798.9926424571619 151.06459743180264 795.9104093206932 154.1345833533605 793.7349734961858 C 157.20456927491838 791.5595376716784 160.6277299419685 791.1146924493255 161.78042670026673 792.7413838828006 C 162.93312345856495 794.3680753162756 161.37885349593174 797.4503084527443 158.30886757437386 799.6257442772517" fill-opacity="1" stroke-opacity="1" stroke-linecap="round" stroke-miterlimit="10" stroke-width="4" stroke-dasharray=""/></g><g><path fill="rgb(255,255,255)" stroke="rgb(0,0,0)" paint-order="fill stroke markers" d=" M 489.92205317454835 231.73918360790128 C 486.1503145009158 229.80604556638912 484.22180301634285 226.03597028657805 485.61460221389547 223.31848478621288 C 487.0074014114481 220.6009992858477 491.1940865697878 219.96516004003968 494.9658252434204 221.89829808155184 C 498.73756391705297 223.831436123064 500.6660754016259 227.60151140287508 499.2732762040733 230.31899690324025 C 497.88047700652066 233.03648240360542 493.6937918481809 233.67232164941345 489.92205317454835 231.73918360790128" fill-opacity="1" stroke-opacity="1" stroke-linecap="round" stroke-miterlimit="10" stroke-width="4" stroke-dasharray=""/></g><g><path fill="rgb(255,255,255)" stroke="rgb(0,0,0)" paint-order="fill stroke markers" d=" M 921.7204915305616 23.996760062464457 C 924.5493303793874 18.11868373842148 929.3397358144351 14.555334713271414 932.4201615393627 16.03779725394213 C 935.5005872642903 17.520259794612848 935.704538724514 23.48715549581679 932.8756998756884 29.365231819859762 C 930.0468610268626 35.24330814390274 925.2564555918149 38.806657169052805 922.1760298668873 37.32419462838209 C 919.0956041419597 35.84173208771137 918.891652681736 29.87483638650743 921.7204915305616 23.996760062464457" fill-opacity="1" stroke-opacity="1" stroke-linecap="round" stroke-miterlimit="10" stroke-width="4" stroke-dasharray=""/></g><g><path fill="rgb(255,255,255)" stroke="rgb(0,0,0)" paint-order="fill stroke markers" d=" M 889.2296017468079 356.23408163260234 C 892.4997909095418 356.0738601669485 895.2302463779749 357.5654482140655 895.3282447285096 359.5656367816634 C 895.4262430790444 361.5658253492613 892.8546743299885 363.3171837181501 889.5844851672546 363.4774051838039 C 886.3142960045207 363.63762664945773 883.5838405360876 362.14603860234075 883.4858421855529 360.14585003474286 C 883.3878438350181 358.145661467145 885.959412584074 356.39430309825616 889.2296017468079 356.23408163260234" fill-opacity="1" stroke-opacity="1" stroke-linecap="round" stroke-miterlimit="10" stroke-width="4" stroke-dasharray=""/></g><g><path fill="rgb(255,255,255)" stroke="rgb(0,0,0)" paint-order="fill stroke markers" d=" M 1164.0668130556578 965.13321436498 C 1166.013688359227 968.0811195758821 1166.2254966345192 971.3733063355364 1164.5399000796035 972.4865193019541 C 1162.8543035246878 973.5997322683718 1159.9096032635364 972.1124203381097 1157.9627279599672 969.1645151272076 C 1156.015852656398 966.2166099163054 1155.8040443811058 962.9244231566511 1157.4896409360215 961.8112101902334 C 1159.1752374909372 960.6979972238157 1162.1199377520886 962.1853091540778 1164.0668130556578 965.13321436498" fill-opacity="1" stroke-opacity="1" stroke-linecap="round" stroke-miterlimit="10" stroke-width="4" stroke-dasharray=""/></g><g><path fill="rgb(255,255,255)" stroke="rgb(0,0,0)" paint-order="fill stroke markers" d=" M 608.50869753293 748.7968468545619 C 607.1438938488574 752.063890588698 604.3520249954473 754.0082468426272 602.2728839166573 753.1396880980992 C 600.1937428378673 752.2711293535713 599.6146579626849 748.9185611373867 600.9794616467575 745.6515174032506 C 602.3442653308301 742.3844736691145 605.1361341842402 740.4401174151853 607.2152752630302 741.3086761597133 C 609.2944163418202 742.1772349042412 609.8735012170026 745.5298031204258 608.50869753293 748.7968468545619" fill-opacity="1" stroke-opacity="1" stroke-linecap="round" stroke-miterlimit="10" stroke-width="4" stroke-dasharray=""/></g><g><path fill="rgb(255,255,255)" stroke="rgb(0,0,0)" paint-order="fill stroke markers" d=" M 469.3547951774186 281.34999436659234 C 461.7192747402056 278.95675871090606 456.51359530705565 273.87682220626704 457.7275847332255 270.00363861398006 C 458.9415741593954 266.1304550216931 466.1155193463059 264.9307201730338 473.7510397835189 267.32395582872016 C 481.3865602207319 269.71719148440644 486.59223965388185 274.79712798904546 485.378250227712 278.67031158133244 C 484.1642608015421 282.5434951736194 476.9903156146316 283.7432300222787 469.3547951774186 281.34999436659234" fill-opacity="1" stroke-opacity="1" stroke-linecap="round" stroke-miterlimit="10" stroke-width="4" stroke-dasharray=""/></g><g><path fill="rgb(255,255,255)" stroke="rgb(0,0,0)" paint-order="fill stroke markers" d=" M 806.7680516734048 -52.23240566423443 C 806.9950070190118 -54.27944887680755 808.7717694174574 -55.7623141615182 810.7365615636799 -55.54447797816215 C 812.7013537099022 -55.3266417948061 814.1101487893897 -53.49059427441292 813.8831934437827 -51.44355106183979 C 813.6562380981757 -49.39650784926667 811.87947569973 -47.91364256455602 809.9146835535076 -48.13147874791207 C 807.9498914072853 -48.34931493126812 806.5410963277978 -50.1853624516613 806.7680516734048 -52.23240566423443" fill-opacity="1" stroke-opacity="1" stroke-linecap="round" stroke-miterlimit="10" stroke-width="4" stroke-dasharray=""/></g><g><path fill="rgb(255,255,255)" stroke="rgb(0,0,0)" paint-order="fill stroke markers" d=" M 1250.1198166083639 153.09111769812438 C 1255.8097814512942 150.6853073427089 1261.6058850400923 151.53404263591972 1263.0657763142458 154.98682103374153 C 1264.5256675883993 158.43959943156332 1261.0965154220664 163.18892399724143 1255.4065505791361 165.59473435265687 C 1249.7165857362058 168.00054470807234 1243.9204821474077 167.15180941486153 1242.4605908732542 163.69903101703972 C 1241.0006995991007 160.24625261921793 1244.4298517654336 155.49692805353982 1250.1198166083639 153.09111769812438" fill-opacity="1" stroke-opacity="1" stroke-linecap="round" stroke-miterlimit="10" stroke-width="4" stroke-dasharray=""/></g><g><path fill="rgb(255,255,255)" stroke="rgb(0,0,0)" paint-order="fill stroke markers" d=" M 814.1406222505669 436.5143911330096 C 817.0633351758764 441.258498589011 817.2586866575036 446.4436835071421 814.576951997074 448.0958257967044 C 811.8952173366446 449.7479680862667 807.3519148934926 447.2414350729918 804.4292019681831 442.4973276169904 C 801.5064890428736 437.753220160989 801.3111375612464 432.5680352428579 803.992872221676 430.9158929532956 C 806.6746068821054 429.2637506637333 811.2179093252574 431.7702836770082 814.1406222505669 436.5143911330096" fill-opacity="1" stroke-opacity="1" stroke-linecap="round" stroke-miterlimit="10" stroke-width="4" stroke-dasharray=""/></g><g><path fill="rgb(255,255,255)" stroke="rgb(0,0,0)" paint-order="fill stroke markers" d=" M 637.3236315289253 490.7676763908738 C 635.0502995606537 492.9143072254219 632.0561022155761 493.43524435326646 630.6359045780562 491.93122203201926 C 629.2157069405363 490.4271997107721 629.9073089637407 487.46776059601797 632.1806409320122 485.32112976146993 C 634.4539729002838 483.17449892692184 637.4481702453614 482.6535617990773 638.8683678828813 484.1575841203245 C 640.2885655204012 485.6616064415717 639.5969634971968 488.6210455563258 637.3236315289253 490.7676763908738" fill-opacity="1" stroke-opacity="1" stroke-linecap="round" stroke-miterlimit="10" stroke-width="4" stroke-dasharray=""/></g><g><path fill="rgb(255,255,255)" stroke="rgb(0,0,0)" paint-order="fill stroke markers" d=" M 746.5934619150536 356.5226566185259 C 743.1850557790938 353.41538295015766 741.8466493363097 349.3337211782384 743.604047455336 347.40600988805176 C 745.3614455743622 345.4782985978651 749.5491573396116 346.43452283810586 752.9575634755714 349.5417965064741 C 756.3659696115312 352.64907017484234 757.7043760543153 356.7307319467616 755.946977935289 358.65844323694824 C 754.1895798162628 360.5861545271349 750.0018680510134 359.62993028689414 746.5934619150536 356.5226566185259" fill-opacity="1" stroke-opacity="1" stroke-linecap="round" stroke-miterlimit="10" stroke-width="4" stroke-dasharray=""/></g></g></svg>