<svg version="1.1" xmlns="http://www.w3.org/2000/svg" xmlns:xlink="http://www.w3.org/1999/xlink" width="1528" height="732" viewBox="0 0 1528 732"><defs/><g><rect fill="transparent" stroke="none" x="0" y="0" width="1528" height="732" transform="matrix(1 0 0 1 0 0)" fill-opacity="1"/><path fill="none" stroke="rgb(0,0,0)" paint-order="fill stroke markers" d=" M 702.4288611827795 341.52404833922236 L 381.1546951134549 213.8101370875086" stroke-opacity="1" stroke-linecap="round" stroke-miterlimit="10" stroke-width="4" stroke-dasharray=""/><path fill="none" stroke="rgb(0,0,0)" paint-order="fill stroke markers" d=" M 742.2200341257004 281.2743211055021 L 689.871086140719 77.6330397996403" stroke-opacity="1" stroke-linecap="round" stroke-miterlimit="10" stroke-width="4" stroke-dasharray=""/><path fill="none" stroke="rgb(0,0,0)" paint-order="fill stroke markers" d=" M 932.5440646503503 259.6464119804043 L 1232.9569493736803 70.0818121001027" stroke-opacity="1" stroke-linecap="round" stroke-miterlimit="10" stroke-width="4" stroke-dasharray=""/><path fill="none" stroke="rgb(0,0,0)" paint-order="fill stroke markers" d=" M 823.3145817759331 416.9231529435863 L 1034.9447169005211 598.6132772899393" stroke-opacity="1" stroke-linecap="round" stroke-miterlimit="10" stroke-width="4" stroke-dasharray=""/><path fill="none" stroke="rgb(0,0,0)" paint-order="fill stroke markers" d=" M 765.2965591264413 483.5719750208706 L 766.4990745951814 592.616071637563" stroke-opacity="1" stroke-linecap="round" stroke-miterlimit="10" stroke-width="4" stroke-dasharray=""/><path fill="none" stroke="rgb(0,0,0)" paint-order="fill stroke markers" d=" M 678.9812181885186 393.32005923063235 L 436.5281846015014 471.2302703288263" stroke-opacity="1" stroke-linecap="round" stroke-miterlimit="10" stroke-width="4" stroke-dasharray=""/><path fill="none" stroke="rgb(0,0,0)" paint-order="fill stroke markers" d=" M 676.9669711047736 199.09962072237047 L 608.1760201945391 67.18147489283149" stroke-opacity="1" stroke-linecap="round" stroke-miterlimit="10" stroke-width="4" stroke-dasharray=""/><path fill="none" stroke="rgb(0,0,0)" paint-order="fill stroke markers" d=" M 899.8033847609146 250.43590786243595 L 1238.7742300092991 -38.01682887308141" stroke-opacity="1" stroke-linecap="round" stroke-miterlimit="10" stroke-width="4" stroke-dasharray=""/><path fill="none" stroke="rgb(0,0,0)" paint-order="fill stroke markers" d=" M 859.2698844269886 424.48856198112514 L 1122.1852250455909 585.8988574595934" stroke-opacity="1" stroke-linecap="round" stroke-miterlimit="10" stroke-width="4" stroke-dasharray=""/><path fill="none" stroke="rgb(0,0,0)" paint-order="fill stroke markers" d=" M 738.0074403377246 481.65798667821736 L 671.4106970554714 777.9906813966419" stroke-opacity="1" stroke-linecap="round" stroke-miterlimit="10" stroke-width="4" stroke-dasharray=""/><path fill="none" stroke="rgb(0,0,0)" paint-order="fill stroke markers" d=" M 702.1605288245524 373.9753800733479 L 404.2203883210097 412.4004476629598" stroke-opacity="1" stroke-linecap="round" stroke-miterlimit="10" stroke-width="4" stroke-dasharray=""/><path fill="none" stroke="rgb(0,0,0)" paint-order="fill stroke markers" d=" M 708.584600372853 313.70310495494937 L 522.6451929788809 138.22744767108804" stroke-opacity="1" stroke-linecap="round" stroke-miterlimit="10" stroke-width="4" stroke-dasharray=""/><path fill="none" stroke="rgb(0,0,0)" paint-order="fill stroke markers" d=" M 788.273865481605 209.6731547114134 L 826.668402435989 -37.5926482132744" stroke-opacity="1" stroke-linecap="round" stroke-miterlimit="10" stroke-width="4" stroke-dasharray=""/><path fill="none" stroke="rgb(0,0,0)" paint-order="fill stroke markers" d=" M 956.544604874768 342.44354576711385 L 1174.2365919333113 315.8104893210715" stroke-opacity="1" stroke-linecap="round" stroke-miterlimit="10" stroke-width="4" stroke-dasharray=""/><path fill="rgb(255,255,255)" stroke="rgb(0,0,0)" paint-order="fill stroke markers" d=" M 560.6291070650514 393.10654718117075 L 564.4905882417916 389.91065048042583 L 568.2700396687396 386.6462393258007 L 571.9493838288145 383.2650601273526 L 575.5001999577216 379.7302667304466 L 578.8583591772185 376.0473301327147 L 582.0150433695999 372.1699005856026 L 584.9264304433018 368.095386011526 L 587.545210242537 363.84498499131223 L 589.8536798786372 359.41426774300635 L 591.8308648579114 354.82166163422517 L 593.4649433766026 350.0934792140033 C 586.6472890493928 349.4575679684523 589.9821263931725 328.9810399491619 596.6795073713342 330.40577910805996 C 568.9595552226172 324.50889173703627 569.2560499386723 312.9621181838138 596.600324775558 320.40924255759455 C 593.7333335883069 319.62842682642764 592.8307429660925 309.52838164970035 595.6525543445605 310.45934470920474 C 578.193183330997 304.699204403642 576.4031439146278 294.09992104821663 593.5704507171176 300.6796193451155 C 570.326898130727 291.7710837707194 567.0907656281538 281.555008476371 589.9680374744348 291.365980690578 C 572.2461611420742 283.76591205264435 559.5355676097686 268.21433623791415 576.9312866953915 276.5338855967966 C 566.0427671933289 271.3264219100881 552.1630142891464 265.83575955529705 563.0744305382832 270.99507447428186 C 555.8122990864763 267.5612742885452 545.8464730867547 266.4720906844233 553.1548309326172 269.8063735961914 C 547.7954177441427 267.36125525520157 542.7704609150611 267.38075568239435 548.150906029623 269.77923932741396 C 527.6927239002882 260.65943340071846 522.6272667353963 261.1827687306265 543.172537393395 270.10464800391856 C 533.2735222112304 265.80595465254265 510.1530606820643 275.6141419102013 520.3198950121296 279.2341896738217 C 508.5040653344356 275.0269933714717 499.1425643410077 287.43981040525375 511.16725244111876 291.0064906255466 C 483.4177617210292 282.77562768336105 476.65107663372066 303.81125599345387 504.94058929244056 309.9337402547244 L 493.2402391675554 312.71716892433534 L 503.5315318793073 319.833747075525 C 474.935703325761 314.7653322185826 486.9711232286251 333.3508449252788 515.813036906533 336.75 C 501.34487969181697 335.04485967652914 525.9362184597545 328.9608444394402 540.3313214406662 331.2005066642887 C 529.043884710904 329.44435072066415 530.8335270224649 313.8092029645562 541.9809216875583 316.3043790720403 C 516.0790741978561 310.50664131019533 530.338506131055 303.13095005403443 555.9697341918945 310.0272979736328 C 535.5525063176348 304.5338309169472 538.282251943069 314.79076917728304 558.9016104380134 319.4687419892289 C 547.062015732096 316.78265928921087 541.486349482249 347.3878018833605 553.5845718183555 348.39976007313817 C 550.3580128905229 348.1298739162211 547.3781663871466 352.2103288071164 550.6094525032677 352.4160253997834 C 534.0765744077908 351.36357861265066 519.131360396967 365.6469106092098 535.6976856300607 365.6707984933164 C 507.72062132660284 365.6304568448022 485.597579794193 387.92532012432014 513.4883148990339 385.72881157664233 C 486.90688783737255 387.8222068038008 481.5970803956759 397.0325106361818 508.10126979289635 394.1200352958949 C 499.73063978628954 395.03986170943034 494.64430317673157 409.51089509632527 502.9575549063884 408.16799784861723 C 479.2528990420953 411.99717542596204 477.221092529436 428.0642999525127 500.68972209909407 422.9852511551908 C 494.8866535792666 424.2411433281412 494.58010649345016 449.73324842660026 500.25 447.9710971787572 C 480.5279400547098 454.10053373739476 480.63639329578336 459.44629039700357 500.25 452.97820930101443 C 477.05972704179516 460.6257862303278 477.47462078136255 476.79138815278156 500.25 467.9847830059007 C 482.88007120281026 474.7012509460309 488.75930607584576 479.34115948315247 505.9796668500785 472.25 C 485.5627423393858 480.65747007330094 515.9632480014084 481.57583242640595 535.9773732399335 472.25 C 528.6066972660632 475.6844588225789 548.7410477095973 475.9488342918582 555.9826633164321 472.25 C 540.860797284497 479.9738671137165 571.4037744173071 480.9525563190159 585.9843940540886 472.25 C 571.0471371246067 481.16541806306395 581.2705081088462 481.5471140997275 595.9732287153602 472.25 L 582.6890404050529 476.5982417584441 L 596.75 463.0284393290058 L 596.75 458.0193873113021 L 596.75 453.01939493803366 L 596.75 448.02386999037117 L 596.75 443.0259576616809 L 596.75 438.01227862387896 L 595.0161945279688 434.75 L 590.0250497322704 434.75 L 585.0229572933167 434.75 L 580.0204839065264 434.75 C 565.3238890632994 440.24186625188486 550.197463868726 439.87374647276187 565.0264124827518 434.75 C 549.9464101052325 439.96049138426264 524.7743018760353 439.43182467435037 540.0267184022814 434.75 C 526.8388888486909 438.79808678669906 525.0944785766014 425.384059575285 538.4822304882109 422.0563045181334 C 529.6550932810202 424.2504406714877 545.8424811050533 399.20551717271087 554.8346595619805 397.8368275319226 L 560.6291070650514 393.10654718117075 L 560.6291070650514 393.10654718117075 Z" fill-opacity="1" stroke-opacity="1" stroke-linecap="round" stroke-miterlimit="10" stroke-width="4" stroke-dasharray=""/><path fill="rgb(255,255,255)" stroke="none" paint-order="stroke fill markers" d=" M 543.6398539272344 362.66961880132106 L 537.1972022930535 362.572248717599 L 533.2543007837331 365.66727524400096 L 539.6976814716028 365.6765663045688 Z" fill-opacity="1"/><path fill="none" stroke="rgb(0,0,0)" paint-order="fill stroke markers" d=" M 543.6398539272344 362.66961880132106 L 537.1972022930535 362.572248717599" stroke-opacity="1" stroke-linecap="round" stroke-miterlimit="10" stroke-width="4" stroke-dasharray=""/><path fill="none" stroke="rgb(0,0,0)" paint-order="fill stroke markers" d=" M 539.6976814716028 365.6765663045688 L 533.2543007837331 365.66727524400096" stroke-opacity="1" stroke-linecap="round" stroke-miterlimit="10" stroke-width="4" stroke-dasharray=""/><path fill="rgb(255,255,255)" stroke="none" paint-order="stroke fill markers" d=" M 600.1648265268594 465.9381513660247 L 587.5787784417196 473.61554048808034 L 587.4576859347399 468.41928376253145 L 600.2099142943297 461.0212041469972 Z" fill-opacity="1"/><path fill="none" stroke="rgb(0,0,0)" paint-order="fill stroke markers" d=" M 600.1648265268594 465.9381513660247 L 587.5787784417196 473.61554048808034" stroke-opacity="1" stroke-linecap="round" stroke-miterlimit="10" stroke-width="4" stroke-dasharray=""/><path fill="none" stroke="rgb(0,0,0)" paint-order="fill stroke markers" d=" M 600.2099142943297 461.0212041469972 L 587.4576859347399 468.41928376253145" stroke-opacity="1" stroke-linecap="round" stroke-miterlimit="10" stroke-width="4" stroke-dasharray=""/><path fill="rgb(255,255,255)" stroke="rgb(0,0,0)" paint-order="fill stroke markers" d=" M 643.761414823628 269.91103407838455 L 638.7757378088099 270.4363039766358 L 633.8811062737659 271.38431795008364 L 629.0899021508812 272.8308021000412 L 624.507900756551 274.83067280915566 L 620.2412398438901 277.4118612278253 L 616.3741577567707 280.574465181242 C 611.703068594506 277.87148117919224 608.2436549027151 281.6906422309159 612.9897455126047 284.25965379178524 C 593.0553990380432 273.46939065504466 581.1226440604235 304.824760949783 602.6191301303879 312.015660376961 C 585.8318426803328 306.4000590495821 584.4253304845233 328.3356925161039 601.75 331.96939921565354 C 590.3793670718547 329.584502637268 590.1750991673695 350.97737921434646 601.75 351.97772694937885 C 594.8742904860751 351.38350151812455 594.8507760379858 361.8109469369985 601.75 361.9818091768211 C 586.6534800052169 361.60793738572727 586.6832782663529 377.9937079358982 601.75 376.9745944633614 C 597.2134516242465 377.281446720294 597.341502955574 408.08959649373656 601.75 406.97623074860894 C 576.4267699671365 413.37161143968274 577.6275038303146 436.1742902447823 602.0705595519394 426.97081804834306 C 578.0198555001849 436.02655921941454 587.6402231822068 468.59329693091524 609.8540594327533 455.6709019293521 L 612.6550110334938 459.81463271853863 L 615.9811760736957 463.5482024382836 L 619.7870171871036 466.76261571608484 L 624.0217040353709 469.4142602747852 L 628.5763196379412 471.4780813988764 C 622.7599395046809 476.00831285841605 647.9360781022525 479.78381550719746 653.2006552817734 474.62266233639775 C 645.7546456961492 481.9223930977096 660.882656918985 479.5744601988537 667.8919152822345 471.85439380444586 C 665.0221867593875 475.0151411449154 686.6787894344731 455.4581905982822 689.4704716753513 452.2283027037738 C 674.7245228137682 469.2888982915018 678.6131679593229 448.7235597077574 694.8090752942335 433.03281354208957 C 679.4016589278468 447.959662299283 677.4890958328837 419.3338763457221 695.75 408.0760492060508 C 679.2119824046976 418.27171868752305 678.1652587093715 406.32082109415035 695.75 398.06039883499034 C 670.6424529502024 409.854654837698 668.1577561857077 375.92325783950344 695.75 373.0664283367405 C 674.1731962514085 375.3004347459029 674.7696868658894 342.5596745314321 695.75 348.07109045078323 C 675.8378755674729 342.8402819836253 676.6962023577441 330.2704252460064 695.75 338.0683000875579 L 695.75 333.0766944605857 L 695.75 328.0714829508215 L 695.7017883690532 323.07361739092084 L 695.467251498485 318.0659266731236 L 695.0130359946343 313.09898271542625 L 694.2986063815188 308.1393648039084 L 693.2893424648682 303.2627866997682 L 691.9209450184462 298.43810359004783 L 690.154355329898 293.7751435858372 L 687.9217729954689 289.30460118103656 L 685.1748271437827 285.11761665181257 L 681.9066540745553 281.33594966097735 L 678.147855451698 278.05950024862614 L 673.9594965874858 275.34730353040504 L 669.4326551594713 273.21897161132074 L 664.6866477967706 271.6578721960541 C 648.6599860110241 256.4334402247371 643.4828022027649 255.67681246572766 659.7878639330265 270.60270201430467 L 643.761414823628 269.91103407838455 M 653.5940715074539 308.22925996780396 L 656.6636597809847 312.05495308246464 L 657.746785691008 316.9156633242965 L 658.1269562300295 321.89866103976965 L 658.2407833321486 326.8912351215258 L 658.25 331.90067875012755 L 658.25 336.88877296447754 C 638.5180996183377 331.45690694222804 633.7653064569188 341.9533526592087 653.8910162001848 345.669381249696 C 641.2796397033301 343.3408057000366 630.6822352657841 362.4112505719553 643.5021412705537 362.75634659448406 C 632.6713966445772 362.46479633740273 628.4743451356474 351.79691058772556 639.25 352.92619927972555 C 629.4194753103743 351.8959602354939 629.7987842591122 325.04506524631455 639.2527125116903 327.9301733477041 L 653.5940715074539 308.22925996780396 M 643.9059284925461 436.27074003219604 L 640.8363402190153 432.44504691753536 L 639.753214308992 427.5843366757035 L 639.3730437699705 422.60133896023035 L 639.2592166678514 417.6087648784742 C 611.8075048246808 428.96630893247794 611.0680079899652 417.0115257757456 639.25 407.61122703552246 C 631.5445210729126 410.18144293173464 635.77231399769 400.9676778653943 643.6089837998152 398.830618750304 C 621.9384791482062 404.7401633226387 634.2622608577532 379.8534986510516 656.5971121639013 377.46856551989913 C 628.2465647458698 380.49585945155656 630.2629872910355 392.0178870680465 658.25 386.57314950972795 C 636.3853326873061 390.82681447052715 637.7948884187929 420.40181984878643 658.25 411.584464661777 C 645.6995242308499 416.9944572782055 645.3279214067527 438.61868841368175 656.9853503201157 431.48518904298544 L 643.9059284925461 436.27074003219604 Z" fill-opacity="1" stroke-opacity="1" stroke-linecap="round" stroke-miterlimit="10" stroke-width="4" stroke-dasharray=""/><path fill="rgb(255,255,255)" stroke="none" paint-order="stroke fill markers" d=" M 637.1162426734344 273.7367406322435 L 626.2886287708825 265.86346377731934 L 621.365395240276 267.4962413480457 L 632.3812959635727 275.10384560375513 Z" fill-opacity="1"/><path fill="none" stroke="rgb(0,0,0)" paint-order="fill stroke markers" d=" M 637.1162426734344 273.7367406322435 L 626.2886287708825 265.86346377731934" stroke-opacity="1" stroke-linecap="round" stroke-miterlimit="10" stroke-width="4" stroke-dasharray=""/><path fill="none" stroke="rgb(0,0,0)" paint-order="fill stroke markers" d=" M 632.3812959635727 275.10384560375513 L 621.365395240276 267.4962413480457" stroke-opacity="1" stroke-linecap="round" stroke-miterlimit="10" stroke-width="4" stroke-dasharray=""/><path fill="rgb(255,255,255)" stroke="none" paint-order="stroke fill markers" d=" M 623.0659354635537 464.4716126745414 L 609.1947542891971 474.1635035912786 L 613.6287153871981 477.09247371272147 L 627.238935400745 467.03740892443676 Z" fill-opacity="1"/><path fill="none" stroke="rgb(0,0,0)" paint-order="fill stroke markers" d=" M 623.0659354635537 464.4716126745414 L 609.1947542891971 474.1635035912786" stroke-opacity="1" stroke-linecap="round" stroke-miterlimit="10" stroke-width="4" stroke-dasharray=""/><path fill="none" stroke="rgb(0,0,0)" paint-order="fill stroke markers" d=" M 627.238935400745 467.03740892443676 L 613.6287153871981 477.09247371272147" stroke-opacity="1" stroke-linecap="round" stroke-miterlimit="10" stroke-width="4" stroke-dasharray=""/><path fill="rgb(255,255,255)" stroke="none" paint-order="stroke fill markers" d=" M 651.113459175619 472.009905313981 L 645.4171562086522 477.35921032198326 L 650.4769324252716 477.2928769382271 L 656.0570000708469 471.82243119487885 Z" fill-opacity="1"/><path fill="none" stroke="rgb(0,0,0)" paint-order="fill stroke markers" d=" M 651.113459175619 472.009905313981 L 645.4171562086522 477.35921032198326" stroke-opacity="1" stroke-linecap="round" stroke-miterlimit="10" stroke-width="4" stroke-dasharray=""/><path fill="none" stroke="rgb(0,0,0)" paint-order="fill stroke markers" d=" M 656.0570000708469 471.82243119487885 L 650.4769324252716 477.2928769382271" stroke-opacity="1" stroke-linecap="round" stroke-miterlimit="10" stroke-width="4" stroke-dasharray=""/><path fill="rgb(255,255,255)" stroke="none" paint-order="stroke fill markers" d=" M 696.2814305863759 305.91748228931 L 691.4411010135843 301.6229558425608 L 690.1182241244743 296.74835831902897 L 694.8393406477078 301.1736048148889 Z" fill-opacity="1"/><path fill="none" stroke="rgb(0,0,0)" paint-order="fill stroke markers" d=" M 696.2814305863759 305.91748228931 L 691.4411010135843 301.6229558425608" stroke-opacity="1" stroke-linecap="round" stroke-miterlimit="10" stroke-width="4" stroke-dasharray=""/><path fill="none" stroke="rgb(0,0,0)" paint-order="fill stroke markers" d=" M 694.8393406477078 301.1736048148889 L 690.1182241244743 296.74835831902897" stroke-opacity="1" stroke-linecap="round" stroke-miterlimit="10" stroke-width="4" stroke-dasharray=""/><path fill="rgb(255,255,255)" stroke="rgb(0,0,0)" paint-order="fill stroke markers" d=" M 975.761414823628 269.91103407838455 L 970.7757378088099 270.4363039766358 L 965.8811062737659 271.38431795008364 L 961.0899021508812 272.8308021000412 L 956.507900756551 274.83067280915566 L 952.2412398438901 277.4118612278253 L 948.3741577567707 280.574465181242 L 944.9897455126047 284.25965379178524 L 942.1345318555832 288.35983669757843 L 939.7945200940558 292.77306074856097 C 945.1996557673012 290.52155972692066 939.7381592811605 315.3611856838886 934.1117639311319 316.9824271408638 C 948.5285426107943 312.82824354418744 948.3555686158164 318.20657444370147 933.8323175604746 321.9716677542019 C 953.10590862693 316.97506826576017 953.2722961210455 328.05567040452485 933.75 331.96939921565354 C 950.7482988399856 328.5616683064543 951.0816611653022 361.5715474870134 933.75 361.9818091768211 C 963.0512787779284 361.2882119485862 962.722202019189 396.41090241960427 933.75 391.9772216354031 C 959.6169132234232 395.93569313954805 958.8123284555439 424.50340372675925 933.75 416.9770242024679 C 948.4409221318259 421.3888032485395 948.509770716153 432.14731960730927 934.0705595519394 426.97081804834306 C 958.5491026900628 435.7464509603242 959.3216521535829 446.8238217354964 935.2935153197905 436.88101290361374 C 960.1419446189497 447.1632575904606 971.7400028683033 476.1453109866503 947.9811760736957 463.5482024382836 C 957.1014182190465 468.3838233755282 979.3873555242924 478.770983079297 970.2421252180065 473.98278829592164 C 989.5924312785036 484.1140842209576 994.6429339325166 484.53449608945243 975.2162135309081 474.5505070974068 C 987.9235995681739 481.0812235380074 1012.9269763721146 477.70376124979595 999.8919152822345 471.85439380444586 C 1023.4624978437544 482.4314825769971 1036.754511446174 473.79134496240715 1012.7277174788942 464.29606503784817 C 1026.4928573573798 469.7359858414695 1035.5053700749065 456.9286687680405 1021.4704716753513 452.2283027037738 C 1043.4567862491012 459.5916425697768 1050.3096792883714 427.96525359519075 1027.6477910055146 423.06060050108863 C 1041.061311536962 425.96365359870424 1041.3404350170244 404.98932196793976 1027.75 403.0787392340135 C 1049.7680609043027 406.17410203480694 1049.8684323668786 395.3337225097059 1027.75 393.0640911550727 C 1035.6925149552942 393.8790938043641 1035.733973674931 368.1356724947761 1027.75 368.0729230610341 C 1051.7786651320193 368.2617745267328 1051.6891199903582 340.99040319520816 1027.75 343.07149593462236 C 1036.5507792723424 342.3064202822076 1036.1585507998986 316.48466989206145 1027.467251498485 318.0659266731236 C 1032.4724357331604 317.15530546022177 1031.2665191561373 307.04348940943487 1026.2986063815188 308.1393648039084 C 1054.9896385063714 301.8103897244113 1053.8581674818681 296.40323226130306 1025.2893424648682 303.2627866997682 C 1031.5112417952182 301.7688695666068 1023.2700703089344 283.17035435940375 1017.1748271437827 285.11761665181257 C 1036.6680921670886 278.89005543607044 1025.1225506986293 268.16766168014266 1005.9594965874858 275.34730353040504 L 1009.6449590535382 270.0098679595079 L 996.6866477967706 271.6578721960541 L 975.761414823628 269.91103407838455 M 985.5940715074539 308.22925996780396 L 988.6636597809847 312.05495308246464 L 989.746785691008 316.9156633242965 L 990.1269562300295 321.89866103976965 L 990.2407833321486 326.8912351215258 L 990.25 331.90067875012755 L 990.25 336.88877296447754 L 988.4880934699904 341.3978725822526 L 985.8910162001848 345.669381249696 L 983.2897216453275 349.94782624123764 L 980.6943362206221 354.2165522687137 L 978.0960118069779 358.4901121595758 C 1003.3109331879148 357.60564341175683 996.4613085244499 356.9447773271658 971.25 357.92685049027205 C 998.7192545722036 356.85682202666686 998.6361813147399 345.5413782568167 971.25 347.9292603019858 C 983.0952811524201 346.89643524840227 982.9765084962083 320.5141468184623 971.3347894698381 322.93236750364304 L 985.5940715074539 308.22925996780396 M 975.9059284925461 436.27074003219604 L 972.8363402190153 432.44504691753536 L 971.753214308992 427.5843366757035 L 971.3730437699705 422.60133896023035 L 971.2592166678514 417.6087648784742 L 971.25 412.59932124987245 L 977.7040296394836 408.90705377917766 L 973.0119065300096 403.1021274177474 C 985.335974193941 405.2897976627747 995.8689864396247 387.1467095495454 983.4039881930221 386.0098878404242 C 1012.0861004639661 388.6257283923431 1019.0197764405167 377.9128107532188 990.25 376.5688800709322 C 995.6588890932848 376.8215470328942 995.616024537364 397.2957931315829 990.25 396.5707396980142 C 999.0120144798005 397.7546568864881 998.9174662850497 413.33077100687314 990.25 411.584464661777 C 1000.4124870534152 413.63198524503525 991.6283128829167 440.4441504403174 981.7751601487398 437.2217499613762 L 975.9059284925461 436.27074003219604 Z" fill-opacity="1" stroke-opacity="1" stroke-linecap="round" stroke-miterlimit="10" stroke-width="4" stroke-dasharray=""/><path fill="rgb(255,255,255)" stroke="none" paint-order="stroke fill markers" d=" M 1015.3110747620245 455.264366166747 L 1026.4501478850398 459.22090609620517 L 1028.8865026588696 454.7119730071929 L 1017.6775313324113 450.95802574385596 Z" fill-opacity="1"/><path fill="none" stroke="rgb(0,0,0)" paint-order="fill stroke markers" d=" M 1015.3110747620245 455.264366166747 L 1026.4501478850398 459.22090609620517" stroke-opacity="1" stroke-linecap="round" stroke-miterlimit="10" stroke-width="4" stroke-dasharray=""/><path fill="none" stroke="rgb(0,0,0)" paint-order="fill stroke markers" d=" M 1017.6775313324113 450.95802574385596 L 1028.8865026588696 454.7119730071929" stroke-opacity="1" stroke-linecap="round" stroke-miterlimit="10" stroke-width="4" stroke-dasharray=""/><path fill="rgb(255,255,255)" stroke="none" paint-order="stroke fill markers" d=" M 986.2009253644361 322.66435134427155 L 992.7256799092212 321.3918342741742 L 992.8497750395451 326.4402357846615 L 986.2992400071184 327.57258394328363 Z" fill-opacity="1"/><path fill="none" stroke="rgb(0,0,0)" paint-order="fill stroke markers" d=" M 986.2009253644361 322.66435134427155 L 992.7256799092212 321.3918342741742" stroke-opacity="1" stroke-linecap="round" stroke-miterlimit="10" stroke-width="4" stroke-dasharray=""/><path fill="none" stroke="rgb(0,0,0)" paint-order="fill stroke markers" d=" M 986.2992400071184 327.57258394328363 L 992.8497750395451 326.4402357846615" stroke-opacity="1" stroke-linecap="round" stroke-miterlimit="10" stroke-width="4" stroke-dasharray=""/><path fill="rgb(255,255,255)" stroke="none" paint-order="stroke fill markers" d=" M 986.2827055791234 337.399238416866 L 1002.9450375810709 335.2553227048221 L 1001.2116069875507 340.00347568608805 L 984.5119001054723 341.83363206632765 Z" fill-opacity="1"/><path fill="none" stroke="rgb(0,0,0)" paint-order="fill stroke markers" d=" M 986.2827055791234 337.399238416866 L 1002.9450375810709 335.2553227048221" stroke-opacity="1" stroke-linecap="round" stroke-miterlimit="10" stroke-width="4" stroke-dasharray=""/><path fill="none" stroke="rgb(0,0,0)" paint-order="fill stroke markers" d=" M 984.5119001054723 341.83363206632765 L 1001.2116069875507 340.00347568608805" stroke-opacity="1" stroke-linecap="round" stroke-miterlimit="10" stroke-width="4" stroke-dasharray=""/><path fill="rgb(255,255,255)" stroke="none" paint-order="stroke fill markers" d=" M 967.5142013834705 421.5480890202108 L 982.2827707868208 425.5790893255541 L 982.2329340880659 420.3412851074311 L 967.3777404537177 416.6422544547778 Z" fill-opacity="1"/><path fill="none" stroke="rgb(0,0,0)" paint-order="fill stroke markers" d=" M 967.5142013834705 421.5480890202108 L 982.2827707868208 425.5790893255541" stroke-opacity="1" stroke-linecap="round" stroke-miterlimit="10" stroke-width="4" stroke-dasharray=""/><path fill="none" stroke="rgb(0,0,0)" paint-order="fill stroke markers" d=" M 967.3777404537177 416.6422544547778 L 982.2329340880659 420.3412851074311" stroke-opacity="1" stroke-linecap="round" stroke-miterlimit="10" stroke-width="4" stroke-dasharray=""/><g><text fill="none" stroke="rgb(0,0,0)" font-family="sans-serif" font-size="12px" font-style="normal" font-weight="normal" text-decoration="normal" x="698.25" y="472.25" text-anchor="start" dominant-baseline="alphabetic" transform="matrix(1 0 0 1 0 0)" stroke-opacity="1" stroke-linecap="round" stroke-miterlimit="10" stroke-width="8" stroke-dasharray=""> </text><text fill="rgb(255,255,255)" stroke="none" font-family="sans-serif" font-size="12px" font-style="normal" font-weight="normal" text-decoration="normal" x="698.25" y="472.25" text-anchor="start" dominant-baseline="alphabetic" transform="matrix(1 0 0 1 0 0)" fill-opacity="1"> </text></g><path fill="rgb(255,255,255)" stroke="rgb(0,0,0)" paint-order="fill stroke markers" d=" M 876.761414823628 269.91103407838455 L 871.7757378088099 270.4363039766358 L 866.8811062737659 271.38431795008364 L 862.0899021508812 272.8308021000412 L 857.507900756551 274.83067280915566 L 853.2412398438901 277.4118612278253 L 869.8734950795523 260.0627916228593 L 845.9897455126047 284.25965379178524 L 851.5502570773228 280.1030331858498 L 840.7945200940558 292.77306074856097 C 855.8854341943555 278.38321302612076 854.3064769960249 283.33468864780843 838.9255772661418 297.4141534585506 C 860.8348800452104 277.3586779712179 859.4295044179074 288.3293984573722 836.3928182617346 307.0790847542121 C 851.2998767619675 294.94614737801254 852.5316587305638 329.6712757327188 834.75 336.96793080843054 C 858.4476257458866 327.24367483202775 859.4863886344338 340.3220513273383 834.75 346.97409594632336 C 847.4835048261256 343.5498352948902 847.6843003534505 349.4142175320668 834.75 351.97772694937885 C 861.259304641412 346.7237240085452 861.7314669069922 360.4494179016044 834.75 361.9818091768211 C 843.8152516942191 361.466955308729 843.6067470176088 383.98077826613803 834.75 381.9803045594599 C 843.0529520062408 383.85569257079993 842.5476485429361 400.38619390405285 834.75 396.97257860471655 C 842.2148797235229 400.2405160465762 841.2553438518145 432.2766909807258 835.0705595519394 426.97081804834306 C 838.03696922576 429.5156752384315 839.0843276230743 439.61729709183714 836.2935153197905 436.88101290361374 C 855.4715861244485 455.6843741478173 857.0143260300637 466.2557414529651 838.7470795723202 446.56634073276655 C 845.8502918136065 454.22255714955554 852.5117046046893 467.6923879340932 845.6550110334938 459.81463271853863 C 864.0872344320908 480.99168292573444 880.6414859259513 492.08715098739486 861.5763196379412 471.4780813988764 C 877.1319705832806 488.293433963035 903.3216309602797 489.841287438758 886.2006552817734 474.62266233639775 C 901.2960974311662 488.04081555031667 916.8693109043561 484.20923247162733 900.8919152822345 471.85439380444586 C 909.8219958800702 478.7597560850437 929.8431926668228 462.2704292400077 920.0803626476591 456.60319731189156 C 924.3330080431549 459.07181836920813 932.9447106177931 429.79802308009727 928.3445558390704 428.0608820966845 C 934.3959485668006 430.34604918773283 934.9696717921812 414.84168592056744 928.75 413.0648839122441 C 939.5906072319032 416.16176962336857 939.9243826047685 389.5766582321729 928.75 388.0791136864573 C 956.8983192231356 391.85143502309035 957.1238819310674 374.2834359440305 928.75 373.0664283367405 C 955.40704619601 374.20979772437806 955.3497727580593 350.98350911764845 928.75 353.07097041606903 C 941.5179450866203 352.06898474231537 941.3088849717291 330.56695238375056 928.75 333.0766944605857 C 939.8786076611688 330.85277609787295 938.8137617165326 309.61530000304253 928.0130359946343 313.09898271542625 C 932.1374052812814 311.76870229230167 930.3314251574643 301.7002133341298 926.2893424648682 303.2627866997682 C 939.4170021637525 298.187944605069 927.181251119158 274.44946007277116 914.9066540745553 281.33594966097735 C 923.7914995259679 276.3512324053605 895.8874491822584 263.7509233390811 887.836063178404 269.9929637291193 L 876.761414823628 269.91103407838455 M 886.5940715074539 308.22925996780396 L 889.6636597809847 312.05495308246464 L 890.746785691008 316.9156633242965 L 891.1269562300295 321.89866103976965 L 891.2407833321486 326.8912351215258 L 891.25 331.90067875012755 L 897.5593376559698 335.44537366430694 L 889.4880934699904 341.3978725822526 C 894.0029894960672 340.51272049937404 886.2722947071584 353.7582113130285 881.6943362206221 354.2165522687137 C 889.7730426755517 353.4077196748528 884.6178640314854 362.5223546768688 876.5021412705537 362.75634659448406 C 889.5724123668307 362.3795055061842 885.2313695645673 351.35838552671504 872.25 352.92619927972555 C 899.4379056846923 349.6426033358615 898.0871961334469 318.8448184377693 872.2527125116903 327.9301733477041 C 899.7453696806904 318.26167942870137 899.2910365343067 306.14219987660357 872.6398303002643 317.9336874479195 C 884.0622538445406 312.87998128265787 891.8828774861433 301.6648819081542 880.7248398512602 307.2782500386238 L 886.5940715074539 308.22925996780396 M 876.9059284925461 436.27074003219604 L 873.8363402190153 432.44504691753536 L 872.753214308992 427.5843366757035 L 872.3730437699705 422.60133896023035 L 872.2592166678514 417.6087648784742 L 872.25 412.59932124987245 L 894.1788520021441 416.04066296429465 L 874.0119065300096 403.1021274177474 L 876.6089837998152 398.830618750304 L 879.2102783546725 394.55217375876236 L 881.8056637793779 390.2834477312863 L 884.4039881930221 386.0098878404242 C 890.3990868686494 387.00621075208113 893.0260013063182 382.5152521015393 886.9978587294463 381.74365340551594 C 896.2170323385185 382.9237021924284 900.4755471447819 382.7036156943346 891.25 381.574475732632 C 910.6369589840506 383.9472986970849 910.0606787105559 406.8244301132941 891.25 401.5667848306475 C 894.380458832443 402.44175815649976 893.7934543495703 427.96673819652506 890.8601696997357 426.5663125520805 L 876.9059284925461 436.27074003219604 Z" fill-opacity="1" stroke-opacity="1" stroke-linecap="round" stroke-miterlimit="10" stroke-width="4" stroke-dasharray=""/><path fill="rgb(255,255,255)" stroke="none" paint-order="stroke fill markers" d=" M 878.6475188458858 272.28159019954074 L 892.384260272752 261.05251542037723 L 887.2211598655581 260.99782483517976 L 873.716881054414 272.50541533951707 Z" fill-opacity="1"/><path fill="none" stroke="rgb(0,0,0)" paint-order="fill stroke markers" d=" M 878.6475188458858 272.28159019954074 L 892.384260272752 261.05251542037723" stroke-opacity="1" stroke-linecap="round" stroke-miterlimit="10" stroke-width="4" stroke-dasharray=""/><path fill="none" stroke="rgb(0,0,0)" paint-order="fill stroke markers" d=" M 873.716881054414 272.50541533951707 L 887.2211598655581 260.99782483517976" stroke-opacity="1" stroke-linecap="round" stroke-miterlimit="10" stroke-width="4" stroke-dasharray=""/><path fill="rgb(255,255,255)" stroke="none" paint-order="stroke fill markers" d=" M 840.2792740136107 291.1611761371777 L 853.3937608267943 278.2943419760656 L 851.1960796363724 282.854718036183 L 837.899650066758 295.53344614285885 Z" fill-opacity="1"/><path fill="none" stroke="rgb(0,0,0)" paint-order="fill stroke markers" d=" M 840.2792740136107 291.1611761371777 L 853.3937608267943 278.2943419760656" stroke-opacity="1" stroke-linecap="round" stroke-miterlimit="10" stroke-width="4" stroke-dasharray=""/><path fill="none" stroke="rgb(0,0,0)" paint-order="fill stroke markers" d=" M 837.899650066758 295.53344614285885 L 851.1960796363724 282.854718036183" stroke-opacity="1" stroke-linecap="round" stroke-miterlimit="10" stroke-width="4" stroke-dasharray=""/><path fill="rgb(255,255,255)" stroke="none" paint-order="stroke fill markers" d=" M 878.1767773036785 309.0357415679342 L 883.2438905964298 306.5076937640876 L 888.0981772507779 307.52047119188654 L 882.9757002233333 309.9343667827137 Z" fill-opacity="1"/><path fill="none" stroke="rgb(0,0,0)" paint-order="fill stroke markers" d=" M 878.1767773036785 309.0357415679342 L 883.2438905964298 306.5076937640876" stroke-opacity="1" stroke-linecap="round" stroke-miterlimit="10" stroke-width="4" stroke-dasharray=""/><path fill="none" stroke="rgb(0,0,0)" paint-order="fill stroke markers" d=" M 882.9757002233333 309.9343667827137 L 888.0981772507779 307.52047119188654" stroke-opacity="1" stroke-linecap="round" stroke-miterlimit="10" stroke-width="4" stroke-dasharray=""/><path fill="rgb(255,255,255)" stroke="none" paint-order="stroke fill markers" d=" M 887.3507358638697 337.78081511409135 L 898.5517443958256 335.2183388673284 L 896.8385456303239 339.9568055006986 L 885.5628185028859 342.16742857932013 Z" fill-opacity="1"/><path fill="none" stroke="rgb(0,0,0)" paint-order="fill stroke markers" d=" M 887.3507358638697 337.78081511409135 L 898.5517443958256 335.2183388673284" stroke-opacity="1" stroke-linecap="round" stroke-miterlimit="10" stroke-width="4" stroke-dasharray=""/><path fill="none" stroke="rgb(0,0,0)" paint-order="fill stroke markers" d=" M 885.5628185028859 342.16742857932013 L 896.8385456303239 339.9568055006986" stroke-opacity="1" stroke-linecap="round" stroke-miterlimit="10" stroke-width="4" stroke-dasharray=""/><path fill="rgb(255,255,255)" stroke="none" paint-order="stroke fill markers" d=" M 880.3248685509722 350.4769197492118 L 897.8798140555165 348.13428372254094 L 895.3366957531285 352.8506918913599 L 877.7142344101138 354.61503636875915 Z" fill-opacity="1"/><path fill="none" stroke="rgb(0,0,0)" paint-order="fill stroke markers" d=" M 880.3248685509722 350.4769197492118 L 897.8798140555165 348.13428372254094" stroke-opacity="1" stroke-linecap="round" stroke-miterlimit="10" stroke-width="4" stroke-dasharray=""/><path fill="none" stroke="rgb(0,0,0)" paint-order="fill stroke markers" d=" M 877.7142344101138 354.61503636875915 L 895.3366957531285 352.8506918913599" stroke-opacity="1" stroke-linecap="round" stroke-miterlimit="10" stroke-width="4" stroke-dasharray=""/><path fill="rgb(255,255,255)" stroke="none" paint-order="stroke fill markers" d=" M 868.5163473592779 406.17601347704795 L 884.9540379914265 412.4946506764384 L 886.9085204584816 407.4515822024542 L 870.221656793437 401.8238446108492 Z" fill-opacity="1"/><path fill="none" stroke="rgb(0,0,0)" paint-order="fill stroke markers" d=" M 868.5163473592779 406.17601347704795 L 884.9540379914265 412.4946506764384" stroke-opacity="1" stroke-linecap="round" stroke-miterlimit="10" stroke-width="4" stroke-dasharray=""/><path fill="none" stroke="rgb(0,0,0)" paint-order="fill stroke markers" d=" M 870.221656793437 401.8238446108492 L 886.9085204584816 407.4515822024542" stroke-opacity="1" stroke-linecap="round" stroke-miterlimit="10" stroke-width="4" stroke-dasharray=""/><path fill="rgb(255,255,255)" stroke="rgb(0,0,0)" paint-order="fill stroke markers" d=" M 777.761414823628 269.91103407838455 L 772.7757378088099 270.4363039766358 L 767.8811062737659 271.38431795008364 L 763.0899021508812 272.8308021000412 L 758.507900756551 274.83067280915566 C 757.0188395095944 250.112126036185 737.9961795116438 264.3693283981201 744.1345318555832 288.35983669757843 C 736.881841914426 260.0141653386311 730.2350391729424 269.80668947439835 739.9255772661418 297.4141534585506 C 736.922566589085 288.8588484472582 730.9459792116708 314.33393153829536 735.8323175604746 321.9716677542019 C 730.6995723523773 313.9487779818425 729.1078871151263 330.1419385658866 735.75 336.96793080843054 C 731.6575368600072 332.7621724705821 730.8826670138641 343.69602832184484 735.75 346.97409594632336 C 722.8959701044845 338.3171210969369 720.5889354986392 375.194539977816 735.75 371.98339979350567 C 712.9753641007908 376.8071078195763 714.0500684013446 385.404610363465 735.75 376.9745944633614 C 714.3699176965675 385.2803549190592 720.2932139032163 413.9190041749439 735.75 396.97257860471655 C 727.7867000639544 405.7033373028442 729.0426521077347 416.7051452599242 735.75 406.97623074860894 C 727.9261746480955 418.32458023379326 729.0686795637037 429.033443090451 735.75 416.9770242024679 C 729.8856191958852 427.55927843906426 730.3731862598084 432.7850093401852 735.8141335999567 421.9789388709828 C 723.7922317692229 445.85520714473597 732.0414874414189 472.16372654109125 739.7470795723202 446.56634073276655 C 736.9502468815667 455.85720433031577 744.8910155043121 469.3556357717485 746.6550110334938 459.81463271853863 C 743.518534216053 476.7790378978456 752.0473305461294 483.92659020643106 753.7870171871036 466.76261571608484 C 751.7113248226381 487.2416663418579 756.8337442332133 489.9639260830979 758.0217040353709 469.4142602747852 C 757.339764086827 481.21065104361674 778.6442968986521 486.2799766147877 777.2162135309081 474.5505070974068 C 779.6863664433978 494.8389467954953 791.4697587066936 494.6100883022741 787.2006552817734 474.62266233639775 C 788.290227358022 479.72390703367586 817.1199264387564 468.9314939352862 814.7277174788942 464.29606503784817 C 825.810204837423 485.7708120265791 837.1906158587767 472.12161635102666 823.4704716753513 452.2283027037738 L 833.9129402187381 458.9257303450573 L 826.8834783560887 442.8261266841728 C 839.2573437034777 457.9435497594081 845.6354627506038 424.43594794645617 829.75 413.0648839122441 C 837.9522012147437 418.9361485205601 839.0777123330403 396.9035749094407 829.75 393.0640911550727 C 847.5822893486652 400.404238751056 849.0243106205002 368.6805909389165 829.75 368.0729230610341 C 836.510869676377 368.2860753449095 836.4655257254154 357.2567865625404 829.75 358.06703770160675 C 842.1130591744919 356.5753923430661 840.5366631433676 321.8490930354304 829.75 328.0714829508215 C 854.459201268403 313.8177436111986 851.1392206544529 295.09493692332785 829.0130359946343 313.09898271542625 C 844.4162785739683 300.56538557661423 841.3926438250238 289.2825209676557 827.2893424648682 303.2627866997682 C 840.8519241365195 289.818523477907 836.3759366373904 279.10119437223915 824.154355329898 293.7751435858372 C 835.1363140440735 280.58955815436354 810.1447033622438 257.4262046183519 803.4326551594713 273.21897161132074 C 814.41712581975 247.37362896207878 808.3775394302029 245.3001987082001 798.6866477967706 271.6578721960541 L 777.761414823628 269.91103407838455 M 787.5940715074539 308.22925996780396 L 790.6636597809847 312.05495308246464 L 791.746785691008 316.9156633242965 L 792.1269562300295 321.89866103976965 L 792.2407833321486 326.8912351215258 L 792.25 331.90067875012755 L 792.25 336.88877296447754 L 800.6444935848534 331.96461344585714 L 787.8910162001848 345.669381249696 C 798.367589848721 336.75409598626624 786.716155908951 370.74244555541475 773.25 367.9311199290678 C 797.5941840293771 373.013448462692 796.8496176491964 355.08158353635747 773.25 362.925524267368 C 801.1354593565253 353.6570736635915 784.1872033207327 315.65904050466236 773.25 342.9332151693525 C 784.215167147057 315.58930693008256 782.4692636363346 309.94496303242363 773.25 337.9258384005079 C 779.1511145011691 320.0156933061373 777.3478702024814 299.44458552973856 773.6398303002643 317.9336874479195 L 787.5940715074539 308.22925996780396 M 777.9059284925461 436.27074003219604 L 774.8363402190153 432.44504691753536 L 773.753214308992 427.5843366757035 L 773.3730437699705 422.60133896023035 L 773.2592166678514 417.6087648784742 L 776.3378980797291 428.1554244503223 L 773.25 407.61122703552246 L 775.0119065300096 403.1021274177474 L 777.6089837998152 398.830618750304 L 780.2102783546725 394.55217375876236 L 782.8056637793779 390.2834477312863 C 788.2043959441756 397.25474275586515 795.3702631774133 386.58027577681344 787.9978587294463 381.74365340551594 C 806.5253827394889 393.89852604498896 807.2887039459532 412.8448743432261 792.25 396.5707396980142 C 807.0267808812459 412.56143427837395 804.6909514303874 424.44252173357944 792.25 406.5741615994921 C 796.0383184111569 412.01514720673487 795.1626222379034 427.48127805699266 792.1652105301619 421.56763249635696 C 805.4955350477569 447.8672610064174 802.2192011503122 458.7463080045481 790.9853503201157 431.48518904298544 L 777.9059284925461 436.27074003219604 Z" fill-opacity="1" stroke-opacity="1" stroke-linecap="round" stroke-miterlimit="10" stroke-width="4" stroke-dasharray=""/><path fill="rgb(255,255,255)" stroke="none" paint-order="stroke fill markers" d=" M 781.5395249095388 311.06052422369436 L 786.9514606279795 294.10858779213845 L 792.8097957517567 295.4584141516401 L 786.081704552777 311.9323325021194 Z" fill-opacity="1"/><path fill="none" stroke="rgb(0,0,0)" paint-order="fill stroke markers" d=" M 781.5395249095388 311.06052422369436 L 786.9514606279795 294.10858779213845" stroke-opacity="1" stroke-linecap="round" stroke-miterlimit="10" stroke-width="4" stroke-dasharray=""/><path fill="none" stroke="rgb(0,0,0)" paint-order="fill stroke markers" d=" M 786.081704552777 311.9323325021194 L 792.8097957517567 295.4584141516401" stroke-opacity="1" stroke-linecap="round" stroke-miterlimit="10" stroke-width="4" stroke-dasharray=""/><path fill="rgb(255,255,255)" stroke="none" paint-order="stroke fill markers" d=" M 782.4820038359607 383.2782203245855 L 788.0112836924241 388.44736304548366 L 790.9821729116871 383.70149508914557 L 784.6533512276827 379.5495090231547 Z" fill-opacity="1"/><path fill="none" stroke="rgb(0,0,0)" paint-order="fill stroke markers" d=" M 782.4820038359607 383.2782203245855 L 788.0112836924241 388.44736304548366" stroke-opacity="1" stroke-linecap="round" stroke-miterlimit="10" stroke-width="4" stroke-dasharray=""/><path fill="none" stroke="rgb(0,0,0)" paint-order="fill stroke markers" d=" M 784.6533512276827 379.5495090231547 L 790.9821729116871 383.70149508914557" stroke-opacity="1" stroke-linecap="round" stroke-miterlimit="10" stroke-width="4" stroke-dasharray=""/><g><path fill="rgb(255,255,255)" stroke="rgb(0,0,0)" paint-order="fill stroke markers" d=" M 781.3071564641656 665.8674884197154 C 781.4906274058578 670.8185450687372 778.869574090568 674.9348092549947 775.452870030726 675.0614218057655 C 772.036165970884 675.1880343565361 769.1176474853393 671.2770496746189 768.9341765436469 666.3259930255971 C 768.7507056019547 661.3749363765753 771.3717589172445 657.2586721903178 774.7884629770865 657.132059639547 C 778.2051670369285 657.0054470887764 781.1236855224732 660.9164317706936 781.3071564641656 665.8674884197154" fill-opacity="1" stroke-opacity="1" stroke-linecap="round" stroke-miterlimit="10" stroke-width="4" stroke-dasharray=""/></g><g><path fill="rgb(255,255,255)" stroke="rgb(0,0,0)" paint-order="fill stroke markers" d=" M 153.36843637640482 760.5367048670397 C 149.45362482946643 763.0156183858087 144.6861993746431 762.5081053745697 142.72009359001623 759.4031428295343 C 140.7539878053894 756.2981802844989 142.33372595360993 751.7715543548543 146.2485375005483 749.2926408360853 C 150.1633490474867 746.8137273173163 154.93077450231002 747.3212403285553 156.8968802869369 750.4262028735907 C 158.86298607156374 753.5311654186261 157.2832479233432 758.0577913482707 153.36843637640482 760.5367048670397" fill-opacity="1" stroke-opacity="1" stroke-linecap="round" stroke-miterlimit="10" stroke-width="4" stroke-dasharray=""/></g><g><path fill="rgb(255,255,255)" stroke="rgb(0,0,0)" paint-order="fill stroke markers" d=" M 250.17314903492831 -39.13104927923542 C 245.9857693979208 -42.50741580651906 244.5990086784189 -47.73455776047389 247.0757322753196 -50.80619760536413 C 249.55245587222032 -53.877837450254376 254.95477894525163 -53.630807665528685 259.1421585822592 -50.25444113824505 C 263.32953821926674 -46.878074610961406 264.7162989387686 -41.65093265700658 262.23957534186786 -38.579292812116336 C 259.7628517449672 -35.50765296722609 254.36052867193587 -35.75468275195178 250.17314903492831 -39.13104927923542" fill-opacity="1" stroke-opacity="1" stroke-linecap="round" stroke-miterlimit="10" stroke-width="4" stroke-dasharray=""/></g><g><path fill="rgb(255,255,255)" stroke="rgb(0,0,0)" paint-order="fill stroke markers" d=" M 793.6108653894286 236.95308520700235 C 795.2709287825987 231.09516502781793 799.5009083483508 227.1637388302422 803.0587891844355 228.17199902372064 C 806.6166700205201 229.18025921719908 808.1551550349915 234.74639817826636 806.4950916418214 240.60431835745078 C 804.8350282486513 246.4622385366352 800.6050486828992 250.39366473421092 797.0471678468145 249.38540454073248 C 793.4892870107299 248.37714434725405 791.9508019962585 242.81100538618676 793.6108653894286 236.95308520700235" fill-opacity="1" stroke-opacity="1" stroke-linecap="round" stroke-miterlimit="10" stroke-width="4" stroke-dasharray=""/></g><g><path fill="rgb(255,255,255)" stroke="rgb(0,0,0)" paint-order="fill stroke markers" d=" M 805.864693734069 358.25661497641113 C 809.2225422072918 358.094998026306 812.0677722943249 360.52274421834454 812.2196930014876 363.67913786557807 C 812.3716137086503 366.8355315128116 809.7726957547787 369.5253105539524 806.414847281556 369.6869275040576 C 803.0569988083332 369.8485444541628 800.2117687213001 367.4207982621242 800.0598480141374 364.2644046148907 C 799.9079273069747 361.10801096765715 802.5068452608463 358.41823192651634 805.864693734069 358.25661497641113" fill-opacity="1" stroke-opacity="1" stroke-linecap="round" stroke-miterlimit="10" stroke-width="4" stroke-dasharray=""/></g><g><path fill="rgb(255,255,255)" stroke="rgb(0,0,0)" paint-order="fill stroke markers" d=" M 916.6928085847686 792.1619430102076 C 918.1712824129123 796.4807255055784 916.6437988768649 800.9150058409931 913.2810786171941 802.0661853460089 C 909.9183583575234 803.2173648510246 905.9937951261876 800.6495152664133 904.5153212980439 796.3307327710424 C 903.0368474699002 792.0119502756716 904.5643310059476 787.5776699402569 907.9270512656184 786.4264904352411 C 911.2897715252891 785.2753109302254 915.2143347566249 787.8431605148367 916.6928085847686 792.1619430102076" fill-opacity="1" stroke-opacity="1" stroke-linecap="round" stroke-miterlimit="10" stroke-width="4" stroke-dasharray=""/></g><g><path fill="rgb(255,255,255)" stroke="rgb(0,0,0)" paint-order="fill stroke markers" d=" M 492.3594596657442 619.7528202907151 C 489.9916846321041 621.9163263201638 486.8355582508538 622.3167683499155 485.3100540896767 620.647232597584 C 483.78454992849964 618.9776968452525 484.4673453787407 615.8704025356084 486.8351204123808 613.7068965061599 C 489.2028954460209 611.5433904767112 492.3590218272712 611.1429484469595 493.8845259884483 612.812484199291 C 495.41003014962536 614.4820199516225 494.7272346993843 617.5893142612666 492.3594596657442 619.7528202907151" fill-opacity="1" stroke-opacity="1" stroke-linecap="round" stroke-miterlimit="10" stroke-width="4" stroke-dasharray=""/></g><g><path fill="rgb(255,255,255)" stroke="rgb(0,0,0)" paint-order="fill stroke markers" d=" M 333.74537607485183 309.2782942394372 C 328.4828517243484 308.4957238042705 324.6896227278947 304.6812987720087 325.2729619796 300.75853747314915 C 325.8563012313053 296.83577617428955 330.5953100238634 294.2901485089899 335.8578343743669 295.0727189441566 C 341.12035872487036 295.85528937932327 344.91358772132406 299.66971441158506 344.33024846961877 303.5924757104446 C 343.74690921791347 307.5152370093042 339.00790042535533 310.06086467460386 333.74537607485183 309.2782942394372" fill-opacity="1" stroke-opacity="1" stroke-linecap="round" stroke-miterlimit="10" stroke-width="4" stroke-dasharray=""/></g><g><path fill="rgb(255,255,255)" stroke="rgb(0,0,0)" paint-order="fill stroke markers" d=" M 769.6097502294164 -170.31819234122423 C 769.7171204579007 -175.31929856041282 772.4465352122741 -179.31676627906273 775.7060687112061 -179.24678639037535 C 778.9656022101381 -179.17680650168793 781.5209354287555 -175.06587896585498 781.4135652002711 -170.0647727466664 C 781.3061949717868 -165.0636665274778 778.5767802174134 -161.0661988088279 775.3172467184814 -161.13617869751528 C 772.0577132195494 -161.2061585862027 769.502380000932 -165.31708612203565 769.6097502294164 -170.31819234122423" fill-opacity="1" stroke-opacity="1" stroke-linecap="round" stroke-miterlimit="10" stroke-width="4" stroke-dasharray=""/></g><g><path fill="rgb(255,255,255)" stroke="rgb(0,0,0)" paint-order="fill stroke markers" d=" M 1180.1031642595794 211.35834938605717 C 1185.8664155144204 209.31617292153993 1191.5529659426534 210.52372905446154 1192.8044301326825 214.0555014986604 C 1194.0558943227115 217.58727394285924 1190.3983682452615 222.1058523232537 1184.6351169904206 224.14802878777095 C 1178.8718657355796 226.1902052522882 1173.1853153073466 224.98264911936658 1171.9338511173175 221.45087667516773 C 1170.6823869272885 217.91910423096888 1174.3399130047385 213.4005258505744 1180.1031642595794 211.35834938605717" fill-opacity="1" stroke-opacity="1" stroke-linecap="round" stroke-miterlimit="10" stroke-width="4" stroke-dasharray=""/></g><g><path fill="rgb(255,255,255)" stroke="rgb(0,0,0)" paint-order="fill stroke markers" d=" M 917.7192573342312 763.449765415693 C 919.3198221599112 767.7139584041407 918.8370967435208 771.8389827436122 916.6410599394032 772.6632651515828 C 914.4450231352857 773.4875475595535 911.3672694055113 770.6989490571295 909.7667045798313 766.434756068682 C 908.1661397541513 762.1705630802343 908.6488651705417 758.0455387407628 910.8449019746593 757.2212563327922 C 913.0409387787768 756.3969739248215 916.1186925085512 759.1855724272455 917.7192573342312 763.449765415693" fill-opacity="1" stroke-opacity="1" stroke-linecap="round" stroke-miterlimit="10" stroke-width="4" stroke-dasharray=""/></g><g><path fill="rgb(255,255,255)" stroke="rgb(0,0,0)" paint-order="fill stroke markers" d=" M 578.515757934648 646.5261569575065 C 576.57070704819 649.3822057902236 573.2927237181235 650.5389195259955 571.1941772455779 649.1097493976911 C 569.0956307730322 647.6805792693865 568.9711980148314 644.206722929898 570.9162489012895 641.350674097181 C 572.8612997877475 638.4946252644639 576.139283117814 637.337911528692 578.2378295903596 638.7670816569964 C 580.3363760629053 640.196251785301 580.4608088211061 643.6701081247895 578.515757934648 646.5261569575065" fill-opacity="1" stroke-opacity="1" stroke-linecap="round" stroke-miterlimit="10" stroke-width="4" stroke-dasharray=""/></g></g></svg>