<svg version="1.1" xmlns="http://www.w3.org/2000/svg" xmlns:xlink="http://www.w3.org/1999/xlink" width="1528" height="732" viewBox="0 0 1528 732"><defs/><g><rect fill="transparent" stroke="none" x="0" y="0" width="1528" height="732" transform="matrix(1 0 0 1 0 0)" fill-opacity="1"/><path fill="none" stroke="rgb(0,0,0)" paint-order="fill stroke markers" d=" M 775.7037118761092 183.58912506948852 L 784.5594640990311 45.56577587473407" stroke-opacity="1" stroke-linecap="round" stroke-miterlimit="10" stroke-width="4" stroke-dasharray=""/><path fill="none" stroke="rgb(0,0,0)" paint-order="fill stroke markers" d=" M 832.3667249523678 357.3623722800557 L 1030.231228282781 332.3636624552025" stroke-opacity="1" stroke-linecap="round" stroke-miterlimit="10" stroke-width="4" stroke-dasharray=""/><path fill="none" stroke="rgb(0,0,0)" paint-order="fill stroke markers" d=" M 852.7147299953234 503.6543763259623 L 949.9329219124404 654.5031652090927" stroke-opacity="1" stroke-linecap="round" stroke-miterlimit="10" stroke-width="4" stroke-dasharray=""/><path fill="none" stroke="rgb(0,0,0)" paint-order="fill stroke markers" d=" M 664.8846039536679 430.57252149297324 L 441.9103732865628 575.837625366446" stroke-opacity="1" stroke-linecap="round" stroke-miterlimit="10" stroke-width="4" stroke-dasharray=""/><path fill="none" stroke="rgb(0,0,0)" paint-order="fill stroke markers" d=" M 623.7917713688397 261.4491401958498 L 441.46493871670907 125.49116322650684" stroke-opacity="1" stroke-linecap="round" stroke-miterlimit="10" stroke-width="4" stroke-dasharray=""/><path fill="none" stroke="rgb(0,0,0)" paint-order="fill stroke markers" d=" M 812.9519930788741 238.51701974267849 L 868.5080255607796 93.83550328931898" stroke-opacity="1" stroke-linecap="round" stroke-miterlimit="10" stroke-width="4" stroke-dasharray=""/><path fill="none" stroke="rgb(0,0,0)" paint-order="fill stroke markers" d=" M 849.2102430673634 368.48206283583596 L 1195.1461762068361 378.55872371975016" stroke-opacity="1" stroke-linecap="round" stroke-miterlimit="10" stroke-width="4" stroke-dasharray=""/><path fill="none" stroke="rgb(0,0,0)" paint-order="fill stroke markers" d=" M 840.5134252036278 546.6763145629623 L 1025.0296141727285 982.3868439428386" stroke-opacity="1" stroke-linecap="round" stroke-miterlimit="10" stroke-width="4" stroke-dasharray=""/><path fill="none" stroke="rgb(0,0,0)" paint-order="fill stroke markers" d=" M 620.6381247937447 475.2458899384379 L 437.7217422202685 614.633457029129" stroke-opacity="1" stroke-linecap="round" stroke-miterlimit="10" stroke-width="4" stroke-dasharray=""/><path fill="none" stroke="rgb(0,0,0)" paint-order="fill stroke markers" d=" M 682.5602632355772 352.2390371326526 L 390.10347765984255 302.8222889148516" stroke-opacity="1" stroke-linecap="round" stroke-miterlimit="10" stroke-width="4" stroke-dasharray=""/><path fill="none" stroke="rgb(0,0,0)" paint-order="fill stroke markers" d=" M 775.0127783464727 273.4189908585812 L 826.2319094097393 -157.16434533492384" stroke-opacity="1" stroke-linecap="round" stroke-miterlimit="10" stroke-width="4" stroke-dasharray=""/><path fill="none" stroke="rgb(0,0,0)" paint-order="fill stroke markers" d=" M 895.8393551622001 295.4638231517009 L 1333.224243676158 61.45586847809068" stroke-opacity="1" stroke-linecap="round" stroke-miterlimit="10" stroke-width="4" stroke-dasharray=""/><path fill="none" stroke="rgb(0,0,0)" paint-order="fill stroke markers" d=" M 794.5146397025087 420.7407230176627 L 923.3920928997393 651.9361438867932" stroke-opacity="1" stroke-linecap="round" stroke-miterlimit="10" stroke-width="4" stroke-dasharray=""/><path fill="none" stroke="rgb(0,0,0)" paint-order="fill stroke markers" d=" M 711.866875545157 424.50215179864625 L 623.142262556295 524.0661206117287" stroke-opacity="1" stroke-linecap="round" stroke-miterlimit="10" stroke-width="4" stroke-dasharray=""/><path fill="none" stroke="rgb(0,0,0)" paint-order="fill stroke markers" d=" M 710.7482883822395 324.5674833123319 L 498.03565540647793 159.0663294957723" stroke-opacity="1" stroke-linecap="round" stroke-miterlimit="10" stroke-width="4" stroke-dasharray=""/><path fill="none" stroke="rgb(0,0,0)" paint-order="fill stroke markers" d=" M 765.9155386269499 304.80154931344674 L 773.6559310752914 57.50816724333197" stroke-opacity="1" stroke-linecap="round" stroke-miterlimit="10" stroke-width="4" stroke-dasharray=""/><path fill="none" stroke="rgb(0,0,0)" paint-order="fill stroke markers" d=" M 948.065635882989 297.45074510072897 L 1249.9660550608069 185.0177605887644" stroke-opacity="1" stroke-linecap="round" stroke-miterlimit="10" stroke-width="4" stroke-dasharray=""/><path fill="none" stroke="rgb(0,0,0)" paint-order="fill stroke markers" d=" M 851.2428253567602 524.7265720732164 L 909.4000688789325 630.5358448443943" stroke-opacity="1" stroke-linecap="round" stroke-miterlimit="10" stroke-width="4" stroke-dasharray=""/><path fill="none" stroke="rgb(0,0,0)" paint-order="fill stroke markers" d=" M 712.6582795111301 500.1807434112104 L 587.5426435778186 827.1684033891706" stroke-opacity="1" stroke-linecap="round" stroke-miterlimit="10" stroke-width="4" stroke-dasharray=""/><path fill="none" stroke="rgb(0,0,0)" paint-order="fill stroke markers" d=" M 592.4394680259883 390.0784398177556 L 249.56586318464542 438.20058868425497" stroke-opacity="1" stroke-linecap="round" stroke-miterlimit="10" stroke-width="4" stroke-dasharray=""/><path fill="none" stroke="rgb(0,0,0)" paint-order="fill stroke markers" d=" M 709.3837864720474 276.99183816233386 L 532.9285750388373 -10.577603251038" stroke-opacity="1" stroke-linecap="round" stroke-miterlimit="10" stroke-width="4" stroke-dasharray=""/><path fill="rgb(255,255,255)" stroke="rgb(0,0,0)" paint-order="fill stroke markers" d=" M 587.9907431304455 399.25 L 582.9913146458566 399.25 C 561.3000596321019 403.23452829927055 558.0112831555283 401.2198994364801 579.75 397.5030190516263 C 561.6665807785112 400.5949175604627 561.404774673869 367.6600111582467 579.75 367.5096952823769 C 576.3738568328123 367.5373584976395 576.3773300766159 357.3449667451908 579.75 357.5005479996112 C 575.9149719405933 357.3236381656298 575.9728345007074 331.80880607055065 579.75 332.4956525575835 C 575.9877644217885 331.8115209539329 576.1053629150981 306.34288595193095 579.75 307.5000692202302 C 560.7446604841302 301.46581659540306 561.5874404106298 274.2783231130359 579.75 282.5085457112582 C 560.2236794647623 273.66034544859815 560.4258094684623 268.22390982580873 579.75 277.5052621967625 C 560.9696213236675 268.48510107433344 535.9886899242493 263.72312147952994 554.9981158124283 272.25 C 541.3640722674651 266.13430593671984 526.2276870031047 273.78788486099796 540.1595349264462 279.1908905710152 C 516.4350895773014 269.99015033944386 509.9795248248447 291.16161305568556 534.3883224331412 298.3528248625116 C 514.7285905357323 292.5607617544285 511.6220104774747 302.9551205799971 531.5061905163966 307.92225632464397 C 511.23194280546596 302.8576803499914 502.1112444396046 334.12006955126503 522.8553622500564 336.64526782334224 C 498.49653744197246 333.68004833908856 495.5137287524261 344.23564352639204 519.9721396626555 346.218320597196 C 501.48182152777787 344.71943622844253 497.0984945775178 360.1810102795415 515.645058092683 360.58536267266027 C 489.32399278817985 360.0115105012535 482.17607302276633 386.4298492019707 508.4344892672598 384.52633628909825 C 485.33306793193816 386.2009937934979 481.07977199789644 407.2051838720319 504 403.8670266257832 C 494.6582324567845 405.2275841653633 494.7157203366975 415.5786420728102 504 413.86928874959995 C 499.6004271511782 414.67930576142743 499.61618091696016 419.7562472069549 504 418.8649004401377 L 504 423.87086539308075 L 504 428.8659148652805 L 504 433.8697048202157 C 500.17691538493654 434.86767260608906 507.31099331713244 437.8145572129985 511.11607329209073 436.75 C 499.8609467813937 439.89887628881047 524.963978332953 440.21546813473276 536.1256908028736 436.75 C 533.0149214051406 437.7158260102468 539.1628333445367 441.65550232803616 542.25 440.6167010143399 C 536.6439995242982 442.50306521448283 536.7237843958084 452.7237139152715 542.25 450.615028939952 C 527.2173266731899 456.3511736461206 531.1424545364205 479.2891320188054 545.610876836814 472.25 C 527.7956806821943 480.9173940716999 548.1618511920879 481.604046999712 565.6262933174148 472.25 C 562.6001533395341 473.8708164782861 576.7700422024823 473.07670315934695 579.75 471.3724670410156 C 554.4326935324734 485.8514197754348 553.5655618404967 469.22642478311514 579.75 456.38192100416927 C 577.0781057408982 457.69259094098135 577.3406593761367 437.81868495110155 580.1182099319994 436.75 C 570.5249829048828 440.4410713775274 583.276763590953 427.96018136299506 593 424.6266117384657 C 574.0118584072412 431.1366141056802 573.5501025567239 414.59657882864616 593 409.6336017569847 L 587.9907431304455 399.25 M 525.1785990678472 394.46226258343086 L 526.6101976007922 389.6644729054533 L 528.040771484375 384.8701171875 C 523.8496165933503 385.2052919735939 529.5535001455389 365.7042626401117 533.7580326199532 365.7095663547516 C 528.9514341370798 365.7035031772409 536.12614745984 341.23960748134004 540.9046236844733 341.7588287331164 C 513.5061758913754 338.78175912114955 514.8431114768224 339.6511440220472 542.25 342.549479134439 C 530.2909252402663 341.2847822587415 530.2462794525649 351.82820134234476 542.25 352.55595151608577 C 532.2592983903177 351.95024474346394 532.242160218479 362.40181895686027 542.25 362.55719674006104 C 518.787947377231 362.1929341413935 518.8168494718141 378.76349753623344 542.25 377.5436381846084 C 537.0995729900509 377.81175392710713 537.1069093034598 382.93750931682246 542.25 382.55357895419 C 515.5723974824162 384.54505493878224 512.4780035887414 403.1598769629315 538.942570745945 399.25 C 510.1791419236532 403.4995109426563 500.16349136829814 403.32251739683693 528.9525132849813 399.25 L 525.1785990678472 394.46226258343086 Z" fill-opacity="1" stroke-opacity="1" stroke-linecap="round" stroke-miterlimit="10" stroke-width="4" stroke-dasharray=""/><path fill="rgb(255,255,255)" stroke="none" paint-order="stroke fill markers" d=" M 541.8647377307473 398.10563546762603 L 526.2049341619677 400.36897690985256 L 521.2071059416708 400.34567133758515 L 536.8736503293921 398.1294698024319 Z" fill-opacity="1"/><path fill="none" stroke="rgb(0,0,0)" paint-order="fill stroke markers" d=" M 541.8647377307473 398.10563546762603 L 526.2049341619677 400.36897690985256" stroke-opacity="1" stroke-linecap="round" stroke-miterlimit="10" stroke-width="4" stroke-dasharray=""/><path fill="none" stroke="rgb(0,0,0)" paint-order="fill stroke markers" d=" M 536.8736503293921 398.1294698024319 L 521.2071059416708 400.34567133758515" stroke-opacity="1" stroke-linecap="round" stroke-miterlimit="10" stroke-width="4" stroke-dasharray=""/><path fill="rgb(255,255,255)" stroke="rgb(0,0,0)" paint-order="fill stroke markers" d=" M 640.011414823628 269.91103407838455 L 635.0257378088099 270.4363039766358 L 630.1311062737659 271.38431795008364 L 625.3399021508812 272.8308021000412 L 620.757900756551 274.83067280915566 L 616.4912398438901 277.4118612278253 L 600.1213746316427 273.5188021417534 L 609.2397455126047 284.25965379178524 L 606.3845318555832 288.35983669757843 L 604.0445200940558 292.77306074856097 L 602.1755772661418 297.4141534585506 L 600.7297237129824 302.19164457931765 L 599.6428182617346 307.0790847542121 L 598.8691301303879 312.015660376961 L 598.3617639311319 316.9824271408638 L 598.0823175604746 321.9716677542019 L 598 326.97974126040936 L 598 331.96939921565354 L 598 336.96793080843054 C 589.5824338423934 335.49576597040493 589.4672763711675 356.5086465351309 598 356.9726689505005 C 584.769623787419 356.2531810831488 584.7789366100301 377.84866560239345 598 376.9745944633614 C 571.7293160548696 378.71140231018643 572.1186140544843 401.80157415047853 598 396.97257860471655 C 588.7753651863577 398.6937275617367 589.172632030167 424.9785123426188 598.0641335999567 421.9789388709828 C 573.9854872644559 430.10193904299786 576.2068825805947 446.93913964474115 599.5435153197905 436.88101290361374 C 596.3250971675997 438.26815637210177 598.8590854113303 448.1269095553799 601.9970795723202 446.56634073276655 C 586.9392572481601 454.05480847679905 594.5155628671243 468.51859410211324 608.9050110334938 459.81463271853863 C 602.2901304892082 463.8158747501118 613.9963741466821 473.92943659454556 620.2717040353709 469.4142602747852 C 614.6648334584512 473.4484719745559 619.3213312234975 475.65024681526825 624.8263196379412 471.4780813988764 C 614.1644168031132 479.5586110805897 634.5513333990189 483.75005595503706 644.4476154385666 474.7481265068527 C 622.4779945482198 494.7322959624048 627.9001831264909 495.0581320099377 649.4506552817734 474.62266233639775 C 635.3453058888398 487.99821335342375 640.5811537462401 487.79684905292396 654.417064916157 474.1427724234345 C 634.765524757222 493.5360477865346 640.0643514715854 492.9997553786065 659.3473605396284 473.24000534959487 C 653.035577255027 479.70783718543174 662.6445522366998 476.58003096955025 668.7509148775098 469.9179147751747 C 656.0948460822705 483.72584035011425 664.5618723352765 478.3203894566073 676.9777174788942 464.29606503784817 C 659.6553251901119 483.86258236766315 671.5508425237304 456.2069474282042 690.2548217773438 437.95660400390625 C 688.1372552251516 440.02281228382867 689.445600163528 409.5688138339859 692 408.0760492060508 C 684.7173815963508 412.33193546022903 683.6810468611311 379.46203121772515 692 378.0677151506243 C 678.0778093391897 380.40117391683737 677.8894584515256 368.4791739913051 692 368.0729230610341 C 686.2755566867883 368.23773320763877 686.2779039069779 362.842767449908 692 363.07521084693144 C 668.6567521538306 362.1269597622388 670.7534092372534 323.36130558068567 692 333.0766944605857 C 683.1679214311483 329.03806638738547 683.608701518026 318.1027995149343 691.9517883690532 323.07361739092084 C 688.969405761222 321.2967114273669 685.5789279457014 296.1286776186413 688.1709450184462 298.43810359004783 C 673.9106952271128 285.7325579464092 660.7667665630195 264.68119579990184 674.397855451698 278.05950024862614 C 653.9535180283584 257.99429690826406 644.8489117328448 253.55839042451606 665.6826551594713 273.21897161132074 C 654.0125495696474 262.20601759202145 649.10063415156 260.82342243156535 660.9366477967706 271.6578721960541 L 640.011414823628 269.91103407838455 M 649.8440715074539 308.22925996780396 L 652.9136597809847 312.05495308246464 L 653.996785691008 316.9156633242965 L 654.3769562300295 321.89866103976965 L 654.4907833321486 326.8912351215258 L 654.5 331.90067875012755 L 654.5 336.88877296447754 L 652.7380934699904 341.3978725822526 L 650.1410162001848 345.669381249696 C 620.7507029546334 340.42145760233706 615.2343291503264 351.27602592754175 644.9443362206221 354.2165522687137 C 615.5091537729239 351.30322649467854 610.1832125093271 361.9844109051724 639.7521412705537 362.75634659448406 C 623.240069217649 362.3252772843629 619.1432484765337 345.6290377410079 635.5 347.9292603019858 C 615.4710979877595 345.1126293704665 616.408533666117 316.50107377916004 635.5847894698381 322.93236750364304 C 620.5417253354096 317.8872552066965 624.8774436742937 302.1820786100206 639.2990545779467 308.79752081632614 L 649.8440715074539 308.22925996780396 M 640.1559284925461 436.27074003219604 L 637.0863402190153 432.44504691753536 L 636.003214308992 427.5843366757035 L 635.6230437699705 422.60133896023035 L 618.1034289801712 424.5998593445733 L 635.5 412.59932124987245 C 618.841637949353 418.6403201969136 630.1904886744795 389.0133656669532 647.6539881930221 386.0098878404242 C 630.7054697748288 388.9247961156821 637.7533143212571 395.4850007410347 654.5 391.57380072027445 C 629.4632840066416 397.42114305364663 630.0471022393481 409.5093506127382 654.5 401.5667848306475 C 637.1692558474198 407.1959980564906 637.4132505541688 412.90549067004173 654.5 406.5741615994921 C 643.2948250558223 410.7261303568952 643.6486011658727 421.5798960300038 654.4972874883097 416.5698266522959 C 650.124307215329 418.58932780698126 649.8916918016356 428.8913470905109 654.1101696997357 426.5663125520805 L 653.2353503201157 431.48518904298544 L 650.7009454220533 435.70247918367386 L 640.1559284925461 436.27074003219604 Z" fill-opacity="1" stroke-opacity="1" stroke-linecap="round" stroke-miterlimit="10" stroke-width="4" stroke-dasharray=""/><path fill="rgb(255,255,255)" stroke="none" paint-order="stroke fill markers" d=" M 619.5913150718044 284.5062229239791 L 610.4543228965083 279.3499679255407 L 607.0366605438394 283.0960415408913 L 616.3136661306546 287.9959149027795 Z" fill-opacity="1"/><path fill="none" stroke="rgb(0,0,0)" paint-order="fill stroke markers" d=" M 619.5913150718044 284.5062229239791 L 610.4543228965083 279.3499679255407" stroke-opacity="1" stroke-linecap="round" stroke-miterlimit="10" stroke-width="4" stroke-dasharray=""/><path fill="none" stroke="rgb(0,0,0)" paint-order="fill stroke markers" d=" M 616.3136661306546 287.9959149027795 L 607.0366605438394 283.0960415408913" stroke-opacity="1" stroke-linecap="round" stroke-miterlimit="10" stroke-width="4" stroke-dasharray=""/><path fill="rgb(255,255,255)" stroke="none" paint-order="stroke fill markers" d=" M 699.4584248378151 340.9617234818545 L 685.2237123015806 335.4395051637714 L 685.3899514879314 330.05412992179146 L 699.275451131314 336.4035264124375 Z" fill-opacity="1"/><path fill="none" stroke="rgb(0,0,0)" paint-order="fill stroke markers" d=" M 699.4584248378151 340.9617234818545 L 685.2237123015806 335.4395051637714" stroke-opacity="1" stroke-linecap="round" stroke-miterlimit="10" stroke-width="4" stroke-dasharray=""/><path fill="none" stroke="rgb(0,0,0)" paint-order="fill stroke markers" d=" M 699.275451131314 336.4035264124375 L 685.3899514879314 330.05412992179146" stroke-opacity="1" stroke-linecap="round" stroke-miterlimit="10" stroke-width="4" stroke-dasharray=""/><path fill="rgb(255,255,255)" stroke="none" paint-order="stroke fill markers" d=" M 655.4647948454916 351.0401699472394 L 643.6017829008177 349.40504480647473 L 640.9884949408622 353.8250257552024 L 652.9054381433058 355.0044965412619 Z" fill-opacity="1"/><path fill="none" stroke="rgb(0,0,0)" paint-order="fill stroke markers" d=" M 655.4647948454916 351.0401699472394 L 643.6017829008177 349.40504480647473" stroke-opacity="1" stroke-linecap="round" stroke-miterlimit="10" stroke-width="4" stroke-dasharray=""/><path fill="none" stroke="rgb(0,0,0)" paint-order="fill stroke markers" d=" M 652.9054381433058 355.0044965412619 L 640.9884949408622 353.8250257552024" stroke-opacity="1" stroke-linecap="round" stroke-miterlimit="10" stroke-width="4" stroke-dasharray=""/><path fill="rgb(255,255,255)" stroke="none" paint-order="stroke fill markers" d=" M 651.8578081648311 433.14055005506805 L 642.1492649278093 438.9531431790294 L 637.2722355159365 437.9069850056166 L 647.1138773542306 432.32270917641694 Z" fill-opacity="1"/><path fill="none" stroke="rgb(0,0,0)" paint-order="fill stroke markers" d=" M 651.8578081648311 433.14055005506805 L 642.1492649278093 438.9531431790294" stroke-opacity="1" stroke-linecap="round" stroke-miterlimit="10" stroke-width="4" stroke-dasharray=""/><path fill="none" stroke="rgb(0,0,0)" paint-order="fill stroke markers" d=" M 647.1138773542306 432.32270917641694 L 637.2722355159365 437.9069850056166" stroke-opacity="1" stroke-linecap="round" stroke-miterlimit="10" stroke-width="4" stroke-dasharray=""/><path fill="rgb(255,255,255)" stroke="none" paint-order="stroke fill markers" d=" M 652.8939788232224 388.6831923537162 L 639.7526983789343 391.36609098454414 L 642.3199491881725 386.9272679943788 L 655.5382331425872 384.653907908693 Z" fill-opacity="1"/><path fill="none" stroke="rgb(0,0,0)" paint-order="fill stroke markers" d=" M 652.8939788232224 388.6831923537162 L 639.7526983789343 391.36609098454414" stroke-opacity="1" stroke-linecap="round" stroke-miterlimit="10" stroke-width="4" stroke-dasharray=""/><path fill="none" stroke="rgb(0,0,0)" paint-order="fill stroke markers" d=" M 655.5382331425872 384.653907908693 L 642.3199491881725 386.9272679943788" stroke-opacity="1" stroke-linecap="round" stroke-miterlimit="10" stroke-width="4" stroke-dasharray=""/><path fill="rgb(255,255,255)" stroke="rgb(0,0,0)" paint-order="fill stroke markers" d=" M 972.011414823628 269.91103407838455 L 967.0257378088099 270.4363039766358 L 962.1311062737659 271.38431795008364 L 957.3399021508812 272.8308021000412 L 952.757900756551 274.83067280915566 L 948.4912398438901 277.4118612278253 L 944.6241577567707 280.574465181242 L 941.2397455126047 284.25965379178524 L 938.3845318555832 288.35983669757843 L 936.0445200940558 292.77306074856097 C 950.8531773249803 286.4700838048521 945.7997978553431 312.4336959011836 930.3617639311319 316.9824271408638 C 949.5275501710869 311.3353343160455 949.5733492566585 327.9567917785094 930 331.96939921565354 C 939.7719668090266 329.9661106532688 939.9103139956311 345.8382364088373 930 346.97409594632336 C 936.2572046179521 346.2569334480982 936.2844498572742 377.3900721055838 930 376.9745944633614 C 956.2382896150449 378.7092606557551 956.1745639676968 384.500048558947 930 381.9803045594599 C 934.3495353081028 382.39902081798766 934.2423072740543 408.0234220845617 930 406.97623074860894 C 947.2480504368426 411.23382168031804 946.8991351170397 427.65388806312995 930.0641335999567 421.9789388709828 C 958.2288481423041 431.47304695745737 958.2264401727767 437.2007281351987 930.3205595519394 426.97081804834306 C 941.7109856746366 431.14639081271434 942.7164450037585 441.6078360909446 931.5435153197905 436.88101290361374 C 939.7708254830537 440.36166135921775 948.7972027776818 463.99994700387055 940.9050110334938 459.81463271853863 C 967.3453255090726 473.836216262147 978.5031868613283 483.822741922391 952.2717040353709 469.4142602747852 C 963.2093385733626 475.42210617333745 972.5689559581407 478.92305399487896 961.5951085090455 472.98161193159103 L 966.4921252180065 473.98278829592164 L 971.4662135309081 474.5505070974068 L 976.4476154385666 474.7481265068527 L 981.4506552817734 474.62266233639775 L 986.417064916157 474.1427724234345 L 991.3473605396284 473.24000534959487 C 1006.0203238065353 480.1612586049773 1020.0179697988899 473.68689083135337 1005.0635850796643 467.39674176105837 C 1009.6174153609285 469.31218474636216 1017.0371125193526 462.4186286530197 1012.4206313680334 460.6595397297351 C 1017.4417026968244 462.5727958804668 1022.8079326822752 453.9573044071129 1017.7204716753513 452.2283027037738 C 1027.078080276275 455.4085376359252 1031.7754287514467 440.6092961828852 1022.2548217773438 437.95660400390625 C 1029.6724535498327 440.0233518323745 1031.0836892047826 429.8512980062691 1023.5945558390704 428.0608820966845 C 1035.4042813868614 430.8842155153946 1035.9483390475716 415.22775772077523 1024 413.0648839122441 C 1035.9676496651389 415.2312533052909 1036.1360154290549 383.8677923535942 1024 383.0709709430048 C 1045.3260063632347 384.4711849236091 1045.3712450371584 368.24331131749767 1024 368.0729230610341 C 1052.7246044672847 368.30193804187763 1052.7121557841224 357.19098981952584 1024 358.06703770160675 C 1027.4670712504208 357.9612525265474 1027.4604669991215 347.8324658360705 1024 348.07109045078323 C 1030.548038014853 347.61955513811733 1030.1718277650286 316.87465373969576 1023.717251498485 318.0659266731236 C 1045.7747744810845 313.9949343999617 1045.2402562623047 308.6146669903301 1023.2630359946343 313.09898271542625 C 1032.9052619187728 311.131546214817 1027.8711459152323 291.08754183530084 1018.404355329898 293.7751435858372 C 1021.2189280331962 292.9760923703054 1012.9233785313792 280.3843519901063 1010.1566540745553 281.33594966097735 C 1035.4407401689737 272.6396454886528 1017.6577012274886 261.47061382281487 992.9366477967706 271.6578721960541 L 972.011414823628 269.91103407838455 M 981.8440715074539 308.22925996780396 L 984.9136597809847 312.05495308246464 L 985.996785691008 316.9156633242965 C 992.7546969907354 315.4214633410496 989.0322786805311 345.0271195025167 982.1410162001848 345.669381249696 C 986.1049370348078 345.2999460804239 980.9193542021062 353.99659142144696 976.9443362206221 354.2165522687137 C 982.1824198406745 353.92669865887154 972.7419737728708 357.7188935468103 967.5 357.92685049027205 C 973.435050542432 357.6913981542679 973.4164381806775 347.40388234472573 967.5 347.9292603019858 C 984.130389700816 346.45248662454117 983.9191229794911 319.4768977973913 967.5847894698381 322.93236750364304 C 975.7307780198079 321.20911282384486 976.8254251423101 310.92899334944707 968.7646496798843 313.01481095701456 L 981.8440715074539 308.22925996780396 M 972.1559284925461 436.27074003219604 L 969.0863402190153 432.44504691753536 L 968.003214308992 427.5843366757035 L 967.6230437699705 422.60133896023035 L 967.5092166678514 417.6087648784742 L 967.5 412.59932124987245 L 967.5 407.61122703552246 L 969.2619065300096 403.1021274177474 L 971.8589837998152 398.830618750304 L 974.4602783546725 394.55217375876236 C 987.3922649317947 396.30659663932954 992.6486210935873 387.21562091796443 979.6539881930221 386.0098878404242 C 1009.2155455263766 388.7528162304118 1016.1160728285704 383.6475310475283 986.5 381.574475732632 C 1006.146651724425 382.9496950607647 1006.065906957624 393.8226753514911 986.5 391.57380072027445 C 991.4517021270598 392.14294158959393 991.4218177653173 402.35354093597203 986.5 401.5667848306475 C 1010.0036354438303 405.323857839945 1009.7073748119496 421.8450823904261 986.4972874883097 416.5698266522959 L 972.1559284925461 436.27074003219604 Z" fill-opacity="1" stroke-opacity="1" stroke-linecap="round" stroke-miterlimit="10" stroke-width="4" stroke-dasharray=""/><path fill="rgb(255,255,255)" stroke="none" paint-order="stroke fill markers" d=" M 923.2575374869449 314.47810985467316 L 943.9295612597564 307.79044059448705 L 943.5289835323083 313.10277877154203 L 922.6879351839672 319.2434783033076 Z" fill-opacity="1"/><path fill="none" stroke="rgb(0,0,0)" paint-order="fill stroke markers" d=" M 923.2575374869449 314.47810985467316 L 943.9295612597564 307.79044059448705" stroke-opacity="1" stroke-linecap="round" stroke-miterlimit="10" stroke-width="4" stroke-dasharray=""/><path fill="none" stroke="rgb(0,0,0)" paint-order="fill stroke markers" d=" M 922.6879351839672 319.2434783033076 L 943.5289835323083 313.10277877154203" stroke-opacity="1" stroke-linecap="round" stroke-miterlimit="10" stroke-width="4" stroke-dasharray=""/><path fill="rgb(255,255,255)" stroke="none" paint-order="stroke fill markers" d=" M 954.5600412237815 469.1726976122859 L 970.6497026315488 477.8839350807866 L 975.5775375913826 478.82775774764315 L 959.433113351067 470.2184355677083 Z" fill-opacity="1"/><path fill="none" stroke="rgb(0,0,0)" paint-order="fill stroke markers" d=" M 954.5600412237815 469.1726976122859 L 970.6497026315488 477.8839350807866" stroke-opacity="1" stroke-linecap="round" stroke-miterlimit="10" stroke-width="4" stroke-dasharray=""/><path fill="none" stroke="rgb(0,0,0)" paint-order="fill stroke markers" d=" M 959.433113351067 470.2184355677083 L 975.5775375913826 478.82775774764315" stroke-opacity="1" stroke-linecap="round" stroke-miterlimit="10" stroke-width="4" stroke-dasharray=""/><path fill="rgb(255,255,255)" stroke="none" paint-order="stroke fill markers" d=" M 1016.0586815795044 324.3770226267466 L 1037.5521389481582 320.82776304908634 L 1037.2728452047477 315.5640719870897 L 1015.8501198317725 319.5179044066343 Z" fill-opacity="1"/><path fill="none" stroke="rgb(0,0,0)" paint-order="fill stroke markers" d=" M 1016.0586815795044 324.3770226267466 L 1037.5521389481582 320.82776304908634" stroke-opacity="1" stroke-linecap="round" stroke-miterlimit="10" stroke-width="4" stroke-dasharray=""/><path fill="none" stroke="rgb(0,0,0)" paint-order="fill stroke markers" d=" M 1015.8501198317725 319.5179044066343 L 1037.2728452047477 315.5640719870897" stroke-opacity="1" stroke-linecap="round" stroke-miterlimit="10" stroke-width="4" stroke-dasharray=""/><path fill="rgb(255,255,255)" stroke="none" paint-order="stroke fill markers" d=" M 969.4071896691692 434.7120994637418 L 983.1063300770877 439.29468831952977 L 978.2626353943338 438.33228503000623 L 964.5761901359672 433.7119187321037 Z" fill-opacity="1"/><path fill="none" stroke="rgb(0,0,0)" paint-order="fill stroke markers" d=" M 969.4071896691692 434.7120994637418 L 983.1063300770877 439.29468831952977" stroke-opacity="1" stroke-linecap="round" stroke-miterlimit="10" stroke-width="4" stroke-dasharray=""/><path fill="none" stroke="rgb(0,0,0)" paint-order="fill stroke markers" d=" M 964.5761901359672 433.7119187321037 L 978.2626353943338 438.33228503000623" stroke-opacity="1" stroke-linecap="round" stroke-miterlimit="10" stroke-width="4" stroke-dasharray=""/><path fill="rgb(255,255,255)" stroke="none" paint-order="stroke fill markers" d=" M 969.1071259552662 389.3774971483821 L 989.4114317836769 391.69172123685706 L 992.0365634236291 387.1588299194285 L 971.6882051234351 385.270766681019 Z" fill-opacity="1"/><path fill="none" stroke="rgb(0,0,0)" paint-order="fill stroke markers" d=" M 969.1071259552662 389.3774971483821 L 989.4114317836769 391.69172123685706" stroke-opacity="1" stroke-linecap="round" stroke-miterlimit="10" stroke-width="4" stroke-dasharray=""/><path fill="none" stroke="rgb(0,0,0)" paint-order="fill stroke markers" d=" M 971.6882051234351 385.270766681019 L 992.0365634236291 387.1588299194285" stroke-opacity="1" stroke-linecap="round" stroke-miterlimit="10" stroke-width="4" stroke-dasharray=""/><g><text fill="none" stroke="rgb(0,0,0)" font-family="sans-serif" font-size="12px" font-style="normal" font-weight="normal" text-decoration="normal" x="694.5" y="472.25" text-anchor="start" dominant-baseline="alphabetic" transform="matrix(1 0 0 1 0 0)" stroke-opacity="1" stroke-linecap="round" stroke-miterlimit="10" stroke-width="8" stroke-dasharray=""> </text><text fill="rgb(255,255,255)" stroke="none" font-family="sans-serif" font-size="12px" font-style="normal" font-weight="normal" text-decoration="normal" x="694.5" y="472.25" text-anchor="start" dominant-baseline="alphabetic" transform="matrix(1 0 0 1 0 0)" fill-opacity="1"> </text></g><path fill="rgb(255,255,255)" stroke="rgb(0,0,0)" paint-order="fill stroke markers" d=" M 873.011414823628 269.91103407838455 L 868.0257378088099 270.4363039766358 L 863.1311062737659 271.38431795008364 L 858.3399021508812 272.8308021000412 L 853.757900756551 274.83067280915566 L 849.4912398438901 277.4118612278253 L 845.6241577567707 280.574465181242 L 842.2397455126047 284.25965379178524 L 839.3845318555832 288.35983669757843 L 837.0445200940558 292.77306074856097 L 835.1755772661418 297.4141534585506 L 833.7297237129824 302.19164457931765 L 832.6428182617346 307.0790847542121 L 831.8691301303879 312.015660376961 L 831.3617639311319 316.9824271408638 L 831.0823175604746 321.9716677542019 L 831 326.97974126040936 C 837.6360811891786 323.1149411855037 838.6106984989341 355.9472317136676 831 356.9726689505005 C 835.4739613114788 356.36986402719646 835.496493696478 372.3849568002968 831 371.98339979350567 C 853.3280043374348 373.9773904881624 850.7496888431996 412.58192769426194 831 401.9769492794003 C 843.1110067567574 408.480189216868 841.9400245353163 425.30075398623524 831 416.9770242024679 C 841.5639998962866 425.0146552231824 841.2546854909567 430.48506950663216 831.0641335999567 421.9789388709828 C 846.0010908496085 434.44692991049254 847.8607990407736 461.163882096851 834.9970795723202 446.56634073276655 C 850.3934918566941 464.0379410526285 864.0563456044131 484.55941607065483 849.0370171871036 466.76261571608484 C 857.5594939989305 476.86112439319294 871.550261327458 482.698490365977 862.5951085090455 472.98161193159103 C 870.1293720488651 481.1567401950116 875.1846872853033 482.00914102001866 867.4921252180065 473.98278829592164 C 882.1395009060546 489.26573339615555 908.5919256108032 486.8130717360808 892.3473605396284 473.24000534959487 C 914.6205438193304 491.85025400624914 924.9217968802044 487.39779680254827 901.7509148775098 469.9179147751747 C 906.6623931827264 473.6230849687482 921.6180600640602 459.748218987261 916.3303626476591 456.60319731189156 C 941.4599447446662 471.5497939425765 951.8675405693706 438.60037691908656 924.5945558390704 428.0608820966845 C 944.9702792533013 435.93496825009316 946.4236160970177 402.3265458943575 925 398.06039883499034 C 936.4348821306606 400.33746021225795 936.5944038258472 384.3003357306601 925 383.0709709430048 C 950.2032434156039 385.74329290584484 950.3138115215093 356.8197488045337 925 358.06703770160675 C 940.9131021267686 357.28295050146926 940.507887141224 324.41812169720254 925 328.0714829508215 C 940.3286372511195 324.46034953889756 937.1827373215982 297.46810020565863 922.5393424648682 303.2627866997682 C 940.705213360679 296.0741854386806 924.0520353086341 267.84611947696214 907.397855451698 278.05950024862614 C 918.8311384710947 271.0478987197363 889.3908782968554 261.15422759743547 879.1017472039384 269.7575001116784 L 873.011414823628 269.91103407838455 M 882.8440715074539 308.22925996780396 L 885.9136597809847 312.05495308246464 L 886.996785691008 316.9156633242965 C 909.5932238244769 307.89810102960973 907.1236572903742 341.5769037118952 883.1410162001848 345.669381249696 C 904.3452837619215 342.0510145996016 891.6626497877154 367.2404340710485 870.1528878360987 367.03143448010087 C 873.6913783957555 367.0658162218051 872.0371270804328 362.8214590867745 868.5 362.925524267368 C 898.4232875484579 362.04515659838904 897.4110949721322 330.15880727834616 868.5 337.9258384005079 C 887.7264381126877 332.7606122707641 887.5641339541288 304.0977574614186 869.7646496798843 313.01481095701456 L 882.8440715074539 308.22925996780396 M 873.1559284925461 436.27074003219604 L 870.0863402190153 432.44504691753536 L 869.003214308992 427.5843366757035 L 868.6230437699705 422.60133896023035 L 868.5092166678514 417.6087648784742 L 868.5 412.59932124987245 L 868.5 407.61122703552246 L 898.1835039913153 412.8511588490991 L 872.8589837998152 398.830618750304 C 897.0465525260014 406.1253115687349 902.765452135177 395.54437765011846 878.0556637793779 390.2834477312863 C 887.3977492938097 392.2724593925549 896.9216456714043 388.1426468783553 887.5 386.57314950972795 C 910.8892620641742 390.4694311726305 909.4404566223777 425.5551435113149 887.4972874883097 416.5698266522959 C 910.863896213884 426.1380153691224 908.4923286273225 443.40892819173484 886.2353503201157 431.48518904298544 L 873.1559284925461 436.27074003219604 Z" fill-opacity="1" stroke-opacity="1" stroke-linecap="round" stroke-miterlimit="10" stroke-width="4" stroke-dasharray=""/><path fill="rgb(255,255,255)" stroke="none" paint-order="stroke fill markers" d=" M 831.3947250566205 298.4369654118627 L 844.2232341917428 285.5764187491627 L 842.4951897104696 290.36086586844954 L 829.4148923438605 302.96523526538795 Z" fill-opacity="1"/><path fill="none" stroke="rgb(0,0,0)" paint-order="fill stroke markers" d=" M 831.3947250566205 298.4369654118627 L 844.2232341917428 285.5764187491627" stroke-opacity="1" stroke-linecap="round" stroke-miterlimit="10" stroke-width="4" stroke-dasharray=""/><path fill="none" stroke="rgb(0,0,0)" paint-order="fill stroke markers" d=" M 829.4148923438605 302.96523526538795 L 842.4951897104696 290.36086586844954" stroke-opacity="1" stroke-linecap="round" stroke-miterlimit="10" stroke-width="4" stroke-dasharray=""/><path fill="rgb(255,255,255)" stroke="none" paint-order="stroke fill markers" d=" M 826.5724468445925 312.2897076400045 L 839.7158865509855 301.0077772561786 L 839.1642208620103 306.21301262119647 L 825.6082107596533 316.9957094362736 Z" fill-opacity="1"/><path fill="none" stroke="rgb(0,0,0)" paint-order="fill stroke markers" d=" M 826.5724468445925 312.2897076400045 L 839.7158865509855 301.0077772561786" stroke-opacity="1" stroke-linecap="round" stroke-miterlimit="10" stroke-width="4" stroke-dasharray=""/><path fill="none" stroke="rgb(0,0,0)" paint-order="fill stroke markers" d=" M 825.6082107596533 316.9957094362736 L 839.1642208620103 306.21301262119647" stroke-opacity="1" stroke-linecap="round" stroke-miterlimit="10" stroke-width="4" stroke-dasharray=""/><path fill="rgb(255,255,255)" stroke="none" paint-order="stroke fill markers" d=" M 906.6626200384554 456.37826855527106 L 914.8094110280175 461.5393462343424 L 917.743332442945 457.4436048244381 L 909.4546384705045 452.5136475763225 Z" fill-opacity="1"/><path fill="none" stroke="rgb(0,0,0)" paint-order="fill stroke markers" d=" M 906.6626200384554 456.37826855527106 L 914.8094110280175 461.5393462343424" stroke-opacity="1" stroke-linecap="round" stroke-miterlimit="10" stroke-width="4" stroke-dasharray=""/><path fill="none" stroke="rgb(0,0,0)" paint-order="fill stroke markers" d=" M 909.4546384705045 452.5136475763225 L 917.743332442945 457.4436048244381" stroke-opacity="1" stroke-linecap="round" stroke-miterlimit="10" stroke-width="4" stroke-dasharray=""/><path fill="rgb(255,255,255)" stroke="none" paint-order="stroke fill markers" d=" M 871.210073305621 433.00984604365595 L 879.299342364025 438.0659070787429 L 874.4502984659201 437.10400980655066 L 866.4292791786758 431.9403602557553 Z" fill-opacity="1"/><path fill="none" stroke="rgb(0,0,0)" paint-order="fill stroke markers" d=" M 871.210073305621 433.00984604365595 L 879.299342364025 438.0659070787429" stroke-opacity="1" stroke-linecap="round" stroke-miterlimit="10" stroke-width="4" stroke-dasharray=""/><path fill="none" stroke="rgb(0,0,0)" paint-order="fill stroke markers" d=" M 866.4292791786758 431.9403602557553 L 874.4502984659201 437.10400980655066" stroke-opacity="1" stroke-linecap="round" stroke-miterlimit="10" stroke-width="4" stroke-dasharray=""/><path fill="rgb(255,255,255)" stroke="rgb(0,0,0)" paint-order="fill stroke markers" d=" M 774.011414823628 269.91103407838455 L 769.0257378088099 270.4363039766358 L 764.1311062737659 271.38431795008364 L 759.3399021508812 272.8308021000412 L 754.757900756551 274.83067280915566 L 750.4912398438901 277.4118612278253 L 746.6241577567707 280.574465181242 L 743.2397455126047 284.25965379178524 C 740.4810678861764 273.39777999356096 731.9626386726266 287.02946506349616 736.1755772661418 297.4141534585506 C 727.8819033661898 276.970651330661 725.5311471997412 282.1390139254155 734.7297237129824 302.19164457931765 C 728.1885111134422 287.93199037103716 726.4574772145662 293.13289981179895 733.6428182617346 307.0790847542121 C 723.2759299321484 286.95776539405074 717.6467469625851 309.4776272830735 732 326.97974126040936 C 716.9044136546353 308.572438603473 715.692282234132 314.6268544345895 732 331.96939921565354 C 717.64371369683 316.70211646787357 716.4789310979484 322.8864074868218 732 336.96793080843054 C 716.7553078596537 323.13715090147093 714.3072481717454 336.4547022360145 732 346.97409594632336 C 723.1774992556465 341.7285943002121 722.1214538764459 354.185890633467 732 356.9726689505005 C 706.9901458568859 349.9172866739509 706.4567048171482 376.75951689108473 732 371.98339979350567 C 726.8750677215356 372.94166600402735 727.9521246401732 395.26323899086265 732 391.9772216354031 C 715.6461322586557 405.25309810143347 721.6262338034941 440.27506233694373 732.0641335999567 421.9789388709828 C 730.2498945515864 425.1590366179452 734.7950671809914 450.0246135988023 735.9970795723202 446.56634073276655 C 731.1255503582234 460.58206754119584 752.8819926579504 484.18724565824067 754.2717040353709 469.4142602747852 C 752.9873824235063 483.0669256468916 780.2535655399371 488.3416285573464 778.4476154385666 474.7481265068527 C 779.1824370726158 480.27917599798525 789.6459342962922 479.585414369566 788.417064916157 474.1427724234345 C 794.0604263405463 499.13712585274834 826.4667716828295 483.27492685956287 814.4206313680334 460.6595397297351 C 826.4685517120021 483.2782686809087 842.3164579851439 451.9785789433801 825.0590752942335 433.03281354208957 C 841.3154644104227 450.8796527751115 844.4852614320794 433.5999291016397 825.9996376518066 418.07377145847204 C 829.3173871917545 420.8603640555123 829.9708946903803 394.7974565722928 826 393.0640911550727 C 831.884406375125 395.6327380991029 832.4170206925229 368.28747128968996 826 368.0729230610341 C 836.343373307029 368.41874591679255 836.2654636807897 356.75356130878043 826 358.06703770160675 C 854.7745594578834 354.38530390592507 853.8673620258609 340.0125192711552 826 348.07109045078323 C 846.5146839149423 342.13873702591593 844.8609120356168 323.0611530138014 826 333.0766944605857 C 839.2432082017941 326.0442720420415 835.389275268254 297.7799523380839 824.5486063815188 308.1393648039084 C 827.2816488603809 305.5276519455076 817.4530849109996 281.9275170176749 815.4248271437827 285.11761665181257 C 827.1511580469462 266.6741206975041 807.527924603004 252.81992440745722 799.6826551594713 273.21897161132074 L 774.011414823628 269.91103407838455 M 783.8440715074539 308.22925996780396 L 786.9136597809847 312.05495308246464 L 787.996785691008 316.9156633242965 L 795.2972190601874 309.37893323262375 L 788.4907833321486 326.8912351215258 C 802.5311293349256 304.4705316598182 801.0548191889263 332.0878086751951 781.5397216453275 349.94782624123764 C 793.9234376467857 338.61437608426047 789.6811482059575 357.45820989208414 773.7521412705537 362.75634659448406 C 788.4971521516643 357.8520180545255 783.0638788511449 355.3433758367853 769.5 362.925524267368 C 786.9404600861865 353.17638403083765 774.1341706700757 323.4976846756919 769.5 342.9332151693525 C 771.7371516298252 333.5506887550416 771.0817794418937 323.4005669658492 769.5 332.915535338223 C 770.0029879264208 329.88988328786473 770.2628780461315 314.8892823232251 769.8898303002643 317.9336874479195 C 771.2690859733812 306.67772065541396 772.2007967967229 301.7659614111895 770.7646496798843 313.01481095701456 L 783.8440715074539 308.22925996780396 M 774.1559284925461 436.27074003219604 L 771.0863402190153 432.44504691753536 C 772.6458668843771 447.06794382150525 771.4299688788607 442.2207846287236 770.003214308992 427.5843366757035 C 771.3807958038576 441.71633966799124 777.9427560862626 412.4296644249633 773.8589837998152 398.830618750304 C 774.7964661755498 401.95245433577776 783.8104602403373 388.4541380192503 781.6539881930221 386.0098878404242 C 793.4021050205573 399.32577417074907 804.8051331943794 383.60263506162494 788.5 376.5688800709322 C 804.7694404885829 383.5872378401159 800.757512517937 404.36854286149855 788.5 391.57380072027445 C 803.0534587843074 406.76511724029916 799.37444710788 424.5832054468492 788.5 406.5741615994921 C 795.0256851412975 417.3812719452229 794.0011296890452 427.93142520256845 788.4972874883097 416.5698266522959 C 797.752853019949 435.6761193276513 784.6854933701677 457.9339977238008 780.0251601487398 437.2217499613762 L 774.1559284925461 436.27074003219604 Z" fill-opacity="1" stroke-opacity="1" stroke-linecap="round" stroke-miterlimit="10" stroke-width="4" stroke-dasharray=""/><path fill="rgb(255,255,255)" stroke="none" paint-order="stroke fill markers" d=" M 777.7630219342012 277.6546543421193 L 779.8013068106621 264.57082850640774 L 774.5545961745421 264.69761167638205 L 773.1823902252921 277.8679630221011 Z" fill-opacity="1"/><path fill="none" stroke="rgb(0,0,0)" paint-order="fill stroke markers" d=" M 777.7630219342012 277.6546543421193 L 779.8013068106621 264.57082850640774" stroke-opacity="1" stroke-linecap="round" stroke-miterlimit="10" stroke-width="4" stroke-dasharray=""/><path fill="none" stroke="rgb(0,0,0)" paint-order="fill stroke markers" d=" M 773.1823902252921 277.8679630221011 L 774.5545961745421 264.69761167638205" stroke-opacity="1" stroke-linecap="round" stroke-miterlimit="10" stroke-width="4" stroke-dasharray=""/><path fill="rgb(255,255,255)" stroke="none" paint-order="stroke fill markers" d=" M 740.7172129638229 300.3133997876159 L 735.3409322962266 285.145559344234 L 733.1333758583572 289.91527519256607 L 739.1830142791028 304.82733918488117 Z" fill-opacity="1"/><path fill="none" stroke="rgb(0,0,0)" paint-order="fill stroke markers" d=" M 740.7172129638229 300.3133997876159 L 735.3409322962266 285.145559344234" stroke-opacity="1" stroke-linecap="round" stroke-miterlimit="10" stroke-width="4" stroke-dasharray=""/><path fill="none" stroke="rgb(0,0,0)" paint-order="fill stroke markers" d=" M 739.1830142791028 304.82733918488117 L 733.1333758583572 289.91527519256607" stroke-opacity="1" stroke-linecap="round" stroke-miterlimit="10" stroke-width="4" stroke-dasharray=""/><g><path fill="rgb(255,255,255)" stroke="rgb(0,0,0)" paint-order="fill stroke markers" d=" M 772.4065972127906 698.7482043700891 C 772.4403087928725 703.0825190767046 769.8627596897154 706.6164356882688 766.6494801567918 706.6414280429159 C 763.4362006238682 706.666420397563 760.8039942501038 703.1730243990265 760.7702826700219 698.8387096924109 C 760.73657108994 694.5043949857954 763.3141201930971 690.9704783742312 766.5273997260207 690.9454860195841 C 769.7406792589443 690.920493664937 772.3728856327087 694.4138896634735 772.4065972127906 698.7482043700891" fill-opacity="1" stroke-opacity="1" stroke-linecap="round" stroke-miterlimit="10" stroke-width="4" stroke-dasharray=""/></g><g><path fill="rgb(255,255,255)" stroke="rgb(0,0,0)" paint-order="fill stroke markers" d=" M 645.374456658423 461.1581572471691 C 643.0057167022982 462.9260502495565 639.6641717177838 462.45485649211867 637.9109070406209 460.1057165335071 C 636.1576423634581 457.7565765748956 636.6565836588896 454.4190619270933 639.0253236150145 452.6511689247059 C 641.3940635711393 450.8832759223185 644.7356085556537 451.35446967975633 646.4888732328166 453.7036096383679 C 648.2421379099794 456.0527495969794 647.7431966145479 459.3902642447817 645.374456658423 461.1581572471691" fill-opacity="1" stroke-opacity="1" stroke-linecap="round" stroke-miterlimit="10" stroke-width="4" stroke-dasharray=""/></g><g><path fill="rgb(255,255,255)" stroke="rgb(0,0,0)" paint-order="fill stroke markers" d=" M 380.8992432031506 256.05947577325867 C 376.7263402287635 254.7929701972189 374.1315390424721 251.16993281603104 375.10359254096693 247.96719529014047 C 376.07564603946173 244.7644577642499 380.2464573380873 243.1948316389828 384.4193603124744 244.46133721502258 C 388.5922632868615 245.72784279106236 391.1870644731529 249.3508801722502 390.21501097465807 252.55361769814078 C 389.24295747616327 255.75635522403135 385.0721461775377 257.32598134929844 380.8992432031506 256.05947577325867" fill-opacity="1" stroke-opacity="1" stroke-linecap="round" stroke-miterlimit="10" stroke-width="4" stroke-dasharray=""/></g><g><path fill="rgb(255,255,255)" stroke="rgb(0,0,0)" paint-order="fill stroke markers" d=" M 691.5301244064137 177.5268129602427 C 690.4362799294296 174.42647684701393 691.9280157887737 171.07399770504537 694.8620097033244 170.03884121822367 C 697.796003617875 169.003684731402 701.0612117806646 170.6778436023098 702.1550562576488 173.77817971553856 C 703.2489007346329 176.87851582876732 701.7571648752888 180.23099497073588 698.8231709607381 181.26615145755758 C 695.8891770461875 182.30130794437926 692.6239688833979 180.62714907347146 691.5301244064137 177.5268129602427" fill-opacity="1" stroke-opacity="1" stroke-linecap="round" stroke-miterlimit="10" stroke-width="4" stroke-dasharray=""/></g><g><path fill="rgb(255,255,255)" stroke="rgb(0,0,0)" paint-order="fill stroke markers" d=" M 881.5265441735188 277.1454687456766 C 885.550450370923 274.3912280744505 890.5677283406762 274.7228809128341 892.732948171399 277.88623609330546 C 894.8981680021218 281.04959127377674 893.3914049926354 285.84675054403476 889.3674987952312 288.6009912152609 C 885.343592597827 291.355231886487 880.3263146280738 291.0235790481034 878.161094797351 287.86022386763204 C 875.9958749666282 284.69686868716076 877.5026379761146 279.89970941690274 881.5265441735188 277.1454687456766" fill-opacity="1" stroke-opacity="1" stroke-linecap="round" stroke-miterlimit="10" stroke-width="4" stroke-dasharray=""/></g><g><path fill="rgb(255,255,255)" stroke="rgb(0,0,0)" paint-order="fill stroke markers" d=" M 979.3475567788482 510.04463930834316 C 982.6845814992723 512.3653780232776 984.189535580528 515.9725499123385 982.7089658007285 518.1014832229735 C 981.2283960209289 520.2304165336083 977.3229640353259 520.0749275315912 973.9859393149018 517.7541888166568 C 970.6489145944777 515.4334501017224 969.143960513222 511.8262782126614 970.6245302930215 509.69734490202654 C 972.1051000728211 507.5684115913917 976.0105320584241 507.7239005934088 979.3475567788482 510.04463930834316" fill-opacity="1" stroke-opacity="1" stroke-linecap="round" stroke-miterlimit="10" stroke-width="4" stroke-dasharray=""/></g><g><path fill="rgb(255,255,255)" stroke="rgb(0,0,0)" paint-order="fill stroke markers" d=" M 810.9776155479543 882.8886114421998 C 811.4291000070497 888.6851282634817 808.8056159797874 893.6169813173606 805.1178999673697 893.904213550182 C 801.4301839549519 894.1914457830035 798.074698989266 889.7252881915821 797.6232145301707 883.9287713703002 C 797.1717300710753 878.1322545490183 799.7952140983376 873.2004014951394 803.4829301107553 872.913169262318 C 807.1706461231731 872.6259370294965 810.526131088859 877.0920946209179 810.9776155479543 882.8886114421998" fill-opacity="1" stroke-opacity="1" stroke-linecap="round" stroke-miterlimit="10" stroke-width="4" stroke-dasharray=""/></g><g><path fill="rgb(255,255,255)" stroke="rgb(0,0,0)" paint-order="fill stroke markers" d=" M 519.1161925657277 525.6954332151386 C 515.3187244286084 528.064183556412 510.844199551405 527.7463240192376 509.1220615299755 524.9854740680414 C 507.39992350854595 522.2246241168452 509.0823109768404 518.0662614620722 512.8797791139598 515.6975111207989 C 516.677247251079 513.3287607795255 521.1517721282825 513.6466203166999 522.8739101497121 516.4074702678961 C 524.5960481711415 519.1683202190923 522.9136607028471 523.3266828738653 519.1161925657277 525.6954332151386" fill-opacity="1" stroke-opacity="1" stroke-linecap="round" stroke-miterlimit="10" stroke-width="4" stroke-dasharray=""/></g><g><path fill="rgb(255,255,255)" stroke="rgb(0,0,0)" paint-order="fill stroke markers" d=" M 654.6769004290596 303.56715505575926 C 649.7605845514204 300.4547031818458 647.146624401086 295.7651887578431 648.8384570229736 293.09283142727475 C 650.5302896448611 290.42047409670647 655.8872524433012 290.7772412148585 660.8035683209404 293.889693088772 C 665.7198841985796 297.00214496268546 668.333844348914 301.6916593866882 666.6420117270264 304.3640167172565 C 664.9501791051389 307.0363740478248 659.5932163066988 306.67960692967273 654.6769004290596 303.56715505575926" fill-opacity="1" stroke-opacity="1" stroke-linecap="round" stroke-miterlimit="10" stroke-width="4" stroke-dasharray=""/></g><g><path fill="rgb(255,255,255)" stroke="rgb(0,0,0)" paint-order="fill stroke markers" d=" M 653.6040562705482 -280.59845055786843 C 652.9848193083769 -284.4278040522597 655.0290216491842 -287.9438481170464 658.1699099909524 -288.45175478017495 C 661.3107983327205 -288.9596614433035 664.3589821579054 -286.26709678417916 664.9782191200768 -282.4377432897878 C 665.5974560822481 -278.60838979539653 663.5532537414408 -275.09234573060985 660.4123653996726 -274.5844390674813 C 657.2714770579045 -274.07653240435275 654.2232932327196 -276.7690970634771 653.6040562705482 -280.59845055786843" fill-opacity="1" stroke-opacity="1" stroke-linecap="round" stroke-miterlimit="10" stroke-width="4" stroke-dasharray=""/></g><g><path fill="rgb(255,255,255)" stroke="rgb(0,0,0)" paint-order="fill stroke markers" d=" M 945.786260754676 110.74020387905175 C 948.4485229775252 107.11095604606336 952.1964492155182 105.33503246216117 954.1574883068283 106.77356753349754 C 956.1185273981384 108.21210260483393 955.5500737337982 112.3203523651083 952.887811510949 115.94960019809669 C 950.2255492880998 119.57884803108507 946.4776230501068 121.35477161498727 944.5165839587967 119.9162365436509 C 942.5555448674866 118.47770147231451 943.1239985318268 114.36945171204013 945.786260754676 110.74020387905175" fill-opacity="1" stroke-opacity="1" stroke-linecap="round" stroke-miterlimit="10" stroke-width="4" stroke-dasharray=""/></g><g><path fill="rgb(255,255,255)" stroke="rgb(0,0,0)" paint-order="fill stroke markers" d=" M 815.6316358736566 387.0271855508543 C 821.3820853265219 390.27418656817474 824.4859588719711 395.66524649743485 822.5643314744043 399.06845492207157 C 820.6427040768375 402.4716633467082 814.4232569385838 402.5982944703723 808.6728074857184 399.35129345305194 C 802.9223580328531 396.1042924357315 799.8184844874039 390.7132325064714 801.7401118849707 387.3100240818347 C 803.6617392825375 383.906815657198 809.8811864207912 383.78018453353394 815.6316358736566 387.0271855508543" fill-opacity="1" stroke-opacity="1" stroke-linecap="round" stroke-miterlimit="10" stroke-width="4" stroke-dasharray=""/></g><g><path fill="rgb(255,255,255)" stroke="rgb(0,0,0)" paint-order="fill stroke markers" d=" M 544.2947303670861 1014.200841646806 C 543.4841323252307 1016.5422382848561 540.9464977176017 1017.789275731005 538.6267648320828 1016.9861777406553 C 536.3070319465639 1016.1830797503058 535.0836364348085 1013.6339631943691 535.8942344766639 1011.292566556319 C 536.7048325185193 1008.9511699182689 539.2424671261483 1007.70413247212 541.5622000116672 1008.5072304624697 C 543.8819328971861 1009.3103284528192 545.1053284089415 1011.8594450087559 544.2947303670861 1014.200841646806" fill-opacity="1" stroke-opacity="1" stroke-linecap="round" stroke-miterlimit="10" stroke-width="4" stroke-dasharray=""/></g><g><path fill="rgb(255,255,255)" stroke="rgb(0,0,0)" paint-order="fill stroke markers" d=" M 323.1995568613885 357.0294790058835 C 316.1127102184168 356.77014673437225 310.48483296741216 353.3586052255821 310.62934119754726 349.40958777531625 C 310.7738494276824 345.46057032505047 316.63602081204607 342.4694895038553 323.72286745501776 342.7288217753665 C 330.80971409798946 342.98815404687775 336.4375913489941 346.3996955556679 336.293083118859 350.34871300593375 C 336.14857488872383 354.29773045619953 330.2864035043602 357.2888112773947 323.1995568613885 357.0294790058835" fill-opacity="1" stroke-opacity="1" stroke-linecap="round" stroke-miterlimit="10" stroke-width="4" stroke-dasharray=""/></g><g><path fill="rgb(255,255,255)" stroke="rgb(0,0,0)" paint-order="fill stroke markers" d=" M 455.43682450479935 35.05026389009532 C 453.58134397463704 33.01604946109094 453.7126102553739 29.875257601463428 455.73001594886614 28.035108926701792 C 457.74742164235835 26.19496025194016 460.88701625410084 26.35228162963076 462.74249678426315 28.386496058635146 C 464.59797731442546 30.420710487639536 464.4667110336886 33.56150234726704 462.44930534019636 35.40165102202867 C 460.43189964670415 37.24179969679031 457.29230503496166 37.08447831909971 455.43682450479935 35.05026389009532" fill-opacity="1" stroke-opacity="1" stroke-linecap="round" stroke-miterlimit="10" stroke-width="4" stroke-dasharray=""/></g></g></svg>