<svg version="1.1" xmlns="http://www.w3.org/2000/svg" xmlns:xlink="http://www.w3.org/1999/xlink" width="1528" height="732" viewBox="0 0 1528 732"><defs/><g><rect fill="transparent" stroke="none" x="0" y="0" width="1528" height="732" transform="matrix(1 0 0 1 0 0)" fill-opacity="1"/><path fill="none" stroke="rgb(0,0,0)" paint-order="fill stroke markers" d=" M 815.1133003386165 207.71009509259912 L 966.2493257219236 -260.33456114205205" stroke-opacity="1" stroke-linecap="round" stroke-miterlimit="10" stroke-width="4" stroke-dasharray=""/><path fill="none" stroke="rgb(0,0,0)" paint-order="fill stroke markers" d=" M 855.8665773278254 353.39313004744025 L 1139.1907124530446 314.51249870314797" stroke-opacity="1" stroke-linecap="round" stroke-miterlimit="10" stroke-width="4" stroke-dasharray=""/><path fill="none" stroke="rgb(0,0,0)" paint-order="fill stroke markers" d=" M 788.7319828791492 435.759734886521 L 952.099661244001 896.5592586225065" stroke-opacity="1" stroke-linecap="round" stroke-miterlimit="10" stroke-width="4" stroke-dasharray=""/><path fill="none" stroke="rgb(0,0,0)" paint-order="fill stroke markers" d=" M 672.229242923802 436.9031244187201 L 368.7685491145326 671.3602871888231" stroke-opacity="1" stroke-linecap="round" stroke-miterlimit="10" stroke-width="4" stroke-dasharray=""/><path fill="none" stroke="rgb(0,0,0)" paint-order="fill stroke markers" d=" M 667.767574955329 351.4640674551158 L 281.2733065831016 293.0840088476851" stroke-opacity="1" stroke-linecap="round" stroke-miterlimit="10" stroke-width="4" stroke-dasharray=""/><path fill="none" stroke="rgb(0,0,0)" paint-order="fill stroke markers" d=" M 773.4421244350717 179.66453078070973 L 786.7813116959182 -83.57746887155963" stroke-opacity="1" stroke-linecap="round" stroke-miterlimit="10" stroke-width="4" stroke-dasharray=""/><path fill="none" stroke="rgb(0,0,0)" paint-order="fill stroke markers" d=" M 944.3013177415269 288.5708916107229 L 1233.8194512788457 164.23940461372496" stroke-opacity="1" stroke-linecap="round" stroke-miterlimit="10" stroke-width="4" stroke-dasharray=""/><path fill="none" stroke="rgb(0,0,0)" paint-order="fill stroke markers" d=" M 907.4164988637564 497.8878670847638 L 1229.5517093864746 794.128021915928" stroke-opacity="1" stroke-linecap="round" stroke-miterlimit="10" stroke-width="4" stroke-dasharray=""/><path fill="none" stroke="rgb(0,0,0)" paint-order="fill stroke markers" d=" M 761.0055081819155 561.4209087228987 L 754.3624323389027 994.9488649913159" stroke-opacity="1" stroke-linecap="round" stroke-miterlimit="10" stroke-width="4" stroke-dasharray=""/><path fill="none" stroke="rgb(0,0,0)" paint-order="fill stroke markers" d=" M 685.3815122066454 396.28291447654306 L 287.32717276484107 549.6087524145238" stroke-opacity="1" stroke-linecap="round" stroke-miterlimit="10" stroke-width="4" stroke-dasharray=""/><path fill="none" stroke="rgb(0,0,0)" paint-order="fill stroke markers" d=" M 687.9224260712157 271.27065233303097 L 383.60864503227816 -107.65107814791935" stroke-opacity="1" stroke-linecap="round" stroke-miterlimit="10" stroke-width="4" stroke-dasharray=""/><path fill="none" stroke="rgb(0,0,0)" paint-order="fill stroke markers" d=" M 801.4896091825573 216.0835687766067 L 872.6120471166088 -68.32649330377308" stroke-opacity="1" stroke-linecap="round" stroke-miterlimit="10" stroke-width="4" stroke-dasharray=""/><path fill="none" stroke="rgb(0,0,0)" paint-order="fill stroke markers" d=" M 940.1189752515129 344.4925585698057 L 1074.3162902208164 328.1045408240186" stroke-opacity="1" stroke-linecap="round" stroke-miterlimit="10" stroke-width="4" stroke-dasharray=""/><path fill="none" stroke="rgb(0,0,0)" paint-order="fill stroke markers" d=" M 836.1379773751052 465.73430718586144 L 1059.5196434350748 774.5704641336577" stroke-opacity="1" stroke-linecap="round" stroke-miterlimit="10" stroke-width="4" stroke-dasharray=""/><path fill="none" stroke="rgb(0,0,0)" paint-order="fill stroke markers" d=" M 735.8402073092988 519.6503406315558 L 648.544349999866 995.969124602832" stroke-opacity="1" stroke-linecap="round" stroke-miterlimit="10" stroke-width="4" stroke-dasharray=""/><path fill="none" stroke="rgb(0,0,0)" paint-order="fill stroke markers" d=" M 692.3578486390735 410.66659071354127 L 273.3968522209695 671.8753762742609" stroke-opacity="1" stroke-linecap="round" stroke-miterlimit="10" stroke-width="4" stroke-dasharray=""/><path fill="none" stroke="rgb(0,0,0)" paint-order="fill stroke markers" d=" M 691.6146564487561 291.46888014972524 L 465.1918848866587 58.3340783209635" stroke-opacity="1" stroke-linecap="round" stroke-miterlimit="10" stroke-width="4" stroke-dasharray=""/><path fill="none" stroke="rgb(0,0,0)" paint-order="fill stroke markers" d=" M 821.8814698535762 294.6711994996805 L 1031.7067568832042 36.09818681842199" stroke-opacity="1" stroke-linecap="round" stroke-miterlimit="10" stroke-width="4" stroke-dasharray=""/><path fill="rgb(255,255,255)" stroke="rgb(0,0,0)" paint-order="fill stroke markers" d=" M 605.2632314926013 338.64321431005374 L 600.4195538675413 339.8295029872097 L 595.8055407227948 341.75548148481175 L 591.4992917990312 344.2810648404993 C 567.8400411324529 341.30221486064227 566.0300620898613 316.5053393274321 589.1640604520217 322.2890932196751 C 569.9654428451762 317.48922777614234 583.7362255801402 303.2435504997673 602.4255739152431 309.75 C 598.4968443122361 308.38226473691316 608.5298640632774 308.3026162559133 612.4299533367157 309.75 C 592.2061746297607 302.24464140633677 607.4909752817601 301.5343790965376 627.4367820084371 309.75 C 610.4003785623854 302.7327540099442 620.5956904997935 302.2671302521076 637.4327758769505 309.75 C 612.6516022996201 298.7365561689997 615.4054411861827 270.9508581451923 638.25 285.5634774001519 C 614.0367032861146 270.07533912306826 614.4743159369838 264.42059208011153 638.25 280.5724654197693 C 615.6101357461997 265.1922046926659 614.51108057906 256.0314796025117 636.5581998825073 272.25 C 629.7734475353247 267.2589332388435 619.6001989442661 267.5037485666621 626.5584105793387 272.25 C 611.0881016645092 261.69757939078926 595.6078291979753 262.4399893138115 611.5592469710391 272.25 C 596.9138403858117 263.2431770862859 576.4668876113893 264.03730935044814 591.5719366129779 272.25 C 573.629362096291 262.49453254361606 553.207812915044 263.30520176219136 571.5679793103773 272.25 C 563.1693893773821 268.1583327016128 553.0846434586277 268.32410154110846 561.5619882925821 272.25 C 535.8465948159077 260.341079742857 530.049587571665 277.9331089055906 556.5717765043664 287.91696274913556 C 540.0193906146558 281.68608181000354 538.0392911676382 313.92691673425213 555.2738676071167 317.89865827560425 C 541.5935087605291 314.7459930666622 541.3085257939873 320.0520815247135 555.0578365375222 322.8889759832364 C 531.0788308685865 317.94138918619797 529.3239074467958 351.3340375057947 553.7603385376278 352.8611797807971 C 545.7480578660471 352.3604563941751 545.3009877194585 362.7280840727761 553.328001092992 362.84817475188356 C 545.6845361432255 362.733822270601 545.4676369772367 367.9124434744528 553.1116645777693 367.84554825353007 C 545.3736368923956 367.913266097914 544.953309397074 378.26003743104513 552.6795411061321 377.8276004483487 C 543.015524377039 378.36849520693556 542.6986293715646 388.7393504360786 552.3270753622055 387.75 C 548.2525982591881 388.1686642063092 558.254177766254 388.18918941260523 562.3264935743064 387.75 C 542.4913348724264 389.8891739024721 557.5212834984656 390.05898082407737 577.3373929366935 387.75 C 551.9792247458449 390.7047436780624 563.1905171061856 385.2973585307651 588.6031781674828 382.8552565709688 C 573.0738893334985 384.34758775990804 588.703356702504 380.08087551188197 604.2540975809097 378.8317469358444 C 582.261718158663 380.5983064718943 585.7116697229925 391.28835470538274 607.5562397637113 388.1899284947722 C 579.9054042958721 392.111913372439 581.7909666830418 415.44514545442223 608.7438009213656 408.1310909036547 C 603.754395151831 409.48504075737367 597.2592654042081 438.46198547437126 602.0007334500551 436.4014440625906 C 596.980882004767 438.5829649932364 584.9796958739164 432.6168431370784 590.1094283592829 430.7079725987278 C 573.4097606725156 436.92223498735154 570.2482590745119 420.883109534213 587.3921402742562 416.0268460228108 C 574.7345409550234 419.61230237308325 560.2032832984597 413.2194773442406 573.0193873113021 410.25 L 543.4068716259627 415.81069315051803 L 563.0238699903712 410.25 C 534.8373701019082 416.455973913443 522.9077390745408 434.8754621610088 550.6591186704609 426.94742213211066 C 521.8707236389477 435.1717176987038 529.386607920727 462.36657938554123 557.0814999022259 450.991005369684 C 530.2880548407953 461.9963134113156 548.1948403630083 482.9437623561346 573.6616155729862 469.14344120930764 C 565.7562150241558 473.42733916924317 595.2961243007614 479.6483021390622 602.7533662628557 474.6246897050296 C 598.251991729633 477.6570656411035 617.5742819537226 472.8167269143474 621.9590528845729 469.6180615067133 C 610.1762264066892 478.21356627841914 628.278783425937 454.8801021743874 640.4801160874522 446.889784072373 L 642.0523540726026 442.14626105172647 L 643.3075366828307 437.2988315751936 L 644.2849564274547 432.40850370848057 L 645.0331521721091 427.4468375989236 L 645.5758491636698 422.4869057276155 L 645.945883180159 417.49342787166006 L 646.1633496725631 412.49921318162797 C 637.2593422580514 416.01280031931134 637.0752198145371 405.34659207590624 646.2181601297052 402.5122870455598 C 623.0785281283515 409.6855565979157 622.6768546803655 403.7633628757129 646.0816624411782 397.50929708550666 C 625.4561275897255 403.0207053926133 624.4277492758547 391.34898404720354 645.4333197195956 387.5339716266244 C 616.3146041679237 392.8224860137231 614.700212203871 380.46975210591694 644.1572575229839 377.6148509045679 C 640.1595801393029 378.0022955325555 632.4739126945817 353.5742103240801 636.4725164794654 353.9519742388002 C 624.5614662286943 352.8266902113683 614.7445154190309 340.9073501318554 626.5430282643356 342.8909017086917 L 605.2632314926013 338.64321431005374 L 605.2632314926013 338.64321431005374 Z" fill-opacity="1" stroke-opacity="1" stroke-linecap="round" stroke-miterlimit="10" stroke-width="4" stroke-dasharray=""/><path fill="rgb(255,255,255)" stroke="none" paint-order="stroke fill markers" d=" M 618.1163980715215 339.6708869325634 L 607.8022433892448 337.809385425644 L 602.8184811908594 338.22188464145165 L 613.1470090510986 340.0019090543339 Z" fill-opacity="1"/><path fill="none" stroke="rgb(0,0,0)" paint-order="fill stroke markers" d=" M 618.1163980715215 339.6708869325634 L 607.8022433892448 337.809385425644" stroke-opacity="1" stroke-linecap="round" stroke-miterlimit="10" stroke-width="4" stroke-dasharray=""/><path fill="none" stroke="rgb(0,0,0)" paint-order="fill stroke markers" d=" M 613.1470090510986 340.0019090543339 L 602.8184811908594 338.22188464145165" stroke-opacity="1" stroke-linecap="round" stroke-miterlimit="10" stroke-width="4" stroke-dasharray=""/><path fill="rgb(255,255,255)" stroke="none" paint-order="stroke fill markers" d=" M 596.6428571154688 329.0052761660485 L 582.6877277231084 325.92045917503646 L 583.0599237380886 320.7629919411456 L 596.9251803787638 324.2294585158827 Z" fill-opacity="1"/><path fill="none" stroke="rgb(0,0,0)" paint-order="fill stroke markers" d=" M 596.6428571154688 329.0052761660485 L 582.6877277231084 325.92045917503646" stroke-opacity="1" stroke-linecap="round" stroke-miterlimit="10" stroke-width="4" stroke-dasharray=""/><path fill="none" stroke="rgb(0,0,0)" paint-order="fill stroke markers" d=" M 596.9251803787638 324.2294585158827 L 583.0599237380886 320.7629919411456" stroke-opacity="1" stroke-linecap="round" stroke-miterlimit="10" stroke-width="4" stroke-dasharray=""/><path fill="rgb(255,255,255)" stroke="none" paint-order="stroke fill markers" d=" M 575.836656971586 408.4879351902201 L 555.2677661368969 413.1324620499869 L 550.2432415176336 413.06397999798054 L 570.836738048351 408.5297986430078 Z" fill-opacity="1"/><path fill="none" stroke="rgb(0,0,0)" paint-order="fill stroke markers" d=" M 575.836656971586 408.4879351902201 L 555.2677661368969 413.1324620499869" stroke-opacity="1" stroke-linecap="round" stroke-miterlimit="10" stroke-width="4" stroke-dasharray=""/><path fill="none" stroke="rgb(0,0,0)" paint-order="fill stroke markers" d=" M 570.836738048351 408.5297986430078 L 550.2432415176336 413.06397999798054" stroke-opacity="1" stroke-linecap="round" stroke-miterlimit="10" stroke-width="4" stroke-dasharray=""/><path fill="rgb(255,255,255)" stroke="none" paint-order="stroke fill markers" d=" M 653.7927943115418 404.8415122416222 L 642.7658822223391 408.7278456099757 L 642.6919835400427 403.60539929407685 L 653.859420267782 400.1435018078823 Z" fill-opacity="1"/><path fill="none" stroke="rgb(0,0,0)" paint-order="fill stroke markers" d=" M 653.7927943115418 404.8415122416222 L 642.7658822223391 408.7278456099757" stroke-opacity="1" stroke-linecap="round" stroke-miterlimit="10" stroke-width="4" stroke-dasharray=""/><path fill="none" stroke="rgb(0,0,0)" paint-order="fill stroke markers" d=" M 653.859420267782 400.1435018078823 L 642.6919835400427 403.60539929407685" stroke-opacity="1" stroke-linecap="round" stroke-miterlimit="10" stroke-width="4" stroke-dasharray=""/><path fill="rgb(255,255,255)" stroke="rgb(0,0,0)" paint-order="fill stroke markers" d=" M 926.261414823628 269.91103407838455 L 921.2757378088099 270.4363039766358 L 916.3811062737659 271.38431795008364 L 911.5899021508812 272.8308021000412 L 907.007900756551 274.83067280915566 L 902.7412398438901 277.4118612278253 L 898.8741577567707 280.574465181242 L 895.4897455126047 284.25965379178524 L 892.6345318555832 288.35983669757843 L 890.2945200940558 292.77306074856097 C 899.7628680158226 287.28320942672724 895.7467424217227 302.31586540668354 885.8928182617346 307.0790847542121 C 890.4950416875063 304.8544482228801 889.2189332868073 335.76827662971215 884.25 336.96793080843054 C 912.737988478239 330.09004928968733 913.4742625564811 354.77876381307976 884.25 356.9726689505005 C 902.6329976741329 355.5926323127743 902.6841152160391 367.12850503984833 884.25 366.97850233842837 C 909.2475160640481 367.1819129656514 908.8765767387656 391.2684968445765 884.25 386.97327817897894 C 893.2391018897517 388.54110299821343 893.0863998147249 399.2485543872053 884.25 396.97257860471655 C 910.269991416869 403.6745015107708 908.6755733483736 433.3136632768464 884.3141335999567 421.9789388709828 C 893.6197093076668 426.30857362057293 896.858594558827 452.1503613231612 888.2470795723202 446.56634073276655 C 895.0038579003941 450.94768238610106 898.9555760389143 460.2828631777316 892.3540594327533 455.6709019293521 C 902.2354107897216 462.5742261590342 908.2384538558972 470.6258094025712 898.4811760736957 463.5482024382836 C 912.2109577662995 473.50733250455863 924.8596290207051 481.3629971528196 911.0763196379412 471.4780813988764 L 934.364926649906 486.02964500189006 L 920.7421252180065 473.98278829592164 C 927.3198048754155 478.51428350779577 947.4795794392946 478.31290004771273 940.667064916157 474.1427724234345 C 952.655817832657 481.48141802161183 957.7009671681564 480.38763588638056 945.5973605396284 473.24000534959487 C 970.0856358995286 487.7012440636068 992.4380984792997 472.6945176655579 966.6706313680334 460.6595397297351 C 979.4037173905548 466.60666711615085 990.7161191725431 437.2460045242627 977.3090752942335 433.03281354208957 C 980.5402819791595 434.04822685691374 981.5581206531325 413.79158783059825 978.25 413.0648839122441 C 1006.281334101244 419.2226037973334 1006.6336806519638 402.30773662778824 978.25 398.06039883499034 C 1002.4043614744074 401.6748607368528 1002.5961394545559 385.0108180338009 978.25 383.0709709430048 C 1008.06327340134 385.44642729749785 1008.1563595150145 368.3622746704168 978.25 368.0729230610341 C 1001.4929502550958 368.29780449669454 1001.4518308177115 351.6708436620734 978.25 353.07097041606903 C 985.5868098106744 352.6282267470194 985.5745553470246 347.4581556068857 978.25 348.07109045078323 C 986.7521306411098 347.3596135255086 986.7334068128936 342.1636227603041 978.25 343.07149593462236 L 1002.5654080870061 334.8983085732763 L 978.25 333.0766944605857 C 991.480221873642 331.0436366444823 989.7151679597515 304.6273095786685 976.7986063815188 308.1393648039084 C 1004.6615610849757 300.5633365347592 1001.9131474319072 289.61091515889206 974.4209450184462 298.43810359004783 C 995.1071949167284 291.7961684318553 984.4203710702284 272.88092928744095 964.4066540745553 281.33594966097735 C 984.5748196838418 272.81568072941207 961.5921779892294 260.2734549202859 942.2878639330265 270.60270201430467 L 926.261414823628 269.91103407838455 M 936.0940715074539 308.22925996780396 L 939.1636597809847 312.05495308246464 L 940.246785691008 316.9156633242965 L 940.6269562300295 321.89866103976965 L 940.7407833321486 326.8912351215258 L 940.75 331.90067875012755 L 940.75 336.88877296447754 L 967.6751604852006 337.3646674426658 L 936.3910162001848 345.669381249696 C 965.1267713606612 342.28048259623415 954.9312400316185 362.17711986958466 926.0021412705537 362.75634659448406 C 941.0475817057343 362.4551024644848 936.7955987246222 362.6322923931254 921.75 362.925524267368 C 927.1926130056612 362.81945021597016 927.1094362453543 336.97204011693105 921.75 337.9258384005079 C 946.3577876944039 333.5464849403578 946.2122359574719 327.7851392616269 921.75 332.915535338223 C 925.3339932761821 332.1638744894503 926.4888256122856 311.8571825943609 923.0146496798843 313.01481095701456 C 949.557906834347 304.1703459911952 956.6051344377221 297.9589625963871 930.2248398512602 307.2782500386238 L 936.0940715074539 308.22925996780396 M 926.4059284925461 436.27074003219604 L 923.3363402190153 432.44504691753536 L 922.253214308992 427.5843366757035 L 921.8730437699705 422.60133896023035 L 921.7592166678514 417.6087648784742 L 921.75 412.59932124987245 L 927.3998662394176 409.10154631798673 L 923.5119065300096 403.1021274177474 C 935.6069291200765 405.9154037368589 940.945699151981 396.67315773199124 928.7102783546725 394.55217375876236 C 937.4306522587455 396.0638318862189 949.5662651539899 382.3513283928485 940.75 381.574475732632 C 950.7535672561552 382.4559485217168 950.5949838526931 403.5478565271111 940.75 401.5667848306475 C 945.5701193216358 402.536720597384 945.0103300600039 428.1632891612367 940.3601696997357 426.5663125520805 C 954.1327566719001 431.296149275571 950.4574343928883 441.1458479032652 936.9509454220533 435.70247918367386 L 926.4059284925461 436.27074003219604 Z" fill-opacity="1" stroke-opacity="1" stroke-linecap="round" stroke-miterlimit="10" stroke-width="4" stroke-dasharray=""/><path fill="rgb(255,255,255)" stroke="none" paint-order="stroke fill markers" d=" M 924.310723969385 273.74039964989953 L 943.1718224143342 262.8857458774718 L 938.1024596978062 262.8989310554449 L 919.377855886016 273.9873824874908 Z" fill-opacity="1"/><path fill="none" stroke="rgb(0,0,0)" paint-order="fill stroke markers" d=" M 924.310723969385 273.74039964989953 L 943.1718224143342 262.8857458774718" stroke-opacity="1" stroke-linecap="round" stroke-miterlimit="10" stroke-width="4" stroke-dasharray=""/><path fill="none" stroke="rgb(0,0,0)" paint-order="fill stroke markers" d=" M 919.377855886016 273.9873824874908 L 938.1024596978062 262.8989310554449" stroke-opacity="1" stroke-linecap="round" stroke-miterlimit="10" stroke-width="4" stroke-dasharray=""/><path fill="rgb(255,255,255)" stroke="none" paint-order="stroke fill markers" d=" M 879.878657301132 305.8760516977684 L 893.6153969397178 298.7487079477863 L 892.6234188222921 303.8256269144703 L 878.6901667840232 310.56072397886203 Z" fill-opacity="1"/><path fill="none" stroke="rgb(0,0,0)" paint-order="fill stroke markers" d=" M 879.878657301132 305.8760516977684 L 893.6153969397178 298.7487079477863" stroke-opacity="1" stroke-linecap="round" stroke-miterlimit="10" stroke-width="4" stroke-dasharray=""/><path fill="none" stroke="rgb(0,0,0)" paint-order="fill stroke markers" d=" M 878.6901667840232 310.56072397886203 L 892.6234188222921 303.8256269144703" stroke-opacity="1" stroke-linecap="round" stroke-miterlimit="10" stroke-width="4" stroke-dasharray=""/><path fill="rgb(255,255,255)" stroke="none" paint-order="stroke fill markers" d=" M 970.3171304714308 339.10250560035394 L 989.7308212856128 336.5715493062365 L 989.693650188898 331.3181750129532 L 970.3428144754873 334.2917735036679 Z" fill-opacity="1"/><path fill="none" stroke="rgb(0,0,0)" paint-order="fill stroke markers" d=" M 970.3171304714308 339.10250560035394 L 989.7308212856128 336.5715493062365" stroke-opacity="1" stroke-linecap="round" stroke-miterlimit="10" stroke-width="4" stroke-dasharray=""/><path fill="none" stroke="rgb(0,0,0)" paint-order="fill stroke markers" d=" M 970.3428144754873 334.2917735036679 L 989.693650188898 331.3181750129532" stroke-opacity="1" stroke-linecap="round" stroke-miterlimit="10" stroke-width="4" stroke-dasharray=""/><path fill="rgb(255,255,255)" stroke="none" paint-order="stroke fill markers" d=" M 931.066006049833 342.511663813761 L 943.7941589202394 340.7221726975325 L 941.2109459968307 345.10095165714085 L 928.4460754574256 346.6063532845219 Z" fill-opacity="1"/><path fill="none" stroke="rgb(0,0,0)" paint-order="fill stroke markers" d=" M 931.066006049833 342.511663813761 L 943.7941589202394 340.7221726975325" stroke-opacity="1" stroke-linecap="round" stroke-miterlimit="10" stroke-width="4" stroke-dasharray=""/><path fill="none" stroke="rgb(0,0,0)" paint-order="fill stroke markers" d=" M 928.4460754574256 346.6063532845219 L 941.2109459968307 345.10095165714085" stroke-opacity="1" stroke-linecap="round" stroke-miterlimit="10" stroke-width="4" stroke-dasharray=""/><path fill="rgb(255,255,255)" stroke="none" paint-order="stroke fill markers" d=" M 918.2681640763175 397.24268107406823 L 930.6633841725376 399.75298454872103 L 933.2888570296844 395.3458605596286 L 920.8278334568471 393.1857688287558 Z" fill-opacity="1"/><path fill="none" stroke="rgb(0,0,0)" paint-order="fill stroke markers" d=" M 918.2681640763175 397.24268107406823 L 930.6633841725376 399.75298454872103" stroke-opacity="1" stroke-linecap="round" stroke-miterlimit="10" stroke-width="4" stroke-dasharray=""/><path fill="none" stroke="rgb(0,0,0)" paint-order="fill stroke markers" d=" M 920.8278334568471 393.1857688287558 L 933.2888570296844 395.3458605596286" stroke-opacity="1" stroke-linecap="round" stroke-miterlimit="10" stroke-width="4" stroke-dasharray=""/><g><text fill="none" stroke="rgb(0,0,0)" font-family="sans-serif" font-size="12px" font-style="normal" font-weight="normal" text-decoration="normal" x="648.75" y="472.25" text-anchor="start" dominant-baseline="alphabetic" transform="matrix(1 0 0 1 0 0)" stroke-opacity="1" stroke-linecap="round" stroke-miterlimit="10" stroke-width="8" stroke-dasharray=""> </text><text fill="rgb(255,255,255)" stroke="none" font-family="sans-serif" font-size="12px" font-style="normal" font-weight="normal" text-decoration="normal" x="648.75" y="472.25" text-anchor="start" dominant-baseline="alphabetic" transform="matrix(1 0 0 1 0 0)" fill-opacity="1"> </text></g><path fill="rgb(255,255,255)" stroke="rgb(0,0,0)" paint-order="fill stroke markers" d=" M 827.261414823628 269.91103407838455 L 822.2757378088099 270.4363039766358 L 817.3811062737659 271.38431795008364 C 822.1376458707662 262.95355902463996 800.065217547076 275.26419022799416 796.4897455126047 284.25965379178524 C 807.5142218925334 256.5233787966472 799.8002493672049 269.4283318902466 789.4255772661418 297.4141534585506 C 793.7623445729101 285.7156636317696 791.4112884046665 295.44956875105066 786.8928182617346 307.0790847542121 C 796.3739256613134 282.6768674675554 796.173233413324 293.02799188548204 785.6117639311319 316.9824271408638 C 793.6432326931663 298.7662784515015 798.4415419476447 327.0710963160494 785.25 341.98135401308537 C 796.9723337255023 328.7317265357532 802.922112098148 367.79225306845217 785.25 366.97850233842837 C 796.8263278155889 367.51155946021504 796.4048351623758 375.1242863067833 785.25 371.98339979350567 C 808.34131774126 378.4852626549094 804.4228305955306 396.39854795633096 785.25 381.9803045594599 C 803.3054567897657 395.55826683995986 798.0307121581276 415.60088975492187 785.25 396.97257860471655 C 793.3150870859075 408.7277100739945 791.2315700445549 424.91142134914844 785.25 411.9711908502213 C 797.3431315705957 438.1328689400421 796.3394381104126 443.57968561170424 785.25 416.9770242024679 C 795.3087090177564 441.10705022805627 794.6165189145142 446.4105047348191 785.3141335999567 421.9789388709828 C 794.0474486325658 444.9159119390531 798.5014458414089 474.6297408649515 791.0720499508025 451.2378704462608 C 793.8753305764333 460.06415701215667 799.1576653926929 468.5750998070296 796.1550110334938 459.81463271853863 C 800.1502321841746 471.47098713527447 803.6930982236652 475.1280168639987 799.4811760736957 463.5482024382836 C 806.3306465288202 482.37941392810995 836.7406574316494 491.9010199477833 826.7162135309081 474.5505070974068 C 838.2190954377292 494.4599307339541 866.0307749679737 489.5858694566023 851.3919152822345 471.85439380444586 C 868.8509062290111 493.00178366470715 891.4741725351554 474.36487434889085 870.5803626476591 456.60319731189156 C 875.1091764731644 460.4531092696653 879.6796764749648 451.12308922194825 874.892104273109 447.60014596939436 C 897.6534905398798 464.34915126611025 905.0025432706104 429.70982471563536 879.2496376518066 418.07377145847204 C 883.1905832551057 419.8544269542965 883.3667460419177 404.4031969605291 879.25 403.0787392340135 C 897.2568139593076 408.87197098440447 897.6648549285721 397.38844093723594 879.25 393.0640911550727 C 902.4593100032889 398.514320062451 902.9610306438578 380.5504740550737 879.25 378.0677151506243 C 885.0214355130897 378.6720365370205 885.0511204625642 362.92799128767285 879.25 363.07521084693144 C 882.7829562817428 362.9855522594164 882.7420910450239 347.5278419953918 879.25 348.07109045078323 C 887.1795823163023 346.8375219986179 886.9662833739162 330.87239463283606 879.25 333.0766944605857 C 886.0602838611787 331.13121024044057 884.1121033373103 304.9292820464273 877.7986063815188 308.1393648039084 C 900.1459021621347 296.77693454315107 888.5126151139982 269.7889305181061 868.6748271437827 285.11761665181257 C 889.3071332791216 269.1750052357616 865.5469736044182 252.20336107195078 848.1866477967706 271.6578721960541 C 866.0396251350171 251.65128072573282 854.7520063593013 248.79132908502103 838.336063178404 269.9929637291193 L 827.261414823628 269.91103407838455 M 837.0940715074539 308.22925996780396 L 840.1636597809847 312.05495308246464 L 841.246785691008 316.9156633242965 L 841.6269562300295 321.89866103976965 L 841.7407833321486 326.8912351215258 C 860.5381597103549 317.4349093476196 861.4559362827325 329.51045804390947 841.75 336.88877296447754 C 868.4183895691441 326.9035698336851 860.2549463242912 349.3678983952473 832.1943362206221 354.2165522687137 C 852.1156552511034 350.7743042090725 842.9556158922691 368.5952810784916 822.75 367.9311199290678 C 827.9999052409087 368.1036849781986 827.8773199754618 351.7852025207763 822.75 352.92619927972555 C 847.7958305595098 347.35268102255463 844.2858837397497 313.9773861336106 822.7527125116903 327.9301733477041 C 834.8209546541437 320.1103490924458 842.0550736233363 297.817903520964 831.2248398512602 307.2782500386238 L 837.0940715074539 308.22925996780396 M 827.4059284925461 436.27074003219604 L 824.3363402190153 432.44504691753536 L 823.253214308992 427.5843366757035 L 822.8730437699705 422.60133896023035 L 822.7592166678514 417.6087648784742 L 822.75 412.59932124987245 L 822.75 407.61122703552246 L 824.5119065300096 403.1021274177474 L 827.1089837998152 398.830618750304 L 829.7102783546725 394.55217375876236 L 832.3056637793779 390.2834477312863 L 834.9039881930221 386.0098878404242 L 837.4978587294463 381.74365340551594 L 840.0971121639013 377.46856551989913 L 841.75 376.5688800709322 L 841.75 381.574475732632 C 854.1410031289073 384.05657705139896 852.9533850003055 412.4206947630126 841.75 406.5741615994921 C 860.748267398467 416.4884866353218 858.2335958799913 439.7767438092046 841.3601696997357 426.5663125520805 L 827.4059284925461 436.27074003219604 Z" fill-opacity="1" stroke-opacity="1" stroke-linecap="round" stroke-miterlimit="10" stroke-width="4" stroke-dasharray=""/><path fill="rgb(255,255,255)" stroke="none" paint-order="stroke fill markers" d=" M 824.7678413967886 387.6036653280796 L 843.0182218264711 394.09188511424156 L 845.8459999015878 389.0978442814775 L 827.2047122213263 383.83706720547343 Z" fill-opacity="1"/><path fill="none" stroke="rgb(0,0,0)" paint-order="fill stroke markers" d=" M 824.7678413967886 387.6036653280796 L 843.0182218264711 394.09188511424156" stroke-opacity="1" stroke-linecap="round" stroke-miterlimit="10" stroke-width="4" stroke-dasharray=""/><path fill="none" stroke="rgb(0,0,0)" paint-order="fill stroke markers" d=" M 827.2047122213263 383.83706720547343 L 845.8459999015878 389.0978442814775" stroke-opacity="1" stroke-linecap="round" stroke-miterlimit="10" stroke-width="4" stroke-dasharray=""/><path fill="rgb(255,255,255)" stroke="none" paint-order="stroke fill markers" d=" M 829.6753110535608 380.06801983623586 L 851.482822322449 384.73931101382095 L 854.2396105741094 379.59997583259536 L 832.1864467313977 376.2763522776507 Z" fill-opacity="1"/><path fill="none" stroke="rgb(0,0,0)" paint-order="fill stroke markers" d=" M 829.6753110535608 380.06801983623586 L 851.482822322449 384.73931101382095" stroke-opacity="1" stroke-linecap="round" stroke-miterlimit="10" stroke-width="4" stroke-dasharray=""/><path fill="none" stroke="rgb(0,0,0)" paint-order="fill stroke markers" d=" M 832.1864467313977 376.2763522776507 L 854.2396105741094 379.59997583259536" stroke-opacity="1" stroke-linecap="round" stroke-miterlimit="10" stroke-width="4" stroke-dasharray=""/><path fill="rgb(255,255,255)" stroke="rgb(0,0,0)" paint-order="fill stroke markers" d=" M 728.261414823628 269.91103407838455 L 723.2757378088099 270.4363039766358 L 718.3811062737659 271.38431795008364 L 713.5899021508812 272.8308021000412 L 709.007900756551 274.83067280915566 L 704.7412398438901 277.4118612278253 L 700.8741577567707 280.574465181242 L 697.4897455126047 284.25965379178524 L 694.6345318555832 288.35983669757843 L 692.2945200940558 292.77306074856097 C 685.8345674729527 286.17603972906323 678.2999817256103 317.4182893123693 686.3323175604746 321.9716677542019 C 673.10840386778 314.4752825478446 672.0094800987679 331.6504805306621 686.25 336.96793080843054 C 661.6255140716091 327.7730783418084 660.1402234000094 353.94113715633216 686.25 356.9726689505005 C 680.6832731516026 356.32633215149576 680.6623980883326 372.4134043738846 686.25 371.98339979350567 C 662.2401388141482 373.83112453256064 663.4102383544548 399.6082640838418 686.25 391.9772216354031 C 660.9361662485496 400.4348816971803 663.9303025695988 431.61100177290285 686.25 416.9770242024679 C 671.9328844100455 426.364084626116 672.4244370115051 431.9875866764605 686.3141335999567 421.9789388709828 C 677.3619075910341 428.4297404869692 679.7139044771112 444.3960032984515 687.7935153197905 436.88101290361374 L 688.8462189396087 441.7860698736913 L 690.2470795723202 446.56634073276655 L 692.0720499508025 451.2378704462608 L 694.3540594327533 455.6709019293521 L 697.1550110334938 459.81463271853863 L 688.6285216705161 481.75076129695884 L 704.2870171871036 466.76261571608484 C 694.0231439838382 484.0823787327783 715.5565294196874 492.78939610036923 722.7421252180065 473.98278829592164 C 717.8771434456607 486.715734419846 728.9272025689144 487.84697956474974 732.6976154385666 474.7481265068527 C 731.7626605448226 477.9962686048941 747.0863201087743 476.581173621388 747.5973605396284 473.24000534959487 C 746.2277882674155 482.19423117121414 756.3921948127237 478.95579882820914 757.0009148775098 469.9179147751747 C 755.0578922774075 498.7666647803509 777.2916459119364 480.9510378690728 773.9704716753513 452.2283027037738 C 776.5758362025717 474.76045247781366 782.9869007557443 460.1916364030471 778.5048217773438 437.95660400390625 C 783.8556390274606 464.5013381533001 786.5430562370424 454.29795984411123 779.8445558390704 428.0608820966845 C 782.812744066092 439.686855173426 785.0663591482335 414.0685561518414 780.25 403.0787392340135 C 791.4082997489887 428.53939687633425 799.4163411632388 403.20562036339663 780.25 383.0709709430048 C 789.6986251689962 392.9969528329295 793.8439151102938 369.80702399161055 780.25 368.0729230610341 C 790.8856290357157 369.42965171929495 789.8849956883009 353.36340339142384 780.25 358.06703770160675 C 783.77814595713 356.3446593101519 782.5201991631787 339.8682792735664 780.25 343.07149593462236 C 785.5795636649535 335.5515622633254 782.1066789558514 304.25439863989016 779.5130359946343 313.09898271542625 C 783.0898251815283 300.9017708566639 778.7192565849065 285.93677718208255 776.4209450184462 298.43810359004783 C 781.4589177111719 271.0347950111424 771.624911810829 257.3233787648923 769.6748271437827 285.11761665181257 C 771.3829815676035 260.77157096181645 739.3491560132329 246.70172093908593 744.2878639330265 270.60270201430467 C 739.7230164824274 248.5110265599305 727.7104528041148 248.19890170353716 734.3517472039384 269.7575001116784 L 728.261414823628 269.91103407838455 M 738.0940715074539 308.22925996780396 L 741.1636597809847 312.05495308246464 L 742.246785691008 316.9156633242965 L 742.6269562300295 321.89866103976965 L 742.7407833321486 326.8912351215258 L 742.75 331.90067875012755 C 732.4080458855091 315.30521448182327 727.6304494923971 327.11715843503066 740.9880934699904 341.3978725822526 C 735.6757673775703 335.7184420996063 729.0306676554944 346.1017986435806 735.7897216453275 349.94782624123764 C 728.6019382673736 345.8578436372854 725.4701703026956 351.261988263422 733.1943362206221 354.2165522687137 C 723.4173055723192 350.47674875606924 713.4865383965721 355.8682552104751 723.75 357.92685049027205 C 706.2620608462083 354.4192045919966 707.4784340621565 340.6239377543623 723.75 347.9292603019858 C 709.8110611188707 341.67119977559037 711.9464353313971 323.2133088000517 723.75 332.915535338223 C 720.1161575481631 329.92861031501144 729.9862267931034 303.141204760299 732.2248398512602 307.2782500386238 L 738.0940715074539 308.22925996780396 M 728.4059284925461 436.27074003219604 L 725.3363402190153 432.44504691753536 L 724.253214308992 427.5843366757035 C 715.4423187213935 441.236086140413 712.453437081393 419.289831863528 723.75 407.61122703552246 C 704.0985498409804 427.9272755856894 707.2530781516167 417.90815846690833 728.1089837998152 398.830618750304 C 713.8475770645996 411.8759670557239 722.0514847129576 391.896762101218 738.4978587294463 381.74365340551594 C 723.1032333825559 391.24746891645367 726.5510329214567 384.62558314510176 742.75 376.5688800709322 C 716.6568461396616 389.54654660374626 726.1166366702513 420.49987949360207 742.75 396.5707396980142 C 738.8764102528684 402.14337517361224 740.0767210849763 432.95730825672075 742.3601696997357 426.5663125520805 C 732.2965672879326 454.7326743310679 722.7550215481552 464.82440265982126 734.2751601487398 437.2217499613762 L 728.4059284925461 436.27074003219604 Z" fill-opacity="1" stroke-opacity="1" stroke-linecap="round" stroke-miterlimit="10" stroke-width="4" stroke-dasharray=""/><path fill="rgb(255,255,255)" stroke="none" paint-order="stroke fill markers" d=" M 745.4881712507079 324.22958290639264 L 740.0823428197043 312.03177623058633 L 740.2972066387601 317.09143388378607 L 746.1158987117077 329.0977776772149 Z" fill-opacity="1"/><path fill="none" stroke="rgb(0,0,0)" paint-order="fill stroke markers" d=" M 745.4881712507079 324.22958290639264 L 740.0823428197043 312.03177623058633" stroke-opacity="1" stroke-linecap="round" stroke-miterlimit="10" stroke-width="4" stroke-dasharray=""/><path fill="none" stroke="rgb(0,0,0)" paint-order="fill stroke markers" d=" M 746.1158987117077 329.0977776772149 L 740.2972066387601 317.09143388378607" stroke-opacity="1" stroke-linecap="round" stroke-miterlimit="10" stroke-width="4" stroke-dasharray=""/><path fill="rgb(255,255,255)" stroke="none" paint-order="stroke fill markers" d=" M 728.9793408320581 406.5450670049494 L 719.7820016133243 417.19325992166563 L 719.529565899558 411.97439328501196 L 729.3120204999483 401.8611028665888 Z" fill-opacity="1"/><path fill="none" stroke="rgb(0,0,0)" paint-order="fill stroke markers" d=" M 728.9793408320581 406.5450670049494 L 719.7820016133243 417.19325992166563" stroke-opacity="1" stroke-linecap="round" stroke-miterlimit="10" stroke-width="4" stroke-dasharray=""/><path fill="none" stroke="rgb(0,0,0)" paint-order="fill stroke markers" d=" M 729.3120204999483 401.8611028665888 L 719.529565899558 411.97439328501196" stroke-opacity="1" stroke-linecap="round" stroke-miterlimit="10" stroke-width="4" stroke-dasharray=""/><g><path fill="rgb(255,255,255)" stroke="rgb(0,0,0)" paint-order="fill stroke markers" d=" M 876.9320055943263 743.2193025874733 C 877.686428037809 745.8443907431214 876.427409472208 748.5100353760317 874.1199089211872 749.1731865164204 C 871.8124083701664 749.8363376568092 869.3302293491565 748.2458734587997 868.5758069056737 745.6207853031517 C 867.821384462191 742.9956971475036 869.080403027792 740.3300525145933 871.3879035788128 739.6669013742046 C 873.6954041298336 739.0037502338158 876.1775831508435 740.5942144318253 876.9320055943263 743.2193025874733" fill-opacity="1" stroke-opacity="1" stroke-linecap="round" stroke-miterlimit="10" stroke-width="4" stroke-dasharray=""/></g><g><path fill="rgb(255,255,255)" stroke="rgb(0,0,0)" paint-order="fill stroke markers" d=" M 142.61985500911146 805.8111266556087 C 140.659231212142 807.1850254417495 138.1478820893574 806.9831214064542 137.01059974773108 805.3601613708541 C 135.87331740610472 803.7372013352542 136.54076753180973 801.3077672477195 138.50139132877916 799.9338684615788 C 140.46201512574862 798.559969675438 142.97336424853322 798.7618737107333 144.11064659015955 800.3848337463334 C 145.2479289317859 802.0077937819333 144.5804788060809 804.437227869468 142.61985500911146 805.8111266556087" fill-opacity="1" stroke-opacity="1" stroke-linecap="round" stroke-miterlimit="10" stroke-width="4" stroke-dasharray=""/></g><g><path fill="rgb(255,255,255)" stroke="rgb(0,0,0)" paint-order="fill stroke markers" d=" M 238.0482810868963 -80.80368661040121 C 235.89956958737378 -82.65381716503583 235.49984207190366 -85.71239235876985 237.15546469234295 -87.63520551079097 C 238.81108731278223 -89.55801866281207 241.89510946436238 -89.61693954970215 244.04382096388494 -87.76680899506754 C 246.19253246340747 -85.91667844043292 246.5922599788776 -82.8581032466989 244.9366373584383 -80.93529009467778 C 243.28101473799902 -79.01247694265668 240.19699258641887 -78.9535560557666 238.0482810868963 -80.80368661040121" fill-opacity="1" stroke-opacity="1" stroke-linecap="round" stroke-miterlimit="10" stroke-width="4" stroke-dasharray=""/></g><g><path fill="rgb(255,255,255)" stroke="rgb(0,0,0)" paint-order="fill stroke markers" d=" M 742.4337224563951 40.94977625855364 C 742.1201659194061 34.07451258681323 744.8781609449798 28.363635118052905 748.593876760591 28.194174419641072 C 752.3095925762024 28.02471372122924 755.5759631941158 33.460841112186415 755.8895197311049 40.33610478392683 C 756.2030762680939 47.21136845566724 753.4450812425202 52.922245924427564 749.729365426909 53.091706622839396 C 746.0136496112976 53.26116732125123 742.7472789933842 47.825039930294054 742.4337224563951 40.94977625855364" fill-opacity="1" stroke-opacity="1" stroke-linecap="round" stroke-miterlimit="10" stroke-width="4" stroke-dasharray=""/></g><g><path fill="rgb(255,255,255)" stroke="rgb(0,0,0)" paint-order="fill stroke markers" d=" M 850.5136647000769 287.205616118277 C 856.0342363051025 282.7312755523894 862.4097135254409 281.448590528641 864.7536916312357 284.3406589313699 C 867.0976697370304 287.2327273340988 864.5225319049486 293.2043816947416 859.0019602999231 297.67872226062923 C 853.4813886948975 302.1530628265169 847.1059114745591 303.4357478502653 844.7619333687643 300.54367944753636 C 842.4179552629696 297.65161104480745 844.9930930950514 291.67995668416467 850.5136647000769 287.205616118277" fill-opacity="1" stroke-opacity="1" stroke-linecap="round" stroke-miterlimit="10" stroke-width="4" stroke-dasharray=""/></g><g><path fill="rgb(255,255,255)" stroke="rgb(0,0,0)" paint-order="fill stroke markers" d=" M 1115.7804729304478 591.0241866632724 C 1119.3836492280566 593.3935162209978 1121.0107717555725 597.281837795713 1119.414752814345 599.708995976733 C 1117.8187338731175 602.136154157753 1113.6039533671608 602.1830335194528 1110.0007770695522 599.8137039617276 C 1106.3976007719434 597.4443744040022 1104.7704782444275 593.556052829287 1106.366497185655 591.128894648267 C 1107.9625161268825 588.701736467247 1112.1772966328392 588.6548571055472 1115.7804729304478 591.0241866632724" fill-opacity="1" stroke-opacity="1" stroke-linecap="round" stroke-miterlimit="10" stroke-width="4" stroke-dasharray=""/></g><g><path fill="rgb(255,255,255)" stroke="rgb(0,0,0)" paint-order="fill stroke markers" d=" M 606.4577291579424 1054.3021273340453 C 605.1064328449507 1059.9586844099008 601.0942987408528 1063.847460670386 597.4963768200319 1062.987952216597 C 593.8984548992108 1062.1284437628083 592.0772049978161 1056.8461289605602 593.4285013108076 1051.1895718847047 C 594.7797976237993 1045.5330148088492 598.7919317278972 1041.644238548364 602.3898536487181 1042.503747002153 C 605.9877755695392 1043.3632554559417 607.8090254709339 1048.6455702581898 606.4577291579424 1054.3021273340453" fill-opacity="1" stroke-opacity="1" stroke-linecap="round" stroke-miterlimit="10" stroke-width="4" stroke-dasharray=""/></g><g><path fill="rgb(255,255,255)" stroke="rgb(0,0,0)" paint-order="fill stroke markers" d=" M 578.9067039757754 461.90871933286076 C 575.3345469754805 463.6294656778892 571.2576292253415 462.5724941421756 569.8006533145173 459.54790733183677 C 568.343677403693 456.52332052149796 570.0583704692423 452.6764679301364 573.6305274695371 450.955721585108 C 577.202684469832 449.23497524007956 581.279602219971 450.2919467757932 582.7365781307952 453.316533586132 C 584.1935540416194 456.3411203964708 582.4788609760702 460.1879729878323 578.9067039757754 461.90871933286076" fill-opacity="1" stroke-opacity="1" stroke-linecap="round" stroke-miterlimit="10" stroke-width="4" stroke-dasharray=""/></g><g><path fill="rgb(255,255,255)" stroke="rgb(0,0,0)" paint-order="fill stroke markers" d=" M 263.9181811463946 64.16845100640626 C 260.24969949044583 61.92024340691016 258.20146153578196 58.58728791130093 259.3433136301577 56.72408654904109 C 260.48516572453343 54.86088518678125 264.3847117093754 55.17299440923437 268.05319336532415 57.42120200873046 C 271.7216750212729 59.66940960822656 273.7699129759368 63.002365103835785 272.62806088156105 64.86556646609563 C 271.4862087871853 66.72876782835547 267.58666280234337 66.41665860590236 263.9181811463946 64.16845100640626" fill-opacity="1" stroke-opacity="1" stroke-linecap="round" stroke-miterlimit="10" stroke-width="4" stroke-dasharray=""/></g><g><path fill="rgb(255,255,255)" stroke="rgb(0,0,0)" paint-order="fill stroke markers" d=" M 739.4877830608154 29.691979771202437 C 739.2663553193905 25.770452555725612 741.5515863956024 22.452256251830057 744.5919895295275 22.28058089119271 C 747.6323926634525 22.10890553055536 750.2766290415096 25.148761079726988 750.4980567829346 29.070288295203813 C 750.7194845243595 32.99181551068064 748.4342534481476 36.31001181457619 745.3938503142225 36.48168717521354 C 742.3534471802975 36.65336253585089 739.7092108022404 33.61350698667926 739.4877830608154 29.691979771202437" fill-opacity="1" stroke-opacity="1" stroke-linecap="round" stroke-miterlimit="10" stroke-width="4" stroke-dasharray=""/></g><g><path fill="rgb(255,255,255)" stroke="rgb(0,0,0)" paint-order="fill stroke markers" d=" M 1288.9495712565874 -169.10293973370597 C 1291.4791102519393 -171.65332188478533 1294.8342738201422 -172.42690972113152 1296.443538832416 -170.83079652661314 C 1298.0528038446894 -169.23468333209473 1297.3067743793897 -165.87328470252962 1294.7772353840376 -163.32290255145028 C 1292.2476963886857 -160.77252040037092 1288.8925328204828 -159.99893256402473 1287.283267808209 -161.5950457585431 C 1285.6740027959356 -163.19115895306152 1286.4200322612353 -166.55255758262663 1288.9495712565874 -169.10293973370597" fill-opacity="1" stroke-opacity="1" stroke-linecap="round" stroke-miterlimit="10" stroke-width="4" stroke-dasharray=""/></g><g><path fill="rgb(255,255,255)" stroke="rgb(0,0,0)" paint-order="fill stroke markers" d=" M 1301.2577572765529 567.1071337342521 C 1305.4341346351823 568.706104694956 1308.1338902536356 571.7937539965237 1307.28783022414 574.0035914720405 C 1306.4417701946445 576.2134289475574 1302.3702802383266 576.7086341014518 1298.1939028796971 575.1096631407479 C 1294.0175255210677 573.510692180044 1291.3177699026144 570.4230428784763 1292.16382993211 568.2132054029595 C 1293.0098899616055 566.0033679274426 1297.0813799179234 565.5081627735482 1301.2577572765529 567.1071337342521" fill-opacity="1" stroke-opacity="1" stroke-linecap="round" stroke-miterlimit="10" stroke-width="4" stroke-dasharray=""/></g><g><path fill="rgb(255,255,255)" stroke="rgb(0,0,0)" paint-order="fill stroke markers" d=" M 763.486897957736 498.5348987460488 C 763.1747410061076 504.30400168678926 759.9494439730619 508.8199602991778 756.2829954067172 508.6215746195447 C 752.6165468403725 508.4231889399116 749.8973562234482 503.58558358922295 750.2095131750765 497.81648064848247 C 750.5216701267049 492.047377707742 753.7469671597506 487.53141909535344 757.4134157260953 487.7298047749866 C 761.07986429244 487.92819045461965 763.7990549093643 492.7657958053083 763.486897957736 498.5348987460488" fill-opacity="1" stroke-opacity="1" stroke-linecap="round" stroke-miterlimit="10" stroke-width="4" stroke-dasharray=""/></g><g><path fill="rgb(255,255,255)" stroke="rgb(0,0,0)" paint-order="fill stroke markers" d=" M 583.6800884171197 455.8096021012558 C 580.277039979551 457.41641222171046 576.7113608962202 457.0099291095601 575.7159212779883 454.9016966591947 C 574.7204816597563 452.7934642088293 576.6722342390616 449.7818271598239 580.0752826766303 448.1750170393692 C 583.478331114199 446.56820691891454 587.0440101975298 446.9746900310649 588.0394498157617 449.0829224814303 C 589.0348894339937 451.1911549317957 587.0831368546884 454.2027919808011 583.6800884171197 455.8096021012558" fill-opacity="1" stroke-opacity="1" stroke-linecap="round" stroke-miterlimit="10" stroke-width="4" stroke-dasharray=""/></g><g><path fill="rgb(255,255,255)" stroke="rgb(0,0,0)" paint-order="fill stroke markers" d=" M 447.3145230320681 240.0645673371457 C 442.88928572130425 238.230278153535 440.1464669092487 234.70582182616434 441.1882657494979 232.19247380046974 C 442.230064589747 229.67912577477514 446.66197305560553 229.12863981713426 451.0872103663694 230.96292900074494 C 455.51244767713325 232.79721818435561 458.2552664891888 236.3216745117263 457.2134676489396 238.83502253742088 C 456.1716688086905 241.34837056311548 451.73976034283197 241.89885652075637 447.3145230320681 240.0645673371457" fill-opacity="1" stroke-opacity="1" stroke-linecap="round" stroke-miterlimit="10" stroke-width="4" stroke-dasharray=""/></g></g></svg>